%TF.GenerationSoftware,KiCad,Pcbnew,9.0.6*%
%TF.CreationDate,2026-05-18T18:36:24-03:00*%
%TF.ProjectId,TCC Circuito,54434320-4369-4726-9375-69746f2e6b69,rev?*%
%TF.SameCoordinates,Original*%
%TF.FileFunction,Legend,Top*%
%TF.FilePolarity,Positive*%
%FSLAX46Y46*%
G04 Gerber Fmt 4.6, Leading zero omitted, Abs format (unit mm)*
G04 Created by KiCad (PCBNEW 9.0.6) date 2026-05-18 18:36:24*
%MOMM*%
%LPD*%
G01*
G04 APERTURE LIST*
%ADD10C,0.150000*%
%ADD11C,0.120000*%
G04 APERTURE END LIST*
D10*
X123561009Y-110907619D02*
X123561009Y-111240952D01*
X124084819Y-111240952D02*
X123084819Y-111240952D01*
X123084819Y-111240952D02*
X123084819Y-110764762D01*
X123418152Y-109955238D02*
X124084819Y-109955238D01*
X123418152Y-110383809D02*
X123941961Y-110383809D01*
X123941961Y-110383809D02*
X124037200Y-110336190D01*
X124037200Y-110336190D02*
X124084819Y-110240952D01*
X124084819Y-110240952D02*
X124084819Y-110098095D01*
X124084819Y-110098095D02*
X124037200Y-110002857D01*
X124037200Y-110002857D02*
X123989580Y-109955238D01*
X124084819Y-109479047D02*
X123418152Y-109479047D01*
X123608628Y-109479047D02*
X123513390Y-109431428D01*
X123513390Y-109431428D02*
X123465771Y-109383809D01*
X123465771Y-109383809D02*
X123418152Y-109288571D01*
X123418152Y-109288571D02*
X123418152Y-109193333D01*
X124084819Y-108717142D02*
X124037200Y-108812380D01*
X124037200Y-108812380D02*
X123989580Y-108859999D01*
X123989580Y-108859999D02*
X123894342Y-108907618D01*
X123894342Y-108907618D02*
X123608628Y-108907618D01*
X123608628Y-108907618D02*
X123513390Y-108859999D01*
X123513390Y-108859999D02*
X123465771Y-108812380D01*
X123465771Y-108812380D02*
X123418152Y-108717142D01*
X123418152Y-108717142D02*
X123418152Y-108574285D01*
X123418152Y-108574285D02*
X123465771Y-108479047D01*
X123465771Y-108479047D02*
X123513390Y-108431428D01*
X123513390Y-108431428D02*
X123608628Y-108383809D01*
X123608628Y-108383809D02*
X123894342Y-108383809D01*
X123894342Y-108383809D02*
X123989580Y-108431428D01*
X123989580Y-108431428D02*
X124037200Y-108479047D01*
X124037200Y-108479047D02*
X124084819Y-108574285D01*
X124084819Y-108574285D02*
X124084819Y-108717142D01*
X124084819Y-107431428D02*
X124084819Y-108002856D01*
X124084819Y-107717142D02*
X123084819Y-107717142D01*
X123084819Y-107717142D02*
X123227676Y-107812380D01*
X123227676Y-107812380D02*
X123322914Y-107907618D01*
X123322914Y-107907618D02*
X123370533Y-108002856D01*
X131324819Y-136539047D02*
X130848628Y-136872380D01*
X131324819Y-137110475D02*
X130324819Y-137110475D01*
X130324819Y-137110475D02*
X130324819Y-136729523D01*
X130324819Y-136729523D02*
X130372438Y-136634285D01*
X130372438Y-136634285D02*
X130420057Y-136586666D01*
X130420057Y-136586666D02*
X130515295Y-136539047D01*
X130515295Y-136539047D02*
X130658152Y-136539047D01*
X130658152Y-136539047D02*
X130753390Y-136586666D01*
X130753390Y-136586666D02*
X130801009Y-136634285D01*
X130801009Y-136634285D02*
X130848628Y-136729523D01*
X130848628Y-136729523D02*
X130848628Y-137110475D01*
X130658152Y-136110475D02*
X131658152Y-136110475D01*
X130705771Y-136110475D02*
X130658152Y-136015237D01*
X130658152Y-136015237D02*
X130658152Y-135824761D01*
X130658152Y-135824761D02*
X130705771Y-135729523D01*
X130705771Y-135729523D02*
X130753390Y-135681904D01*
X130753390Y-135681904D02*
X130848628Y-135634285D01*
X130848628Y-135634285D02*
X131134342Y-135634285D01*
X131134342Y-135634285D02*
X131229580Y-135681904D01*
X131229580Y-135681904D02*
X131277200Y-135729523D01*
X131277200Y-135729523D02*
X131324819Y-135824761D01*
X131324819Y-135824761D02*
X131324819Y-136015237D01*
X131324819Y-136015237D02*
X131277200Y-136110475D01*
X131324819Y-134681904D02*
X131324819Y-135253332D01*
X131324819Y-134967618D02*
X130324819Y-134967618D01*
X130324819Y-134967618D02*
X130467676Y-135062856D01*
X130467676Y-135062856D02*
X130562914Y-135158094D01*
X130562914Y-135158094D02*
X130610533Y-135253332D01*
X127824819Y-141110476D02*
X127348628Y-141443809D01*
X127824819Y-141681904D02*
X126824819Y-141681904D01*
X126824819Y-141681904D02*
X126824819Y-141300952D01*
X126824819Y-141300952D02*
X126872438Y-141205714D01*
X126872438Y-141205714D02*
X126920057Y-141158095D01*
X126920057Y-141158095D02*
X127015295Y-141110476D01*
X127015295Y-141110476D02*
X127158152Y-141110476D01*
X127158152Y-141110476D02*
X127253390Y-141158095D01*
X127253390Y-141158095D02*
X127301009Y-141205714D01*
X127301009Y-141205714D02*
X127348628Y-141300952D01*
X127348628Y-141300952D02*
X127348628Y-141681904D01*
X127777200Y-140729523D02*
X127824819Y-140634285D01*
X127824819Y-140634285D02*
X127824819Y-140443809D01*
X127824819Y-140443809D02*
X127777200Y-140348571D01*
X127777200Y-140348571D02*
X127681961Y-140300952D01*
X127681961Y-140300952D02*
X127634342Y-140300952D01*
X127634342Y-140300952D02*
X127539104Y-140348571D01*
X127539104Y-140348571D02*
X127491485Y-140443809D01*
X127491485Y-140443809D02*
X127491485Y-140586666D01*
X127491485Y-140586666D02*
X127443866Y-140681904D01*
X127443866Y-140681904D02*
X127348628Y-140729523D01*
X127348628Y-140729523D02*
X127301009Y-140729523D01*
X127301009Y-140729523D02*
X127205771Y-140681904D01*
X127205771Y-140681904D02*
X127158152Y-140586666D01*
X127158152Y-140586666D02*
X127158152Y-140443809D01*
X127158152Y-140443809D02*
X127205771Y-140348571D01*
X127443866Y-139872380D02*
X127443866Y-139110476D01*
X127158152Y-138205714D02*
X127824819Y-138205714D01*
X126777200Y-138443809D02*
X127491485Y-138681904D01*
X127491485Y-138681904D02*
X127491485Y-138062857D01*
X146454819Y-76888094D02*
X145454819Y-76888094D01*
X146454819Y-76316666D02*
X145883390Y-76745237D01*
X145454819Y-76316666D02*
X146026247Y-76888094D01*
X145550057Y-75935713D02*
X145502438Y-75888094D01*
X145502438Y-75888094D02*
X145454819Y-75792856D01*
X145454819Y-75792856D02*
X145454819Y-75554761D01*
X145454819Y-75554761D02*
X145502438Y-75459523D01*
X145502438Y-75459523D02*
X145550057Y-75411904D01*
X145550057Y-75411904D02*
X145645295Y-75364285D01*
X145645295Y-75364285D02*
X145740533Y-75364285D01*
X145740533Y-75364285D02*
X145883390Y-75411904D01*
X145883390Y-75411904D02*
X146454819Y-75983332D01*
X146454819Y-75983332D02*
X146454819Y-75364285D01*
X139609580Y-118214285D02*
X139657200Y-118261904D01*
X139657200Y-118261904D02*
X139704819Y-118404761D01*
X139704819Y-118404761D02*
X139704819Y-118499999D01*
X139704819Y-118499999D02*
X139657200Y-118642856D01*
X139657200Y-118642856D02*
X139561961Y-118738094D01*
X139561961Y-118738094D02*
X139466723Y-118785713D01*
X139466723Y-118785713D02*
X139276247Y-118833332D01*
X139276247Y-118833332D02*
X139133390Y-118833332D01*
X139133390Y-118833332D02*
X138942914Y-118785713D01*
X138942914Y-118785713D02*
X138847676Y-118738094D01*
X138847676Y-118738094D02*
X138752438Y-118642856D01*
X138752438Y-118642856D02*
X138704819Y-118499999D01*
X138704819Y-118499999D02*
X138704819Y-118404761D01*
X138704819Y-118404761D02*
X138752438Y-118261904D01*
X138752438Y-118261904D02*
X138800057Y-118214285D01*
X139181009Y-117452380D02*
X139181009Y-117785713D01*
X139704819Y-117785713D02*
X138704819Y-117785713D01*
X138704819Y-117785713D02*
X138704819Y-117309523D01*
X139323866Y-116928570D02*
X139323866Y-116166666D01*
X139704819Y-116547618D02*
X138942914Y-116547618D01*
X139704819Y-115166666D02*
X139704819Y-115738094D01*
X139704819Y-115452380D02*
X138704819Y-115452380D01*
X138704819Y-115452380D02*
X138847676Y-115547618D01*
X138847676Y-115547618D02*
X138942914Y-115642856D01*
X138942914Y-115642856D02*
X138990533Y-115738094D01*
X116738095Y-129874819D02*
X116738095Y-130684342D01*
X116738095Y-130684342D02*
X116785714Y-130779580D01*
X116785714Y-130779580D02*
X116833333Y-130827200D01*
X116833333Y-130827200D02*
X116928571Y-130874819D01*
X116928571Y-130874819D02*
X117119047Y-130874819D01*
X117119047Y-130874819D02*
X117214285Y-130827200D01*
X117214285Y-130827200D02*
X117261904Y-130779580D01*
X117261904Y-130779580D02*
X117309523Y-130684342D01*
X117309523Y-130684342D02*
X117309523Y-129874819D01*
X118309523Y-130874819D02*
X117738095Y-130874819D01*
X118023809Y-130874819D02*
X118023809Y-129874819D01*
X118023809Y-129874819D02*
X117928571Y-130017676D01*
X117928571Y-130017676D02*
X117833333Y-130112914D01*
X117833333Y-130112914D02*
X117738095Y-130160533D01*
X110254819Y-123434404D02*
X111064342Y-123434404D01*
X111064342Y-123434404D02*
X111159580Y-123386785D01*
X111159580Y-123386785D02*
X111207200Y-123339166D01*
X111207200Y-123339166D02*
X111254819Y-123243928D01*
X111254819Y-123243928D02*
X111254819Y-123053452D01*
X111254819Y-123053452D02*
X111207200Y-122958214D01*
X111207200Y-122958214D02*
X111159580Y-122910595D01*
X111159580Y-122910595D02*
X111064342Y-122862976D01*
X111064342Y-122862976D02*
X110254819Y-122862976D01*
X110350057Y-122434404D02*
X110302438Y-122386785D01*
X110302438Y-122386785D02*
X110254819Y-122291547D01*
X110254819Y-122291547D02*
X110254819Y-122053452D01*
X110254819Y-122053452D02*
X110302438Y-121958214D01*
X110302438Y-121958214D02*
X110350057Y-121910595D01*
X110350057Y-121910595D02*
X110445295Y-121862976D01*
X110445295Y-121862976D02*
X110540533Y-121862976D01*
X110540533Y-121862976D02*
X110683390Y-121910595D01*
X110683390Y-121910595D02*
X111254819Y-122482023D01*
X111254819Y-122482023D02*
X111254819Y-121862976D01*
X133609580Y-126071428D02*
X133657200Y-126119047D01*
X133657200Y-126119047D02*
X133704819Y-126261904D01*
X133704819Y-126261904D02*
X133704819Y-126357142D01*
X133704819Y-126357142D02*
X133657200Y-126499999D01*
X133657200Y-126499999D02*
X133561961Y-126595237D01*
X133561961Y-126595237D02*
X133466723Y-126642856D01*
X133466723Y-126642856D02*
X133276247Y-126690475D01*
X133276247Y-126690475D02*
X133133390Y-126690475D01*
X133133390Y-126690475D02*
X132942914Y-126642856D01*
X132942914Y-126642856D02*
X132847676Y-126595237D01*
X132847676Y-126595237D02*
X132752438Y-126499999D01*
X132752438Y-126499999D02*
X132704819Y-126357142D01*
X132704819Y-126357142D02*
X132704819Y-126261904D01*
X132704819Y-126261904D02*
X132752438Y-126119047D01*
X132752438Y-126119047D02*
X132800057Y-126071428D01*
X133038152Y-125785713D02*
X133038152Y-125404761D01*
X133704819Y-125642856D02*
X132847676Y-125642856D01*
X132847676Y-125642856D02*
X132752438Y-125595237D01*
X132752438Y-125595237D02*
X132704819Y-125499999D01*
X132704819Y-125499999D02*
X132704819Y-125404761D01*
X133323866Y-125071427D02*
X133323866Y-124309523D01*
X133704819Y-123309523D02*
X133704819Y-123880951D01*
X133704819Y-123595237D02*
X132704819Y-123595237D01*
X132704819Y-123595237D02*
X132847676Y-123690475D01*
X132847676Y-123690475D02*
X132942914Y-123785713D01*
X132942914Y-123785713D02*
X132990533Y-123880951D01*
X114284819Y-104123809D02*
X113808628Y-104457142D01*
X114284819Y-104695237D02*
X113284819Y-104695237D01*
X113284819Y-104695237D02*
X113284819Y-104314285D01*
X113284819Y-104314285D02*
X113332438Y-104219047D01*
X113332438Y-104219047D02*
X113380057Y-104171428D01*
X113380057Y-104171428D02*
X113475295Y-104123809D01*
X113475295Y-104123809D02*
X113618152Y-104123809D01*
X113618152Y-104123809D02*
X113713390Y-104171428D01*
X113713390Y-104171428D02*
X113761009Y-104219047D01*
X113761009Y-104219047D02*
X113808628Y-104314285D01*
X113808628Y-104314285D02*
X113808628Y-104695237D01*
X114237200Y-103742856D02*
X114284819Y-103647618D01*
X114284819Y-103647618D02*
X114284819Y-103457142D01*
X114284819Y-103457142D02*
X114237200Y-103361904D01*
X114237200Y-103361904D02*
X114141961Y-103314285D01*
X114141961Y-103314285D02*
X114094342Y-103314285D01*
X114094342Y-103314285D02*
X113999104Y-103361904D01*
X113999104Y-103361904D02*
X113951485Y-103457142D01*
X113951485Y-103457142D02*
X113951485Y-103599999D01*
X113951485Y-103599999D02*
X113903866Y-103695237D01*
X113903866Y-103695237D02*
X113808628Y-103742856D01*
X113808628Y-103742856D02*
X113761009Y-103742856D01*
X113761009Y-103742856D02*
X113665771Y-103695237D01*
X113665771Y-103695237D02*
X113618152Y-103599999D01*
X113618152Y-103599999D02*
X113618152Y-103457142D01*
X113618152Y-103457142D02*
X113665771Y-103361904D01*
X114284819Y-102885713D02*
X113284819Y-102885713D01*
X114284819Y-102457142D02*
X113761009Y-102457142D01*
X113761009Y-102457142D02*
X113665771Y-102504761D01*
X113665771Y-102504761D02*
X113618152Y-102599999D01*
X113618152Y-102599999D02*
X113618152Y-102742856D01*
X113618152Y-102742856D02*
X113665771Y-102838094D01*
X113665771Y-102838094D02*
X113713390Y-102885713D01*
X114284819Y-101457142D02*
X114284819Y-102028570D01*
X114284819Y-101742856D02*
X113284819Y-101742856D01*
X113284819Y-101742856D02*
X113427676Y-101838094D01*
X113427676Y-101838094D02*
X113522914Y-101933332D01*
X113522914Y-101933332D02*
X113570533Y-102028570D01*
X121964761Y-98310057D02*
X121869523Y-98262438D01*
X121869523Y-98262438D02*
X121774285Y-98167200D01*
X121774285Y-98167200D02*
X121631428Y-98024342D01*
X121631428Y-98024342D02*
X121536190Y-97976723D01*
X121536190Y-97976723D02*
X121440952Y-97976723D01*
X121488571Y-98214819D02*
X121393333Y-98167200D01*
X121393333Y-98167200D02*
X121298095Y-98071961D01*
X121298095Y-98071961D02*
X121250476Y-97881485D01*
X121250476Y-97881485D02*
X121250476Y-97548152D01*
X121250476Y-97548152D02*
X121298095Y-97357676D01*
X121298095Y-97357676D02*
X121393333Y-97262438D01*
X121393333Y-97262438D02*
X121488571Y-97214819D01*
X121488571Y-97214819D02*
X121679047Y-97214819D01*
X121679047Y-97214819D02*
X121774285Y-97262438D01*
X121774285Y-97262438D02*
X121869523Y-97357676D01*
X121869523Y-97357676D02*
X121917142Y-97548152D01*
X121917142Y-97548152D02*
X121917142Y-97881485D01*
X121917142Y-97881485D02*
X121869523Y-98071961D01*
X121869523Y-98071961D02*
X121774285Y-98167200D01*
X121774285Y-98167200D02*
X121679047Y-98214819D01*
X121679047Y-98214819D02*
X121488571Y-98214819D01*
X122774285Y-97548152D02*
X122774285Y-98214819D01*
X122536190Y-97167200D02*
X122298095Y-97881485D01*
X122298095Y-97881485D02*
X122917142Y-97881485D01*
X150214819Y-113553034D02*
X151024342Y-113553034D01*
X151024342Y-113553034D02*
X151119580Y-113505415D01*
X151119580Y-113505415D02*
X151167200Y-113457796D01*
X151167200Y-113457796D02*
X151214819Y-113362558D01*
X151214819Y-113362558D02*
X151214819Y-113172082D01*
X151214819Y-113172082D02*
X151167200Y-113076844D01*
X151167200Y-113076844D02*
X151119580Y-113029225D01*
X151119580Y-113029225D02*
X151024342Y-112981606D01*
X151024342Y-112981606D02*
X150214819Y-112981606D01*
X150214819Y-112600653D02*
X150214819Y-111981606D01*
X150214819Y-111981606D02*
X150595771Y-112314939D01*
X150595771Y-112314939D02*
X150595771Y-112172082D01*
X150595771Y-112172082D02*
X150643390Y-112076844D01*
X150643390Y-112076844D02*
X150691009Y-112029225D01*
X150691009Y-112029225D02*
X150786247Y-111981606D01*
X150786247Y-111981606D02*
X151024342Y-111981606D01*
X151024342Y-111981606D02*
X151119580Y-112029225D01*
X151119580Y-112029225D02*
X151167200Y-112076844D01*
X151167200Y-112076844D02*
X151214819Y-112172082D01*
X151214819Y-112172082D02*
X151214819Y-112457796D01*
X151214819Y-112457796D02*
X151167200Y-112553034D01*
X151167200Y-112553034D02*
X151119580Y-112600653D01*
X178465595Y-94894819D02*
X178465595Y-95704342D01*
X178465595Y-95704342D02*
X178513214Y-95799580D01*
X178513214Y-95799580D02*
X178560833Y-95847200D01*
X178560833Y-95847200D02*
X178656071Y-95894819D01*
X178656071Y-95894819D02*
X178846547Y-95894819D01*
X178846547Y-95894819D02*
X178941785Y-95847200D01*
X178941785Y-95847200D02*
X178989404Y-95799580D01*
X178989404Y-95799580D02*
X179037023Y-95704342D01*
X179037023Y-95704342D02*
X179037023Y-94894819D01*
X179941785Y-95228152D02*
X179941785Y-95894819D01*
X179703690Y-94847200D02*
X179465595Y-95561485D01*
X179465595Y-95561485D02*
X180084642Y-95561485D01*
X219614819Y-129805238D02*
X219138628Y-130138571D01*
X219614819Y-130376666D02*
X218614819Y-130376666D01*
X218614819Y-130376666D02*
X218614819Y-129995714D01*
X218614819Y-129995714D02*
X218662438Y-129900476D01*
X218662438Y-129900476D02*
X218710057Y-129852857D01*
X218710057Y-129852857D02*
X218805295Y-129805238D01*
X218805295Y-129805238D02*
X218948152Y-129805238D01*
X218948152Y-129805238D02*
X219043390Y-129852857D01*
X219043390Y-129852857D02*
X219091009Y-129900476D01*
X219091009Y-129900476D02*
X219138628Y-129995714D01*
X219138628Y-129995714D02*
X219138628Y-130376666D01*
X218614819Y-129519523D02*
X219614819Y-129186190D01*
X219614819Y-129186190D02*
X218614819Y-128852857D01*
X218710057Y-128567142D02*
X218662438Y-128519523D01*
X218662438Y-128519523D02*
X218614819Y-128424285D01*
X218614819Y-128424285D02*
X218614819Y-128186190D01*
X218614819Y-128186190D02*
X218662438Y-128090952D01*
X218662438Y-128090952D02*
X218710057Y-128043333D01*
X218710057Y-128043333D02*
X218805295Y-127995714D01*
X218805295Y-127995714D02*
X218900533Y-127995714D01*
X218900533Y-127995714D02*
X219043390Y-128043333D01*
X219043390Y-128043333D02*
X219614819Y-128614761D01*
X219614819Y-128614761D02*
X219614819Y-127995714D01*
X166654819Y-72288094D02*
X165654819Y-72288094D01*
X166654819Y-71716666D02*
X166083390Y-72145237D01*
X165654819Y-71716666D02*
X166226247Y-72288094D01*
X166654819Y-70764285D02*
X166654819Y-71335713D01*
X166654819Y-71049999D02*
X165654819Y-71049999D01*
X165654819Y-71049999D02*
X165797676Y-71145237D01*
X165797676Y-71145237D02*
X165892914Y-71240475D01*
X165892914Y-71240475D02*
X165940533Y-71335713D01*
X221084819Y-138884285D02*
X220084819Y-138884285D01*
X220084819Y-138884285D02*
X220084819Y-138646190D01*
X220084819Y-138646190D02*
X220132438Y-138503333D01*
X220132438Y-138503333D02*
X220227676Y-138408095D01*
X220227676Y-138408095D02*
X220322914Y-138360476D01*
X220322914Y-138360476D02*
X220513390Y-138312857D01*
X220513390Y-138312857D02*
X220656247Y-138312857D01*
X220656247Y-138312857D02*
X220846723Y-138360476D01*
X220846723Y-138360476D02*
X220941961Y-138408095D01*
X220941961Y-138408095D02*
X221037200Y-138503333D01*
X221037200Y-138503333D02*
X221084819Y-138646190D01*
X221084819Y-138646190D02*
X221084819Y-138884285D01*
X221037200Y-137931904D02*
X221084819Y-137789047D01*
X221084819Y-137789047D02*
X221084819Y-137550952D01*
X221084819Y-137550952D02*
X221037200Y-137455714D01*
X221037200Y-137455714D02*
X220989580Y-137408095D01*
X220989580Y-137408095D02*
X220894342Y-137360476D01*
X220894342Y-137360476D02*
X220799104Y-137360476D01*
X220799104Y-137360476D02*
X220703866Y-137408095D01*
X220703866Y-137408095D02*
X220656247Y-137455714D01*
X220656247Y-137455714D02*
X220608628Y-137550952D01*
X220608628Y-137550952D02*
X220561009Y-137741428D01*
X220561009Y-137741428D02*
X220513390Y-137836666D01*
X220513390Y-137836666D02*
X220465771Y-137884285D01*
X220465771Y-137884285D02*
X220370533Y-137931904D01*
X220370533Y-137931904D02*
X220275295Y-137931904D01*
X220275295Y-137931904D02*
X220180057Y-137884285D01*
X220180057Y-137884285D02*
X220132438Y-137836666D01*
X220132438Y-137836666D02*
X220084819Y-137741428D01*
X220084819Y-137741428D02*
X220084819Y-137503333D01*
X220084819Y-137503333D02*
X220132438Y-137360476D01*
X221084819Y-136408095D02*
X221084819Y-136979523D01*
X221084819Y-136693809D02*
X220084819Y-136693809D01*
X220084819Y-136693809D02*
X220227676Y-136789047D01*
X220227676Y-136789047D02*
X220322914Y-136884285D01*
X220322914Y-136884285D02*
X220370533Y-136979523D01*
X173904761Y-75640057D02*
X173809523Y-75592438D01*
X173809523Y-75592438D02*
X173714285Y-75497200D01*
X173714285Y-75497200D02*
X173571428Y-75354342D01*
X173571428Y-75354342D02*
X173476190Y-75306723D01*
X173476190Y-75306723D02*
X173380952Y-75306723D01*
X173428571Y-75544819D02*
X173333333Y-75497200D01*
X173333333Y-75497200D02*
X173238095Y-75401961D01*
X173238095Y-75401961D02*
X173190476Y-75211485D01*
X173190476Y-75211485D02*
X173190476Y-74878152D01*
X173190476Y-74878152D02*
X173238095Y-74687676D01*
X173238095Y-74687676D02*
X173333333Y-74592438D01*
X173333333Y-74592438D02*
X173428571Y-74544819D01*
X173428571Y-74544819D02*
X173619047Y-74544819D01*
X173619047Y-74544819D02*
X173714285Y-74592438D01*
X173714285Y-74592438D02*
X173809523Y-74687676D01*
X173809523Y-74687676D02*
X173857142Y-74878152D01*
X173857142Y-74878152D02*
X173857142Y-75211485D01*
X173857142Y-75211485D02*
X173809523Y-75401961D01*
X173809523Y-75401961D02*
X173714285Y-75497200D01*
X173714285Y-75497200D02*
X173619047Y-75544819D01*
X173619047Y-75544819D02*
X173428571Y-75544819D01*
X174238095Y-74640057D02*
X174285714Y-74592438D01*
X174285714Y-74592438D02*
X174380952Y-74544819D01*
X174380952Y-74544819D02*
X174619047Y-74544819D01*
X174619047Y-74544819D02*
X174714285Y-74592438D01*
X174714285Y-74592438D02*
X174761904Y-74640057D01*
X174761904Y-74640057D02*
X174809523Y-74735295D01*
X174809523Y-74735295D02*
X174809523Y-74830533D01*
X174809523Y-74830533D02*
X174761904Y-74973390D01*
X174761904Y-74973390D02*
X174190476Y-75544819D01*
X174190476Y-75544819D02*
X174809523Y-75544819D01*
X177301592Y-86350143D02*
X176968259Y-85873952D01*
X176730164Y-86350143D02*
X176730164Y-85350143D01*
X176730164Y-85350143D02*
X177111116Y-85350143D01*
X177111116Y-85350143D02*
X177206354Y-85397762D01*
X177206354Y-85397762D02*
X177253973Y-85445381D01*
X177253973Y-85445381D02*
X177301592Y-85540619D01*
X177301592Y-85540619D02*
X177301592Y-85683476D01*
X177301592Y-85683476D02*
X177253973Y-85778714D01*
X177253973Y-85778714D02*
X177206354Y-85826333D01*
X177206354Y-85826333D02*
X177111116Y-85873952D01*
X177111116Y-85873952D02*
X176730164Y-85873952D01*
X178396830Y-86445381D02*
X178301592Y-86397762D01*
X178301592Y-86397762D02*
X178206354Y-86302524D01*
X178206354Y-86302524D02*
X178063497Y-86159666D01*
X178063497Y-86159666D02*
X177968259Y-86112047D01*
X177968259Y-86112047D02*
X177873021Y-86112047D01*
X177920640Y-86350143D02*
X177825402Y-86302524D01*
X177825402Y-86302524D02*
X177730164Y-86207285D01*
X177730164Y-86207285D02*
X177682545Y-86016809D01*
X177682545Y-86016809D02*
X177682545Y-85683476D01*
X177682545Y-85683476D02*
X177730164Y-85493000D01*
X177730164Y-85493000D02*
X177825402Y-85397762D01*
X177825402Y-85397762D02*
X177920640Y-85350143D01*
X177920640Y-85350143D02*
X178111116Y-85350143D01*
X178111116Y-85350143D02*
X178206354Y-85397762D01*
X178206354Y-85397762D02*
X178301592Y-85493000D01*
X178301592Y-85493000D02*
X178349211Y-85683476D01*
X178349211Y-85683476D02*
X178349211Y-86016809D01*
X178349211Y-86016809D02*
X178301592Y-86207285D01*
X178301592Y-86207285D02*
X178206354Y-86302524D01*
X178206354Y-86302524D02*
X178111116Y-86350143D01*
X178111116Y-86350143D02*
X177920640Y-86350143D01*
X179301592Y-86350143D02*
X178730164Y-86350143D01*
X179015878Y-86350143D02*
X179015878Y-85350143D01*
X179015878Y-85350143D02*
X178920640Y-85493000D01*
X178920640Y-85493000D02*
X178825402Y-85588238D01*
X178825402Y-85588238D02*
X178730164Y-85635857D01*
X130609580Y-99142857D02*
X130657200Y-99190476D01*
X130657200Y-99190476D02*
X130704819Y-99333333D01*
X130704819Y-99333333D02*
X130704819Y-99428571D01*
X130704819Y-99428571D02*
X130657200Y-99571428D01*
X130657200Y-99571428D02*
X130561961Y-99666666D01*
X130561961Y-99666666D02*
X130466723Y-99714285D01*
X130466723Y-99714285D02*
X130276247Y-99761904D01*
X130276247Y-99761904D02*
X130133390Y-99761904D01*
X130133390Y-99761904D02*
X129942914Y-99714285D01*
X129942914Y-99714285D02*
X129847676Y-99666666D01*
X129847676Y-99666666D02*
X129752438Y-99571428D01*
X129752438Y-99571428D02*
X129704819Y-99428571D01*
X129704819Y-99428571D02*
X129704819Y-99333333D01*
X129704819Y-99333333D02*
X129752438Y-99190476D01*
X129752438Y-99190476D02*
X129800057Y-99142857D01*
X130038152Y-98857142D02*
X130038152Y-98476190D01*
X130704819Y-98714285D02*
X129847676Y-98714285D01*
X129847676Y-98714285D02*
X129752438Y-98666666D01*
X129752438Y-98666666D02*
X129704819Y-98571428D01*
X129704819Y-98571428D02*
X129704819Y-98476190D01*
X130704819Y-98142856D02*
X130038152Y-98142856D01*
X129704819Y-98142856D02*
X129752438Y-98190475D01*
X129752438Y-98190475D02*
X129800057Y-98142856D01*
X129800057Y-98142856D02*
X129752438Y-98095237D01*
X129752438Y-98095237D02*
X129704819Y-98142856D01*
X129704819Y-98142856D02*
X129800057Y-98142856D01*
X130038152Y-97666666D02*
X130704819Y-97666666D01*
X130133390Y-97666666D02*
X130085771Y-97619047D01*
X130085771Y-97619047D02*
X130038152Y-97523809D01*
X130038152Y-97523809D02*
X130038152Y-97380952D01*
X130038152Y-97380952D02*
X130085771Y-97285714D01*
X130085771Y-97285714D02*
X130181009Y-97238095D01*
X130181009Y-97238095D02*
X130704819Y-97238095D01*
X129800057Y-96809523D02*
X129752438Y-96761904D01*
X129752438Y-96761904D02*
X129704819Y-96666666D01*
X129704819Y-96666666D02*
X129704819Y-96428571D01*
X129704819Y-96428571D02*
X129752438Y-96333333D01*
X129752438Y-96333333D02*
X129800057Y-96285714D01*
X129800057Y-96285714D02*
X129895295Y-96238095D01*
X129895295Y-96238095D02*
X129990533Y-96238095D01*
X129990533Y-96238095D02*
X130133390Y-96285714D01*
X130133390Y-96285714D02*
X130704819Y-96857142D01*
X130704819Y-96857142D02*
X130704819Y-96238095D01*
X155747142Y-140222080D02*
X155699523Y-140269700D01*
X155699523Y-140269700D02*
X155556666Y-140317319D01*
X155556666Y-140317319D02*
X155461428Y-140317319D01*
X155461428Y-140317319D02*
X155318571Y-140269700D01*
X155318571Y-140269700D02*
X155223333Y-140174461D01*
X155223333Y-140174461D02*
X155175714Y-140079223D01*
X155175714Y-140079223D02*
X155128095Y-139888747D01*
X155128095Y-139888747D02*
X155128095Y-139745890D01*
X155128095Y-139745890D02*
X155175714Y-139555414D01*
X155175714Y-139555414D02*
X155223333Y-139460176D01*
X155223333Y-139460176D02*
X155318571Y-139364938D01*
X155318571Y-139364938D02*
X155461428Y-139317319D01*
X155461428Y-139317319D02*
X155556666Y-139317319D01*
X155556666Y-139317319D02*
X155699523Y-139364938D01*
X155699523Y-139364938D02*
X155747142Y-139412557D01*
X156032857Y-139650652D02*
X156413809Y-139650652D01*
X156175714Y-140317319D02*
X156175714Y-139460176D01*
X156175714Y-139460176D02*
X156223333Y-139364938D01*
X156223333Y-139364938D02*
X156318571Y-139317319D01*
X156318571Y-139317319D02*
X156413809Y-139317319D01*
X156890000Y-140317319D02*
X156794762Y-140269700D01*
X156794762Y-140269700D02*
X156747143Y-140222080D01*
X156747143Y-140222080D02*
X156699524Y-140126842D01*
X156699524Y-140126842D02*
X156699524Y-139841128D01*
X156699524Y-139841128D02*
X156747143Y-139745890D01*
X156747143Y-139745890D02*
X156794762Y-139698271D01*
X156794762Y-139698271D02*
X156890000Y-139650652D01*
X156890000Y-139650652D02*
X157032857Y-139650652D01*
X157032857Y-139650652D02*
X157128095Y-139698271D01*
X157128095Y-139698271D02*
X157175714Y-139745890D01*
X157175714Y-139745890D02*
X157223333Y-139841128D01*
X157223333Y-139841128D02*
X157223333Y-140126842D01*
X157223333Y-140126842D02*
X157175714Y-140222080D01*
X157175714Y-140222080D02*
X157128095Y-140269700D01*
X157128095Y-140269700D02*
X157032857Y-140317319D01*
X157032857Y-140317319D02*
X156890000Y-140317319D01*
X158080476Y-139650652D02*
X158080476Y-140317319D01*
X157651905Y-139650652D02*
X157651905Y-140174461D01*
X157651905Y-140174461D02*
X157699524Y-140269700D01*
X157699524Y-140269700D02*
X157794762Y-140317319D01*
X157794762Y-140317319D02*
X157937619Y-140317319D01*
X157937619Y-140317319D02*
X158032857Y-140269700D01*
X158032857Y-140269700D02*
X158080476Y-140222080D01*
X158413810Y-139650652D02*
X158794762Y-139650652D01*
X158556667Y-139317319D02*
X158556667Y-140174461D01*
X158556667Y-140174461D02*
X158604286Y-140269700D01*
X158604286Y-140269700D02*
X158699524Y-140317319D01*
X158699524Y-140317319D02*
X158794762Y-140317319D01*
X159651905Y-140317319D02*
X159080477Y-140317319D01*
X159366191Y-140317319D02*
X159366191Y-139317319D01*
X159366191Y-139317319D02*
X159270953Y-139460176D01*
X159270953Y-139460176D02*
X159175715Y-139555414D01*
X159175715Y-139555414D02*
X159080477Y-139603033D01*
X139334819Y-131020476D02*
X138858628Y-131353809D01*
X139334819Y-131591904D02*
X138334819Y-131591904D01*
X138334819Y-131591904D02*
X138334819Y-131210952D01*
X138334819Y-131210952D02*
X138382438Y-131115714D01*
X138382438Y-131115714D02*
X138430057Y-131068095D01*
X138430057Y-131068095D02*
X138525295Y-131020476D01*
X138525295Y-131020476D02*
X138668152Y-131020476D01*
X138668152Y-131020476D02*
X138763390Y-131068095D01*
X138763390Y-131068095D02*
X138811009Y-131115714D01*
X138811009Y-131115714D02*
X138858628Y-131210952D01*
X138858628Y-131210952D02*
X138858628Y-131591904D01*
X139287200Y-130639523D02*
X139334819Y-130544285D01*
X139334819Y-130544285D02*
X139334819Y-130353809D01*
X139334819Y-130353809D02*
X139287200Y-130258571D01*
X139287200Y-130258571D02*
X139191961Y-130210952D01*
X139191961Y-130210952D02*
X139144342Y-130210952D01*
X139144342Y-130210952D02*
X139049104Y-130258571D01*
X139049104Y-130258571D02*
X139001485Y-130353809D01*
X139001485Y-130353809D02*
X139001485Y-130496666D01*
X139001485Y-130496666D02*
X138953866Y-130591904D01*
X138953866Y-130591904D02*
X138858628Y-130639523D01*
X138858628Y-130639523D02*
X138811009Y-130639523D01*
X138811009Y-130639523D02*
X138715771Y-130591904D01*
X138715771Y-130591904D02*
X138668152Y-130496666D01*
X138668152Y-130496666D02*
X138668152Y-130353809D01*
X138668152Y-130353809D02*
X138715771Y-130258571D01*
X138953866Y-129782380D02*
X138953866Y-129020476D01*
X138430057Y-128591904D02*
X138382438Y-128544285D01*
X138382438Y-128544285D02*
X138334819Y-128449047D01*
X138334819Y-128449047D02*
X138334819Y-128210952D01*
X138334819Y-128210952D02*
X138382438Y-128115714D01*
X138382438Y-128115714D02*
X138430057Y-128068095D01*
X138430057Y-128068095D02*
X138525295Y-128020476D01*
X138525295Y-128020476D02*
X138620533Y-128020476D01*
X138620533Y-128020476D02*
X138763390Y-128068095D01*
X138763390Y-128068095D02*
X139334819Y-128639523D01*
X139334819Y-128639523D02*
X139334819Y-128020476D01*
X177301592Y-75485362D02*
X176968259Y-75009171D01*
X176730164Y-75485362D02*
X176730164Y-74485362D01*
X176730164Y-74485362D02*
X177111116Y-74485362D01*
X177111116Y-74485362D02*
X177206354Y-74532981D01*
X177206354Y-74532981D02*
X177253973Y-74580600D01*
X177253973Y-74580600D02*
X177301592Y-74675838D01*
X177301592Y-74675838D02*
X177301592Y-74818695D01*
X177301592Y-74818695D02*
X177253973Y-74913933D01*
X177253973Y-74913933D02*
X177206354Y-74961552D01*
X177206354Y-74961552D02*
X177111116Y-75009171D01*
X177111116Y-75009171D02*
X176730164Y-75009171D01*
X178396830Y-75580600D02*
X178301592Y-75532981D01*
X178301592Y-75532981D02*
X178206354Y-75437743D01*
X178206354Y-75437743D02*
X178063497Y-75294885D01*
X178063497Y-75294885D02*
X177968259Y-75247266D01*
X177968259Y-75247266D02*
X177873021Y-75247266D01*
X177920640Y-75485362D02*
X177825402Y-75437743D01*
X177825402Y-75437743D02*
X177730164Y-75342504D01*
X177730164Y-75342504D02*
X177682545Y-75152028D01*
X177682545Y-75152028D02*
X177682545Y-74818695D01*
X177682545Y-74818695D02*
X177730164Y-74628219D01*
X177730164Y-74628219D02*
X177825402Y-74532981D01*
X177825402Y-74532981D02*
X177920640Y-74485362D01*
X177920640Y-74485362D02*
X178111116Y-74485362D01*
X178111116Y-74485362D02*
X178206354Y-74532981D01*
X178206354Y-74532981D02*
X178301592Y-74628219D01*
X178301592Y-74628219D02*
X178349211Y-74818695D01*
X178349211Y-74818695D02*
X178349211Y-75152028D01*
X178349211Y-75152028D02*
X178301592Y-75342504D01*
X178301592Y-75342504D02*
X178206354Y-75437743D01*
X178206354Y-75437743D02*
X178111116Y-75485362D01*
X178111116Y-75485362D02*
X177920640Y-75485362D01*
X178730164Y-74580600D02*
X178777783Y-74532981D01*
X178777783Y-74532981D02*
X178873021Y-74485362D01*
X178873021Y-74485362D02*
X179111116Y-74485362D01*
X179111116Y-74485362D02*
X179206354Y-74532981D01*
X179206354Y-74532981D02*
X179253973Y-74580600D01*
X179253973Y-74580600D02*
X179301592Y-74675838D01*
X179301592Y-74675838D02*
X179301592Y-74771076D01*
X179301592Y-74771076D02*
X179253973Y-74913933D01*
X179253973Y-74913933D02*
X178682545Y-75485362D01*
X178682545Y-75485362D02*
X179301592Y-75485362D01*
X177282828Y-64489228D02*
X176949495Y-64013037D01*
X176711400Y-64489228D02*
X176711400Y-63489228D01*
X176711400Y-63489228D02*
X177092352Y-63489228D01*
X177092352Y-63489228D02*
X177187590Y-63536847D01*
X177187590Y-63536847D02*
X177235209Y-63584466D01*
X177235209Y-63584466D02*
X177282828Y-63679704D01*
X177282828Y-63679704D02*
X177282828Y-63822561D01*
X177282828Y-63822561D02*
X177235209Y-63917799D01*
X177235209Y-63917799D02*
X177187590Y-63965418D01*
X177187590Y-63965418D02*
X177092352Y-64013037D01*
X177092352Y-64013037D02*
X176711400Y-64013037D01*
X178378066Y-64584466D02*
X178282828Y-64536847D01*
X178282828Y-64536847D02*
X178187590Y-64441609D01*
X178187590Y-64441609D02*
X178044733Y-64298751D01*
X178044733Y-64298751D02*
X177949495Y-64251132D01*
X177949495Y-64251132D02*
X177854257Y-64251132D01*
X177901876Y-64489228D02*
X177806638Y-64441609D01*
X177806638Y-64441609D02*
X177711400Y-64346370D01*
X177711400Y-64346370D02*
X177663781Y-64155894D01*
X177663781Y-64155894D02*
X177663781Y-63822561D01*
X177663781Y-63822561D02*
X177711400Y-63632085D01*
X177711400Y-63632085D02*
X177806638Y-63536847D01*
X177806638Y-63536847D02*
X177901876Y-63489228D01*
X177901876Y-63489228D02*
X178092352Y-63489228D01*
X178092352Y-63489228D02*
X178187590Y-63536847D01*
X178187590Y-63536847D02*
X178282828Y-63632085D01*
X178282828Y-63632085D02*
X178330447Y-63822561D01*
X178330447Y-63822561D02*
X178330447Y-64155894D01*
X178330447Y-64155894D02*
X178282828Y-64346370D01*
X178282828Y-64346370D02*
X178187590Y-64441609D01*
X178187590Y-64441609D02*
X178092352Y-64489228D01*
X178092352Y-64489228D02*
X177901876Y-64489228D01*
X178663781Y-63489228D02*
X179282828Y-63489228D01*
X179282828Y-63489228D02*
X178949495Y-63870180D01*
X178949495Y-63870180D02*
X179092352Y-63870180D01*
X179092352Y-63870180D02*
X179187590Y-63917799D01*
X179187590Y-63917799D02*
X179235209Y-63965418D01*
X179235209Y-63965418D02*
X179282828Y-64060656D01*
X179282828Y-64060656D02*
X179282828Y-64298751D01*
X179282828Y-64298751D02*
X179235209Y-64393989D01*
X179235209Y-64393989D02*
X179187590Y-64441609D01*
X179187590Y-64441609D02*
X179092352Y-64489228D01*
X179092352Y-64489228D02*
X178806638Y-64489228D01*
X178806638Y-64489228D02*
X178711400Y-64441609D01*
X178711400Y-64441609D02*
X178663781Y-64393989D01*
X122308571Y-113464819D02*
X121975238Y-112988628D01*
X121737143Y-113464819D02*
X121737143Y-112464819D01*
X121737143Y-112464819D02*
X122118095Y-112464819D01*
X122118095Y-112464819D02*
X122213333Y-112512438D01*
X122213333Y-112512438D02*
X122260952Y-112560057D01*
X122260952Y-112560057D02*
X122308571Y-112655295D01*
X122308571Y-112655295D02*
X122308571Y-112798152D01*
X122308571Y-112798152D02*
X122260952Y-112893390D01*
X122260952Y-112893390D02*
X122213333Y-112941009D01*
X122213333Y-112941009D02*
X122118095Y-112988628D01*
X122118095Y-112988628D02*
X121737143Y-112988628D01*
X122594286Y-112798152D02*
X122975238Y-112798152D01*
X122737143Y-113464819D02*
X122737143Y-112607676D01*
X122737143Y-112607676D02*
X122784762Y-112512438D01*
X122784762Y-112512438D02*
X122880000Y-112464819D01*
X122880000Y-112464819D02*
X122975238Y-112464819D01*
X123308572Y-113083866D02*
X124070477Y-113083866D01*
X125070476Y-113464819D02*
X124499048Y-113464819D01*
X124784762Y-113464819D02*
X124784762Y-112464819D01*
X124784762Y-112464819D02*
X124689524Y-112607676D01*
X124689524Y-112607676D02*
X124594286Y-112702914D01*
X124594286Y-112702914D02*
X124499048Y-112750533D01*
X181533095Y-130737319D02*
X181533095Y-131546842D01*
X181533095Y-131546842D02*
X181580714Y-131642080D01*
X181580714Y-131642080D02*
X181628333Y-131689700D01*
X181628333Y-131689700D02*
X181723571Y-131737319D01*
X181723571Y-131737319D02*
X181914047Y-131737319D01*
X181914047Y-131737319D02*
X182009285Y-131689700D01*
X182009285Y-131689700D02*
X182056904Y-131642080D01*
X182056904Y-131642080D02*
X182104523Y-131546842D01*
X182104523Y-131546842D02*
X182104523Y-130737319D01*
X182485476Y-130737319D02*
X183152142Y-130737319D01*
X183152142Y-130737319D02*
X182723571Y-131737319D01*
X135389523Y-135834819D02*
X135056190Y-135358628D01*
X134818095Y-135834819D02*
X134818095Y-134834819D01*
X134818095Y-134834819D02*
X135199047Y-134834819D01*
X135199047Y-134834819D02*
X135294285Y-134882438D01*
X135294285Y-134882438D02*
X135341904Y-134930057D01*
X135341904Y-134930057D02*
X135389523Y-135025295D01*
X135389523Y-135025295D02*
X135389523Y-135168152D01*
X135389523Y-135168152D02*
X135341904Y-135263390D01*
X135341904Y-135263390D02*
X135294285Y-135311009D01*
X135294285Y-135311009D02*
X135199047Y-135358628D01*
X135199047Y-135358628D02*
X134818095Y-135358628D01*
X135770476Y-135787200D02*
X135865714Y-135834819D01*
X135865714Y-135834819D02*
X136056190Y-135834819D01*
X136056190Y-135834819D02*
X136151428Y-135787200D01*
X136151428Y-135787200D02*
X136199047Y-135691961D01*
X136199047Y-135691961D02*
X136199047Y-135644342D01*
X136199047Y-135644342D02*
X136151428Y-135549104D01*
X136151428Y-135549104D02*
X136056190Y-135501485D01*
X136056190Y-135501485D02*
X135913333Y-135501485D01*
X135913333Y-135501485D02*
X135818095Y-135453866D01*
X135818095Y-135453866D02*
X135770476Y-135358628D01*
X135770476Y-135358628D02*
X135770476Y-135311009D01*
X135770476Y-135311009D02*
X135818095Y-135215771D01*
X135818095Y-135215771D02*
X135913333Y-135168152D01*
X135913333Y-135168152D02*
X136056190Y-135168152D01*
X136056190Y-135168152D02*
X136151428Y-135215771D01*
X136627619Y-135453866D02*
X137389524Y-135453866D01*
X138389523Y-135834819D02*
X137818095Y-135834819D01*
X138103809Y-135834819D02*
X138103809Y-134834819D01*
X138103809Y-134834819D02*
X138008571Y-134977676D01*
X138008571Y-134977676D02*
X137913333Y-135072914D01*
X137913333Y-135072914D02*
X137818095Y-135120533D01*
X177904580Y-142412230D02*
X177952200Y-142459849D01*
X177952200Y-142459849D02*
X177999819Y-142602706D01*
X177999819Y-142602706D02*
X177999819Y-142697944D01*
X177999819Y-142697944D02*
X177952200Y-142840801D01*
X177952200Y-142840801D02*
X177856961Y-142936039D01*
X177856961Y-142936039D02*
X177761723Y-142983658D01*
X177761723Y-142983658D02*
X177571247Y-143031277D01*
X177571247Y-143031277D02*
X177428390Y-143031277D01*
X177428390Y-143031277D02*
X177237914Y-142983658D01*
X177237914Y-142983658D02*
X177142676Y-142936039D01*
X177142676Y-142936039D02*
X177047438Y-142840801D01*
X177047438Y-142840801D02*
X176999819Y-142697944D01*
X176999819Y-142697944D02*
X176999819Y-142602706D01*
X176999819Y-142602706D02*
X177047438Y-142459849D01*
X177047438Y-142459849D02*
X177095057Y-142412230D01*
X177333152Y-142126515D02*
X177333152Y-141745563D01*
X177999819Y-141983658D02*
X177142676Y-141983658D01*
X177142676Y-141983658D02*
X177047438Y-141936039D01*
X177047438Y-141936039D02*
X176999819Y-141840801D01*
X176999819Y-141840801D02*
X176999819Y-141745563D01*
X177095057Y-141459848D02*
X177047438Y-141412229D01*
X177047438Y-141412229D02*
X176999819Y-141316991D01*
X176999819Y-141316991D02*
X176999819Y-141078896D01*
X176999819Y-141078896D02*
X177047438Y-140983658D01*
X177047438Y-140983658D02*
X177095057Y-140936039D01*
X177095057Y-140936039D02*
X177190295Y-140888420D01*
X177190295Y-140888420D02*
X177285533Y-140888420D01*
X177285533Y-140888420D02*
X177428390Y-140936039D01*
X177428390Y-140936039D02*
X177999819Y-141507467D01*
X177999819Y-141507467D02*
X177999819Y-140888420D01*
X198609580Y-137452381D02*
X198657200Y-137500000D01*
X198657200Y-137500000D02*
X198704819Y-137642857D01*
X198704819Y-137642857D02*
X198704819Y-137738095D01*
X198704819Y-137738095D02*
X198657200Y-137880952D01*
X198657200Y-137880952D02*
X198561961Y-137976190D01*
X198561961Y-137976190D02*
X198466723Y-138023809D01*
X198466723Y-138023809D02*
X198276247Y-138071428D01*
X198276247Y-138071428D02*
X198133390Y-138071428D01*
X198133390Y-138071428D02*
X197942914Y-138023809D01*
X197942914Y-138023809D02*
X197847676Y-137976190D01*
X197847676Y-137976190D02*
X197752438Y-137880952D01*
X197752438Y-137880952D02*
X197704819Y-137738095D01*
X197704819Y-137738095D02*
X197704819Y-137642857D01*
X197704819Y-137642857D02*
X197752438Y-137500000D01*
X197752438Y-137500000D02*
X197800057Y-137452381D01*
X198038152Y-137166666D02*
X198038152Y-136785714D01*
X198704819Y-137023809D02*
X197847676Y-137023809D01*
X197847676Y-137023809D02*
X197752438Y-136976190D01*
X197752438Y-136976190D02*
X197704819Y-136880952D01*
X197704819Y-136880952D02*
X197704819Y-136785714D01*
X198704819Y-135928571D02*
X198704819Y-136499999D01*
X198704819Y-136214285D02*
X197704819Y-136214285D01*
X197704819Y-136214285D02*
X197847676Y-136309523D01*
X197847676Y-136309523D02*
X197942914Y-136404761D01*
X197942914Y-136404761D02*
X197990533Y-136499999D01*
X142057693Y-133874404D02*
X142867216Y-133874404D01*
X142867216Y-133874404D02*
X142962454Y-133826785D01*
X142962454Y-133826785D02*
X143010074Y-133779166D01*
X143010074Y-133779166D02*
X143057693Y-133683928D01*
X143057693Y-133683928D02*
X143057693Y-133493452D01*
X143057693Y-133493452D02*
X143010074Y-133398214D01*
X143010074Y-133398214D02*
X142962454Y-133350595D01*
X142962454Y-133350595D02*
X142867216Y-133302976D01*
X142867216Y-133302976D02*
X142057693Y-133302976D01*
X142057693Y-132350595D02*
X142057693Y-132826785D01*
X142057693Y-132826785D02*
X142533883Y-132874404D01*
X142533883Y-132874404D02*
X142486264Y-132826785D01*
X142486264Y-132826785D02*
X142438645Y-132731547D01*
X142438645Y-132731547D02*
X142438645Y-132493452D01*
X142438645Y-132493452D02*
X142486264Y-132398214D01*
X142486264Y-132398214D02*
X142533883Y-132350595D01*
X142533883Y-132350595D02*
X142629121Y-132302976D01*
X142629121Y-132302976D02*
X142867216Y-132302976D01*
X142867216Y-132302976D02*
X142962454Y-132350595D01*
X142962454Y-132350595D02*
X143010074Y-132398214D01*
X143010074Y-132398214D02*
X143057693Y-132493452D01*
X143057693Y-132493452D02*
X143057693Y-132731547D01*
X143057693Y-132731547D02*
X143010074Y-132826785D01*
X143010074Y-132826785D02*
X142962454Y-132874404D01*
X169609580Y-136297619D02*
X169657200Y-136345238D01*
X169657200Y-136345238D02*
X169704819Y-136488095D01*
X169704819Y-136488095D02*
X169704819Y-136583333D01*
X169704819Y-136583333D02*
X169657200Y-136726190D01*
X169657200Y-136726190D02*
X169561961Y-136821428D01*
X169561961Y-136821428D02*
X169466723Y-136869047D01*
X169466723Y-136869047D02*
X169276247Y-136916666D01*
X169276247Y-136916666D02*
X169133390Y-136916666D01*
X169133390Y-136916666D02*
X168942914Y-136869047D01*
X168942914Y-136869047D02*
X168847676Y-136821428D01*
X168847676Y-136821428D02*
X168752438Y-136726190D01*
X168752438Y-136726190D02*
X168704819Y-136583333D01*
X168704819Y-136583333D02*
X168704819Y-136488095D01*
X168704819Y-136488095D02*
X168752438Y-136345238D01*
X168752438Y-136345238D02*
X168800057Y-136297619D01*
X169038152Y-135964285D02*
X169704819Y-135726190D01*
X169704819Y-135726190D02*
X169038152Y-135488095D01*
X169704819Y-134583333D02*
X169704819Y-135154761D01*
X169704819Y-134869047D02*
X168704819Y-134869047D01*
X168704819Y-134869047D02*
X168847676Y-134964285D01*
X168847676Y-134964285D02*
X168942914Y-135059523D01*
X168942914Y-135059523D02*
X168990533Y-135154761D01*
X175913809Y-92124819D02*
X175580476Y-91648628D01*
X175342381Y-92124819D02*
X175342381Y-91124819D01*
X175342381Y-91124819D02*
X175723333Y-91124819D01*
X175723333Y-91124819D02*
X175818571Y-91172438D01*
X175818571Y-91172438D02*
X175866190Y-91220057D01*
X175866190Y-91220057D02*
X175913809Y-91315295D01*
X175913809Y-91315295D02*
X175913809Y-91458152D01*
X175913809Y-91458152D02*
X175866190Y-91553390D01*
X175866190Y-91553390D02*
X175818571Y-91601009D01*
X175818571Y-91601009D02*
X175723333Y-91648628D01*
X175723333Y-91648628D02*
X175342381Y-91648628D01*
X176199524Y-91458152D02*
X176580476Y-91458152D01*
X176342381Y-92124819D02*
X176342381Y-91267676D01*
X176342381Y-91267676D02*
X176390000Y-91172438D01*
X176390000Y-91172438D02*
X176485238Y-91124819D01*
X176485238Y-91124819D02*
X176580476Y-91124819D01*
X176913810Y-92124819D02*
X176913810Y-91458152D01*
X176913810Y-91553390D02*
X176961429Y-91505771D01*
X176961429Y-91505771D02*
X177056667Y-91458152D01*
X177056667Y-91458152D02*
X177199524Y-91458152D01*
X177199524Y-91458152D02*
X177294762Y-91505771D01*
X177294762Y-91505771D02*
X177342381Y-91601009D01*
X177342381Y-91601009D02*
X177342381Y-92124819D01*
X177342381Y-91601009D02*
X177390000Y-91505771D01*
X177390000Y-91505771D02*
X177485238Y-91458152D01*
X177485238Y-91458152D02*
X177628095Y-91458152D01*
X177628095Y-91458152D02*
X177723334Y-91505771D01*
X177723334Y-91505771D02*
X177770953Y-91601009D01*
X177770953Y-91601009D02*
X177770953Y-92124819D01*
X178390000Y-92124819D02*
X178294762Y-92077200D01*
X178294762Y-92077200D02*
X178247143Y-92029580D01*
X178247143Y-92029580D02*
X178199524Y-91934342D01*
X178199524Y-91934342D02*
X178199524Y-91648628D01*
X178199524Y-91648628D02*
X178247143Y-91553390D01*
X178247143Y-91553390D02*
X178294762Y-91505771D01*
X178294762Y-91505771D02*
X178390000Y-91458152D01*
X178390000Y-91458152D02*
X178532857Y-91458152D01*
X178532857Y-91458152D02*
X178628095Y-91505771D01*
X178628095Y-91505771D02*
X178675714Y-91553390D01*
X178675714Y-91553390D02*
X178723333Y-91648628D01*
X178723333Y-91648628D02*
X178723333Y-91934342D01*
X178723333Y-91934342D02*
X178675714Y-92029580D01*
X178675714Y-92029580D02*
X178628095Y-92077200D01*
X178628095Y-92077200D02*
X178532857Y-92124819D01*
X178532857Y-92124819D02*
X178390000Y-92124819D01*
X179104286Y-92077200D02*
X179199524Y-92124819D01*
X179199524Y-92124819D02*
X179390000Y-92124819D01*
X179390000Y-92124819D02*
X179485238Y-92077200D01*
X179485238Y-92077200D02*
X179532857Y-91981961D01*
X179532857Y-91981961D02*
X179532857Y-91934342D01*
X179532857Y-91934342D02*
X179485238Y-91839104D01*
X179485238Y-91839104D02*
X179390000Y-91791485D01*
X179390000Y-91791485D02*
X179247143Y-91791485D01*
X179247143Y-91791485D02*
X179151905Y-91743866D01*
X179151905Y-91743866D02*
X179104286Y-91648628D01*
X179104286Y-91648628D02*
X179104286Y-91601009D01*
X179104286Y-91601009D02*
X179151905Y-91505771D01*
X179151905Y-91505771D02*
X179247143Y-91458152D01*
X179247143Y-91458152D02*
X179390000Y-91458152D01*
X179390000Y-91458152D02*
X179485238Y-91505771D01*
X180485238Y-92124819D02*
X179913810Y-92124819D01*
X180199524Y-92124819D02*
X180199524Y-91124819D01*
X180199524Y-91124819D02*
X180104286Y-91267676D01*
X180104286Y-91267676D02*
X180009048Y-91362914D01*
X180009048Y-91362914D02*
X179913810Y-91410533D01*
X203016666Y-128854819D02*
X203016666Y-129569104D01*
X203016666Y-129569104D02*
X202969047Y-129711961D01*
X202969047Y-129711961D02*
X202873809Y-129807200D01*
X202873809Y-129807200D02*
X202730952Y-129854819D01*
X202730952Y-129854819D02*
X202635714Y-129854819D01*
X203397619Y-128854819D02*
X204016666Y-128854819D01*
X204016666Y-128854819D02*
X203683333Y-129235771D01*
X203683333Y-129235771D02*
X203826190Y-129235771D01*
X203826190Y-129235771D02*
X203921428Y-129283390D01*
X203921428Y-129283390D02*
X203969047Y-129331009D01*
X203969047Y-129331009D02*
X204016666Y-129426247D01*
X204016666Y-129426247D02*
X204016666Y-129664342D01*
X204016666Y-129664342D02*
X203969047Y-129759580D01*
X203969047Y-129759580D02*
X203921428Y-129807200D01*
X203921428Y-129807200D02*
X203826190Y-129854819D01*
X203826190Y-129854819D02*
X203540476Y-129854819D01*
X203540476Y-129854819D02*
X203445238Y-129807200D01*
X203445238Y-129807200D02*
X203397619Y-129759580D01*
X134614761Y-146114819D02*
X134281428Y-145638628D01*
X134043333Y-146114819D02*
X134043333Y-145114819D01*
X134043333Y-145114819D02*
X134424285Y-145114819D01*
X134424285Y-145114819D02*
X134519523Y-145162438D01*
X134519523Y-145162438D02*
X134567142Y-145210057D01*
X134567142Y-145210057D02*
X134614761Y-145305295D01*
X134614761Y-145305295D02*
X134614761Y-145448152D01*
X134614761Y-145448152D02*
X134567142Y-145543390D01*
X134567142Y-145543390D02*
X134519523Y-145591009D01*
X134519523Y-145591009D02*
X134424285Y-145638628D01*
X134424285Y-145638628D02*
X134043333Y-145638628D01*
X134900476Y-145114819D02*
X135233809Y-146114819D01*
X135233809Y-146114819D02*
X135567142Y-145114819D01*
X136424285Y-146114819D02*
X135852857Y-146114819D01*
X136138571Y-146114819D02*
X136138571Y-145114819D01*
X136138571Y-145114819D02*
X136043333Y-145257676D01*
X136043333Y-145257676D02*
X135948095Y-145352914D01*
X135948095Y-145352914D02*
X135852857Y-145400533D01*
X123277142Y-97334819D02*
X122943809Y-96858628D01*
X122705714Y-97334819D02*
X122705714Y-96334819D01*
X122705714Y-96334819D02*
X123086666Y-96334819D01*
X123086666Y-96334819D02*
X123181904Y-96382438D01*
X123181904Y-96382438D02*
X123229523Y-96430057D01*
X123229523Y-96430057D02*
X123277142Y-96525295D01*
X123277142Y-96525295D02*
X123277142Y-96668152D01*
X123277142Y-96668152D02*
X123229523Y-96763390D01*
X123229523Y-96763390D02*
X123181904Y-96811009D01*
X123181904Y-96811009D02*
X123086666Y-96858628D01*
X123086666Y-96858628D02*
X122705714Y-96858628D01*
X123562857Y-96668152D02*
X123943809Y-96668152D01*
X123705714Y-97334819D02*
X123705714Y-96477676D01*
X123705714Y-96477676D02*
X123753333Y-96382438D01*
X123753333Y-96382438D02*
X123848571Y-96334819D01*
X123848571Y-96334819D02*
X123943809Y-96334819D01*
X124277143Y-97334819D02*
X124277143Y-96668152D01*
X124277143Y-96334819D02*
X124229524Y-96382438D01*
X124229524Y-96382438D02*
X124277143Y-96430057D01*
X124277143Y-96430057D02*
X124324762Y-96382438D01*
X124324762Y-96382438D02*
X124277143Y-96334819D01*
X124277143Y-96334819D02*
X124277143Y-96430057D01*
X124753333Y-96668152D02*
X124753333Y-97334819D01*
X124753333Y-96763390D02*
X124800952Y-96715771D01*
X124800952Y-96715771D02*
X124896190Y-96668152D01*
X124896190Y-96668152D02*
X125039047Y-96668152D01*
X125039047Y-96668152D02*
X125134285Y-96715771D01*
X125134285Y-96715771D02*
X125181904Y-96811009D01*
X125181904Y-96811009D02*
X125181904Y-97334819D01*
X126181904Y-97334819D02*
X125610476Y-97334819D01*
X125896190Y-97334819D02*
X125896190Y-96334819D01*
X125896190Y-96334819D02*
X125800952Y-96477676D01*
X125800952Y-96477676D02*
X125705714Y-96572914D01*
X125705714Y-96572914D02*
X125610476Y-96620533D01*
X163709580Y-93026190D02*
X163757200Y-93073809D01*
X163757200Y-93073809D02*
X163804819Y-93216666D01*
X163804819Y-93216666D02*
X163804819Y-93311904D01*
X163804819Y-93311904D02*
X163757200Y-93454761D01*
X163757200Y-93454761D02*
X163661961Y-93549999D01*
X163661961Y-93549999D02*
X163566723Y-93597618D01*
X163566723Y-93597618D02*
X163376247Y-93645237D01*
X163376247Y-93645237D02*
X163233390Y-93645237D01*
X163233390Y-93645237D02*
X163042914Y-93597618D01*
X163042914Y-93597618D02*
X162947676Y-93549999D01*
X162947676Y-93549999D02*
X162852438Y-93454761D01*
X162852438Y-93454761D02*
X162804819Y-93311904D01*
X162804819Y-93311904D02*
X162804819Y-93216666D01*
X162804819Y-93216666D02*
X162852438Y-93073809D01*
X162852438Y-93073809D02*
X162900057Y-93026190D01*
X163138152Y-92740475D02*
X163138152Y-92359523D01*
X163804819Y-92597618D02*
X162947676Y-92597618D01*
X162947676Y-92597618D02*
X162852438Y-92549999D01*
X162852438Y-92549999D02*
X162804819Y-92454761D01*
X162804819Y-92454761D02*
X162804819Y-92359523D01*
X163804819Y-92026189D02*
X163138152Y-92026189D01*
X163233390Y-92026189D02*
X163185771Y-91978570D01*
X163185771Y-91978570D02*
X163138152Y-91883332D01*
X163138152Y-91883332D02*
X163138152Y-91740475D01*
X163138152Y-91740475D02*
X163185771Y-91645237D01*
X163185771Y-91645237D02*
X163281009Y-91597618D01*
X163281009Y-91597618D02*
X163804819Y-91597618D01*
X163281009Y-91597618D02*
X163185771Y-91549999D01*
X163185771Y-91549999D02*
X163138152Y-91454761D01*
X163138152Y-91454761D02*
X163138152Y-91311904D01*
X163138152Y-91311904D02*
X163185771Y-91216665D01*
X163185771Y-91216665D02*
X163281009Y-91169046D01*
X163281009Y-91169046D02*
X163804819Y-91169046D01*
X163804819Y-90549999D02*
X163757200Y-90645237D01*
X163757200Y-90645237D02*
X163709580Y-90692856D01*
X163709580Y-90692856D02*
X163614342Y-90740475D01*
X163614342Y-90740475D02*
X163328628Y-90740475D01*
X163328628Y-90740475D02*
X163233390Y-90692856D01*
X163233390Y-90692856D02*
X163185771Y-90645237D01*
X163185771Y-90645237D02*
X163138152Y-90549999D01*
X163138152Y-90549999D02*
X163138152Y-90407142D01*
X163138152Y-90407142D02*
X163185771Y-90311904D01*
X163185771Y-90311904D02*
X163233390Y-90264285D01*
X163233390Y-90264285D02*
X163328628Y-90216666D01*
X163328628Y-90216666D02*
X163614342Y-90216666D01*
X163614342Y-90216666D02*
X163709580Y-90264285D01*
X163709580Y-90264285D02*
X163757200Y-90311904D01*
X163757200Y-90311904D02*
X163804819Y-90407142D01*
X163804819Y-90407142D02*
X163804819Y-90549999D01*
X163757200Y-89835713D02*
X163804819Y-89740475D01*
X163804819Y-89740475D02*
X163804819Y-89549999D01*
X163804819Y-89549999D02*
X163757200Y-89454761D01*
X163757200Y-89454761D02*
X163661961Y-89407142D01*
X163661961Y-89407142D02*
X163614342Y-89407142D01*
X163614342Y-89407142D02*
X163519104Y-89454761D01*
X163519104Y-89454761D02*
X163471485Y-89549999D01*
X163471485Y-89549999D02*
X163471485Y-89692856D01*
X163471485Y-89692856D02*
X163423866Y-89788094D01*
X163423866Y-89788094D02*
X163328628Y-89835713D01*
X163328628Y-89835713D02*
X163281009Y-89835713D01*
X163281009Y-89835713D02*
X163185771Y-89788094D01*
X163185771Y-89788094D02*
X163138152Y-89692856D01*
X163138152Y-89692856D02*
X163138152Y-89549999D01*
X163138152Y-89549999D02*
X163185771Y-89454761D01*
X163804819Y-88454761D02*
X163804819Y-89026189D01*
X163804819Y-88740475D02*
X162804819Y-88740475D01*
X162804819Y-88740475D02*
X162947676Y-88835713D01*
X162947676Y-88835713D02*
X163042914Y-88930951D01*
X163042914Y-88930951D02*
X163090533Y-89026189D01*
X211426660Y-126584104D02*
X211902850Y-126584104D01*
X211331422Y-126869819D02*
X211664755Y-125869819D01*
X211664755Y-125869819D02*
X211998088Y-126869819D01*
X212855231Y-126869819D02*
X212283803Y-126869819D01*
X212569517Y-126869819D02*
X212569517Y-125869819D01*
X212569517Y-125869819D02*
X212474279Y-126012676D01*
X212474279Y-126012676D02*
X212379041Y-126107914D01*
X212379041Y-126107914D02*
X212283803Y-126155533D01*
X211584819Y-83603809D02*
X211108628Y-83937142D01*
X211584819Y-84175237D02*
X210584819Y-84175237D01*
X210584819Y-84175237D02*
X210584819Y-83794285D01*
X210584819Y-83794285D02*
X210632438Y-83699047D01*
X210632438Y-83699047D02*
X210680057Y-83651428D01*
X210680057Y-83651428D02*
X210775295Y-83603809D01*
X210775295Y-83603809D02*
X210918152Y-83603809D01*
X210918152Y-83603809D02*
X211013390Y-83651428D01*
X211013390Y-83651428D02*
X211061009Y-83699047D01*
X211061009Y-83699047D02*
X211108628Y-83794285D01*
X211108628Y-83794285D02*
X211108628Y-84175237D01*
X211584819Y-82699047D02*
X211584819Y-83175237D01*
X211584819Y-83175237D02*
X210584819Y-83175237D01*
X211061009Y-82365713D02*
X211061009Y-82032380D01*
X211584819Y-81889523D02*
X211584819Y-82365713D01*
X211584819Y-82365713D02*
X210584819Y-82365713D01*
X210584819Y-82365713D02*
X210584819Y-81889523D01*
X211584819Y-81460951D02*
X210584819Y-81460951D01*
X210584819Y-81460951D02*
X210584819Y-81222856D01*
X210584819Y-81222856D02*
X210632438Y-81079999D01*
X210632438Y-81079999D02*
X210727676Y-80984761D01*
X210727676Y-80984761D02*
X210822914Y-80937142D01*
X210822914Y-80937142D02*
X211013390Y-80889523D01*
X211013390Y-80889523D02*
X211156247Y-80889523D01*
X211156247Y-80889523D02*
X211346723Y-80937142D01*
X211346723Y-80937142D02*
X211441961Y-80984761D01*
X211441961Y-80984761D02*
X211537200Y-81079999D01*
X211537200Y-81079999D02*
X211584819Y-81222856D01*
X211584819Y-81222856D02*
X211584819Y-81460951D01*
X211584819Y-79937142D02*
X211584819Y-80508570D01*
X211584819Y-80222856D02*
X210584819Y-80222856D01*
X210584819Y-80222856D02*
X210727676Y-80318094D01*
X210727676Y-80318094D02*
X210822914Y-80413332D01*
X210822914Y-80413332D02*
X210870533Y-80508570D01*
X173904761Y-53640057D02*
X173809523Y-53592438D01*
X173809523Y-53592438D02*
X173714285Y-53497200D01*
X173714285Y-53497200D02*
X173571428Y-53354342D01*
X173571428Y-53354342D02*
X173476190Y-53306723D01*
X173476190Y-53306723D02*
X173380952Y-53306723D01*
X173428571Y-53544819D02*
X173333333Y-53497200D01*
X173333333Y-53497200D02*
X173238095Y-53401961D01*
X173238095Y-53401961D02*
X173190476Y-53211485D01*
X173190476Y-53211485D02*
X173190476Y-52878152D01*
X173190476Y-52878152D02*
X173238095Y-52687676D01*
X173238095Y-52687676D02*
X173333333Y-52592438D01*
X173333333Y-52592438D02*
X173428571Y-52544819D01*
X173428571Y-52544819D02*
X173619047Y-52544819D01*
X173619047Y-52544819D02*
X173714285Y-52592438D01*
X173714285Y-52592438D02*
X173809523Y-52687676D01*
X173809523Y-52687676D02*
X173857142Y-52878152D01*
X173857142Y-52878152D02*
X173857142Y-53211485D01*
X173857142Y-53211485D02*
X173809523Y-53401961D01*
X173809523Y-53401961D02*
X173714285Y-53497200D01*
X173714285Y-53497200D02*
X173619047Y-53544819D01*
X173619047Y-53544819D02*
X173428571Y-53544819D01*
X174190476Y-52544819D02*
X174809523Y-52544819D01*
X174809523Y-52544819D02*
X174476190Y-52925771D01*
X174476190Y-52925771D02*
X174619047Y-52925771D01*
X174619047Y-52925771D02*
X174714285Y-52973390D01*
X174714285Y-52973390D02*
X174761904Y-53021009D01*
X174761904Y-53021009D02*
X174809523Y-53116247D01*
X174809523Y-53116247D02*
X174809523Y-53354342D01*
X174809523Y-53354342D02*
X174761904Y-53449580D01*
X174761904Y-53449580D02*
X174714285Y-53497200D01*
X174714285Y-53497200D02*
X174619047Y-53544819D01*
X174619047Y-53544819D02*
X174333333Y-53544819D01*
X174333333Y-53544819D02*
X174238095Y-53497200D01*
X174238095Y-53497200D02*
X174190476Y-53449580D01*
X207434819Y-72808333D02*
X208149104Y-72808333D01*
X208149104Y-72808333D02*
X208291961Y-72855952D01*
X208291961Y-72855952D02*
X208387200Y-72951190D01*
X208387200Y-72951190D02*
X208434819Y-73094047D01*
X208434819Y-73094047D02*
X208434819Y-73189285D01*
X207530057Y-72379761D02*
X207482438Y-72332142D01*
X207482438Y-72332142D02*
X207434819Y-72236904D01*
X207434819Y-72236904D02*
X207434819Y-71998809D01*
X207434819Y-71998809D02*
X207482438Y-71903571D01*
X207482438Y-71903571D02*
X207530057Y-71855952D01*
X207530057Y-71855952D02*
X207625295Y-71808333D01*
X207625295Y-71808333D02*
X207720533Y-71808333D01*
X207720533Y-71808333D02*
X207863390Y-71855952D01*
X207863390Y-71855952D02*
X208434819Y-72427380D01*
X208434819Y-72427380D02*
X208434819Y-71808333D01*
X140488571Y-124824819D02*
X140155238Y-124348628D01*
X139917143Y-124824819D02*
X139917143Y-123824819D01*
X139917143Y-123824819D02*
X140298095Y-123824819D01*
X140298095Y-123824819D02*
X140393333Y-123872438D01*
X140393333Y-123872438D02*
X140440952Y-123920057D01*
X140440952Y-123920057D02*
X140488571Y-124015295D01*
X140488571Y-124015295D02*
X140488571Y-124158152D01*
X140488571Y-124158152D02*
X140440952Y-124253390D01*
X140440952Y-124253390D02*
X140393333Y-124301009D01*
X140393333Y-124301009D02*
X140298095Y-124348628D01*
X140298095Y-124348628D02*
X139917143Y-124348628D01*
X140774286Y-124158152D02*
X141155238Y-124158152D01*
X140917143Y-124824819D02*
X140917143Y-123967676D01*
X140917143Y-123967676D02*
X140964762Y-123872438D01*
X140964762Y-123872438D02*
X141060000Y-123824819D01*
X141060000Y-123824819D02*
X141155238Y-123824819D01*
X141488572Y-124443866D02*
X142250477Y-124443866D01*
X141869524Y-124824819D02*
X141869524Y-124062914D01*
X143250476Y-124824819D02*
X142679048Y-124824819D01*
X142964762Y-124824819D02*
X142964762Y-123824819D01*
X142964762Y-123824819D02*
X142869524Y-123967676D01*
X142869524Y-123967676D02*
X142774286Y-124062914D01*
X142774286Y-124062914D02*
X142679048Y-124110533D01*
X173904761Y-64640057D02*
X173809523Y-64592438D01*
X173809523Y-64592438D02*
X173714285Y-64497200D01*
X173714285Y-64497200D02*
X173571428Y-64354342D01*
X173571428Y-64354342D02*
X173476190Y-64306723D01*
X173476190Y-64306723D02*
X173380952Y-64306723D01*
X173428571Y-64544819D02*
X173333333Y-64497200D01*
X173333333Y-64497200D02*
X173238095Y-64401961D01*
X173238095Y-64401961D02*
X173190476Y-64211485D01*
X173190476Y-64211485D02*
X173190476Y-63878152D01*
X173190476Y-63878152D02*
X173238095Y-63687676D01*
X173238095Y-63687676D02*
X173333333Y-63592438D01*
X173333333Y-63592438D02*
X173428571Y-63544819D01*
X173428571Y-63544819D02*
X173619047Y-63544819D01*
X173619047Y-63544819D02*
X173714285Y-63592438D01*
X173714285Y-63592438D02*
X173809523Y-63687676D01*
X173809523Y-63687676D02*
X173857142Y-63878152D01*
X173857142Y-63878152D02*
X173857142Y-64211485D01*
X173857142Y-64211485D02*
X173809523Y-64401961D01*
X173809523Y-64401961D02*
X173714285Y-64497200D01*
X173714285Y-64497200D02*
X173619047Y-64544819D01*
X173619047Y-64544819D02*
X173428571Y-64544819D01*
X174809523Y-64544819D02*
X174238095Y-64544819D01*
X174523809Y-64544819D02*
X174523809Y-63544819D01*
X174523809Y-63544819D02*
X174428571Y-63687676D01*
X174428571Y-63687676D02*
X174333333Y-63782914D01*
X174333333Y-63782914D02*
X174238095Y-63830533D01*
X161714819Y-130565357D02*
X161238628Y-130898690D01*
X161714819Y-131136785D02*
X160714819Y-131136785D01*
X160714819Y-131136785D02*
X160714819Y-130755833D01*
X160714819Y-130755833D02*
X160762438Y-130660595D01*
X160762438Y-130660595D02*
X160810057Y-130612976D01*
X160810057Y-130612976D02*
X160905295Y-130565357D01*
X160905295Y-130565357D02*
X161048152Y-130565357D01*
X161048152Y-130565357D02*
X161143390Y-130612976D01*
X161143390Y-130612976D02*
X161191009Y-130660595D01*
X161191009Y-130660595D02*
X161238628Y-130755833D01*
X161238628Y-130755833D02*
X161238628Y-131136785D01*
X161048152Y-130279642D02*
X161048152Y-129898690D01*
X161714819Y-130136785D02*
X160857676Y-130136785D01*
X160857676Y-130136785D02*
X160762438Y-130089166D01*
X160762438Y-130089166D02*
X160714819Y-129993928D01*
X160714819Y-129993928D02*
X160714819Y-129898690D01*
X161714819Y-129422499D02*
X161667200Y-129517737D01*
X161667200Y-129517737D02*
X161619580Y-129565356D01*
X161619580Y-129565356D02*
X161524342Y-129612975D01*
X161524342Y-129612975D02*
X161238628Y-129612975D01*
X161238628Y-129612975D02*
X161143390Y-129565356D01*
X161143390Y-129565356D02*
X161095771Y-129517737D01*
X161095771Y-129517737D02*
X161048152Y-129422499D01*
X161048152Y-129422499D02*
X161048152Y-129279642D01*
X161048152Y-129279642D02*
X161095771Y-129184404D01*
X161095771Y-129184404D02*
X161143390Y-129136785D01*
X161143390Y-129136785D02*
X161238628Y-129089166D01*
X161238628Y-129089166D02*
X161524342Y-129089166D01*
X161524342Y-129089166D02*
X161619580Y-129136785D01*
X161619580Y-129136785D02*
X161667200Y-129184404D01*
X161667200Y-129184404D02*
X161714819Y-129279642D01*
X161714819Y-129279642D02*
X161714819Y-129422499D01*
X161048152Y-128232023D02*
X161714819Y-128232023D01*
X161048152Y-128660594D02*
X161571961Y-128660594D01*
X161571961Y-128660594D02*
X161667200Y-128612975D01*
X161667200Y-128612975D02*
X161714819Y-128517737D01*
X161714819Y-128517737D02*
X161714819Y-128374880D01*
X161714819Y-128374880D02*
X161667200Y-128279642D01*
X161667200Y-128279642D02*
X161619580Y-128232023D01*
X161048152Y-127898689D02*
X161048152Y-127517737D01*
X160714819Y-127755832D02*
X161571961Y-127755832D01*
X161571961Y-127755832D02*
X161667200Y-127708213D01*
X161667200Y-127708213D02*
X161714819Y-127612975D01*
X161714819Y-127612975D02*
X161714819Y-127517737D01*
X161714819Y-126660594D02*
X161714819Y-127232022D01*
X161714819Y-126946308D02*
X160714819Y-126946308D01*
X160714819Y-126946308D02*
X160857676Y-127041546D01*
X160857676Y-127041546D02*
X160952914Y-127136784D01*
X160952914Y-127136784D02*
X161000533Y-127232022D01*
X106416666Y-129067319D02*
X106416666Y-129781604D01*
X106416666Y-129781604D02*
X106369047Y-129924461D01*
X106369047Y-129924461D02*
X106273809Y-130019700D01*
X106273809Y-130019700D02*
X106130952Y-130067319D01*
X106130952Y-130067319D02*
X106035714Y-130067319D01*
X107416666Y-130067319D02*
X106845238Y-130067319D01*
X107130952Y-130067319D02*
X107130952Y-129067319D01*
X107130952Y-129067319D02*
X107035714Y-129210176D01*
X107035714Y-129210176D02*
X106940476Y-129305414D01*
X106940476Y-129305414D02*
X106845238Y-129353033D01*
X127154819Y-76388094D02*
X126154819Y-76388094D01*
X127154819Y-75816666D02*
X126583390Y-76245237D01*
X126154819Y-75816666D02*
X126726247Y-76388094D01*
X126154819Y-75483332D02*
X126154819Y-74864285D01*
X126154819Y-74864285D02*
X126535771Y-75197618D01*
X126535771Y-75197618D02*
X126535771Y-75054761D01*
X126535771Y-75054761D02*
X126583390Y-74959523D01*
X126583390Y-74959523D02*
X126631009Y-74911904D01*
X126631009Y-74911904D02*
X126726247Y-74864285D01*
X126726247Y-74864285D02*
X126964342Y-74864285D01*
X126964342Y-74864285D02*
X127059580Y-74911904D01*
X127059580Y-74911904D02*
X127107200Y-74959523D01*
X127107200Y-74959523D02*
X127154819Y-75054761D01*
X127154819Y-75054761D02*
X127154819Y-75340475D01*
X127154819Y-75340475D02*
X127107200Y-75435713D01*
X127107200Y-75435713D02*
X127059580Y-75483332D01*
X130609580Y-104142857D02*
X130657200Y-104190476D01*
X130657200Y-104190476D02*
X130704819Y-104333333D01*
X130704819Y-104333333D02*
X130704819Y-104428571D01*
X130704819Y-104428571D02*
X130657200Y-104571428D01*
X130657200Y-104571428D02*
X130561961Y-104666666D01*
X130561961Y-104666666D02*
X130466723Y-104714285D01*
X130466723Y-104714285D02*
X130276247Y-104761904D01*
X130276247Y-104761904D02*
X130133390Y-104761904D01*
X130133390Y-104761904D02*
X129942914Y-104714285D01*
X129942914Y-104714285D02*
X129847676Y-104666666D01*
X129847676Y-104666666D02*
X129752438Y-104571428D01*
X129752438Y-104571428D02*
X129704819Y-104428571D01*
X129704819Y-104428571D02*
X129704819Y-104333333D01*
X129704819Y-104333333D02*
X129752438Y-104190476D01*
X129752438Y-104190476D02*
X129800057Y-104142857D01*
X130038152Y-103857142D02*
X130038152Y-103476190D01*
X130704819Y-103714285D02*
X129847676Y-103714285D01*
X129847676Y-103714285D02*
X129752438Y-103666666D01*
X129752438Y-103666666D02*
X129704819Y-103571428D01*
X129704819Y-103571428D02*
X129704819Y-103476190D01*
X130704819Y-103142856D02*
X130038152Y-103142856D01*
X129704819Y-103142856D02*
X129752438Y-103190475D01*
X129752438Y-103190475D02*
X129800057Y-103142856D01*
X129800057Y-103142856D02*
X129752438Y-103095237D01*
X129752438Y-103095237D02*
X129704819Y-103142856D01*
X129704819Y-103142856D02*
X129800057Y-103142856D01*
X130038152Y-102666666D02*
X130704819Y-102666666D01*
X130133390Y-102666666D02*
X130085771Y-102619047D01*
X130085771Y-102619047D02*
X130038152Y-102523809D01*
X130038152Y-102523809D02*
X130038152Y-102380952D01*
X130038152Y-102380952D02*
X130085771Y-102285714D01*
X130085771Y-102285714D02*
X130181009Y-102238095D01*
X130181009Y-102238095D02*
X130704819Y-102238095D01*
X130704819Y-101238095D02*
X130704819Y-101809523D01*
X130704819Y-101523809D02*
X129704819Y-101523809D01*
X129704819Y-101523809D02*
X129847676Y-101619047D01*
X129847676Y-101619047D02*
X129942914Y-101714285D01*
X129942914Y-101714285D02*
X129990533Y-101809523D01*
X123357142Y-102084819D02*
X123023809Y-101608628D01*
X122785714Y-102084819D02*
X122785714Y-101084819D01*
X122785714Y-101084819D02*
X123166666Y-101084819D01*
X123166666Y-101084819D02*
X123261904Y-101132438D01*
X123261904Y-101132438D02*
X123309523Y-101180057D01*
X123309523Y-101180057D02*
X123357142Y-101275295D01*
X123357142Y-101275295D02*
X123357142Y-101418152D01*
X123357142Y-101418152D02*
X123309523Y-101513390D01*
X123309523Y-101513390D02*
X123261904Y-101561009D01*
X123261904Y-101561009D02*
X123166666Y-101608628D01*
X123166666Y-101608628D02*
X122785714Y-101608628D01*
X123642857Y-101418152D02*
X124023809Y-101418152D01*
X123785714Y-102084819D02*
X123785714Y-101227676D01*
X123785714Y-101227676D02*
X123833333Y-101132438D01*
X123833333Y-101132438D02*
X123928571Y-101084819D01*
X123928571Y-101084819D02*
X124023809Y-101084819D01*
X124357143Y-102084819D02*
X124357143Y-101418152D01*
X124357143Y-101084819D02*
X124309524Y-101132438D01*
X124309524Y-101132438D02*
X124357143Y-101180057D01*
X124357143Y-101180057D02*
X124404762Y-101132438D01*
X124404762Y-101132438D02*
X124357143Y-101084819D01*
X124357143Y-101084819D02*
X124357143Y-101180057D01*
X124833333Y-101418152D02*
X124833333Y-102084819D01*
X124833333Y-101513390D02*
X124880952Y-101465771D01*
X124880952Y-101465771D02*
X124976190Y-101418152D01*
X124976190Y-101418152D02*
X125119047Y-101418152D01*
X125119047Y-101418152D02*
X125214285Y-101465771D01*
X125214285Y-101465771D02*
X125261904Y-101561009D01*
X125261904Y-101561009D02*
X125261904Y-102084819D01*
X125690476Y-101180057D02*
X125738095Y-101132438D01*
X125738095Y-101132438D02*
X125833333Y-101084819D01*
X125833333Y-101084819D02*
X126071428Y-101084819D01*
X126071428Y-101084819D02*
X126166666Y-101132438D01*
X126166666Y-101132438D02*
X126214285Y-101180057D01*
X126214285Y-101180057D02*
X126261904Y-101275295D01*
X126261904Y-101275295D02*
X126261904Y-101370533D01*
X126261904Y-101370533D02*
X126214285Y-101513390D01*
X126214285Y-101513390D02*
X125642857Y-102084819D01*
X125642857Y-102084819D02*
X126261904Y-102084819D01*
D11*
%TO.C,Furo1*%
X126000000Y-110530000D02*
X126000000Y-107920000D01*
X127370000Y-111900000D02*
G75*
G02*
X124630000Y-111900000I-1370000J0D01*
G01*
X124630000Y-111900000D02*
G75*
G02*
X127370000Y-111900000I1370000J0D01*
G01*
%TO.C,Rp1*%
X129870000Y-132650000D02*
X127130000Y-132650000D01*
X127130000Y-139190000D01*
X129870000Y-139190000D01*
X129870000Y-132650000D01*
X128500000Y-139960000D02*
X128500000Y-139190000D01*
X128500000Y-131880000D02*
X128500000Y-132650000D01*
%TO.C,Rs-4*%
X126370000Y-136650000D02*
X123630000Y-136650000D01*
X123630000Y-143190000D01*
X126370000Y-143190000D01*
X126370000Y-136650000D01*
X125000000Y-143960000D02*
X125000000Y-143190000D01*
X125000000Y-135880000D02*
X125000000Y-136650000D01*
%TO.C,K2*%
X145300000Y-65250000D02*
X145300000Y-85050000D01*
X143550000Y-80100000D02*
X143550000Y-77600000D01*
X141700000Y-69500000D02*
X139250000Y-69500000D01*
X141150000Y-74200000D02*
X141150000Y-81000000D01*
X139350000Y-79600000D02*
X135750000Y-79600000D01*
X139350000Y-77600000D02*
X143550000Y-77600000D01*
X139350000Y-75600000D02*
X139350000Y-79600000D01*
X139350000Y-75600000D02*
X135750000Y-79600000D01*
X138700000Y-85050000D02*
X145300000Y-85050000D01*
X137550000Y-81000000D02*
X141150000Y-81000000D01*
X137550000Y-81000000D02*
X137550000Y-81800000D01*
X137550000Y-74200000D02*
X141150000Y-74200000D01*
X137550000Y-74200000D02*
X137550000Y-72700000D01*
X137550000Y-72700000D02*
X135050000Y-68100000D01*
X135750000Y-79600000D02*
X135750000Y-75600000D01*
X135750000Y-75600000D02*
X139350000Y-75600000D01*
X133300000Y-69500000D02*
X135800000Y-69500000D01*
X131550000Y-77600000D02*
X135750000Y-77600000D01*
X131550000Y-77600000D02*
X131550000Y-80100000D01*
X129700000Y-85050000D02*
X136300000Y-85050000D01*
X129700000Y-85050000D02*
X129700000Y-65250000D01*
X129700000Y-65250000D02*
X145300000Y-65250000D01*
%TO.C,CF+1*%
X138120000Y-117000000D02*
G75*
G02*
X129880000Y-117000000I-4120000J0D01*
G01*
X129880000Y-117000000D02*
G75*
G02*
X138120000Y-117000000I4120000J0D01*
G01*
X138080000Y-117040000D02*
X129920000Y-117040000D01*
X138080000Y-117000000D02*
X129920000Y-117000000D01*
X138079000Y-117080000D02*
X129921000Y-117080000D01*
X138078000Y-117120000D02*
X129922000Y-117120000D01*
X138077000Y-117160000D02*
X129923000Y-117160000D01*
X138075000Y-117200000D02*
X129925000Y-117200000D01*
X138073000Y-117240000D02*
X129927000Y-117240000D01*
X138070000Y-117280000D02*
X129930000Y-117280000D01*
X138068000Y-117320000D02*
X129932000Y-117320000D01*
X138064000Y-117360000D02*
X129936000Y-117360000D01*
X138061000Y-117400000D02*
X129939000Y-117400000D01*
X138056000Y-117440000D02*
X129944000Y-117440000D01*
X138052000Y-117480000D02*
X129948000Y-117480000D01*
X138047000Y-117520000D02*
X129953000Y-117520000D01*
X138042000Y-117560000D02*
X129958000Y-117560000D01*
X138036000Y-117600000D02*
X129964000Y-117600000D01*
X138030000Y-117640000D02*
X129970000Y-117640000D01*
X138023000Y-117680000D02*
X129977000Y-117680000D01*
X138017000Y-117720000D02*
X135040000Y-117720000D01*
X138009000Y-117760000D02*
X135040000Y-117760000D01*
X138002000Y-117800000D02*
X135040000Y-117800000D01*
X137993000Y-117840000D02*
X135040000Y-117840000D01*
X137985000Y-117880000D02*
X135040000Y-117880000D01*
X137976000Y-117920000D02*
X135040000Y-117920000D01*
X137967000Y-117960000D02*
X135040000Y-117960000D01*
X137957000Y-118000000D02*
X135040000Y-118000000D01*
X137947000Y-118040000D02*
X135040000Y-118040000D01*
X137936000Y-118080000D02*
X135040000Y-118080000D01*
X137925000Y-118120000D02*
X135040000Y-118120000D01*
X137913000Y-118160000D02*
X135040000Y-118160000D01*
X137901000Y-118200000D02*
X135040000Y-118200000D01*
X137889000Y-118240000D02*
X135040000Y-118240000D01*
X137876000Y-118280000D02*
X135040000Y-118280000D01*
X137863000Y-118320000D02*
X135040000Y-118320000D01*
X137849000Y-118360000D02*
X135040000Y-118360000D01*
X137835000Y-118400000D02*
X135040000Y-118400000D01*
X137820000Y-118440000D02*
X135040000Y-118440000D01*
X137805000Y-118480000D02*
X135040000Y-118480000D01*
X137789000Y-118520000D02*
X135040000Y-118520000D01*
X137773000Y-118560000D02*
X135040000Y-118560000D01*
X137757000Y-118600000D02*
X135040000Y-118600000D01*
X137740000Y-118640000D02*
X135040000Y-118640000D01*
X137722000Y-118680000D02*
X135040000Y-118680000D01*
X137704000Y-118720000D02*
X135040000Y-118720000D01*
X137685000Y-118760000D02*
X135040000Y-118760000D01*
X137666000Y-118800000D02*
X135040000Y-118800000D01*
X137646000Y-118840000D02*
X135040000Y-118840000D01*
X137626000Y-118880000D02*
X135040000Y-118880000D01*
X137605000Y-118920000D02*
X135040000Y-118920000D01*
X137584000Y-118960000D02*
X135040000Y-118960000D01*
X137562000Y-119000000D02*
X135040000Y-119000000D01*
X137539000Y-119040000D02*
X135040000Y-119040000D01*
X137516000Y-119080000D02*
X135040000Y-119080000D01*
X137493000Y-119120000D02*
X135040000Y-119120000D01*
X137468000Y-119160000D02*
X135040000Y-119160000D01*
X137443000Y-119200000D02*
X135040000Y-119200000D01*
X137418000Y-119240000D02*
X135040000Y-119240000D01*
X137392000Y-119280000D02*
X135040000Y-119280000D01*
X137365000Y-119320000D02*
X135040000Y-119320000D01*
X137337000Y-119360000D02*
X135040000Y-119360000D01*
X137309000Y-119400000D02*
X135040000Y-119400000D01*
X137280000Y-119440000D02*
X135040000Y-119440000D01*
X137250000Y-119480000D02*
X135040000Y-119480000D01*
X137219000Y-119520000D02*
X135040000Y-119520000D01*
X137188000Y-119560000D02*
X135040000Y-119560000D01*
X137156000Y-119600000D02*
X135040000Y-119600000D01*
X137123000Y-119640000D02*
X135040000Y-119640000D01*
X137089000Y-119680000D02*
X135040000Y-119680000D01*
X137055000Y-119720000D02*
X135040000Y-119720000D01*
X137019000Y-119760000D02*
X135040000Y-119760000D01*
X136982000Y-119800000D02*
X131018000Y-119800000D01*
X136945000Y-119840000D02*
X131055000Y-119840000D01*
X136906000Y-119880000D02*
X131094000Y-119880000D01*
X136867000Y-119920000D02*
X131133000Y-119920000D01*
X136826000Y-119960000D02*
X131174000Y-119960000D01*
X136784000Y-120000000D02*
X131216000Y-120000000D01*
X136741000Y-120040000D02*
X131259000Y-120040000D01*
X136715000Y-112990302D02*
X135915000Y-112990302D01*
X136696000Y-120080000D02*
X131304000Y-120080000D01*
X136651000Y-120120000D02*
X131349000Y-120120000D01*
X136604000Y-120160000D02*
X131396000Y-120160000D01*
X136555000Y-120200000D02*
X131445000Y-120200000D01*
X136505000Y-120240000D02*
X131495000Y-120240000D01*
X136453000Y-120280000D02*
X131547000Y-120280000D01*
X136400000Y-120320000D02*
X131600000Y-120320000D01*
X136344000Y-120360000D02*
X131656000Y-120360000D01*
X136315000Y-112590302D02*
X136315000Y-113390302D01*
X136287000Y-120400000D02*
X131713000Y-120400000D01*
X136227000Y-120440000D02*
X131773000Y-120440000D01*
X136165000Y-120480000D02*
X131835000Y-120480000D01*
X136101000Y-120520000D02*
X131899000Y-120520000D01*
X136034000Y-120560000D02*
X131966000Y-120560000D01*
X135964000Y-120600000D02*
X132036000Y-120600000D01*
X135890000Y-120640000D02*
X132110000Y-120640000D01*
X135813000Y-120680000D02*
X132187000Y-120680000D01*
X135731000Y-120720000D02*
X132269000Y-120720000D01*
X135644000Y-120760000D02*
X132356000Y-120760000D01*
X135552000Y-120800000D02*
X132448000Y-120800000D01*
X135453000Y-120840000D02*
X132547000Y-120840000D01*
X135346000Y-120880000D02*
X132654000Y-120880000D01*
X135228000Y-120920000D02*
X132772000Y-120920000D01*
X135097000Y-120960000D02*
X132903000Y-120960000D01*
X134947000Y-121000000D02*
X133053000Y-121000000D01*
X134768000Y-121040000D02*
X133232000Y-121040000D01*
X134533000Y-121080000D02*
X133467000Y-121080000D01*
X132960000Y-119760000D02*
X130981000Y-119760000D01*
X132960000Y-119720000D02*
X130945000Y-119720000D01*
X132960000Y-119680000D02*
X130911000Y-119680000D01*
X132960000Y-119640000D02*
X130877000Y-119640000D01*
X132960000Y-119600000D02*
X130844000Y-119600000D01*
X132960000Y-119560000D02*
X130812000Y-119560000D01*
X132960000Y-119520000D02*
X130781000Y-119520000D01*
X132960000Y-119480000D02*
X130750000Y-119480000D01*
X132960000Y-119440000D02*
X130720000Y-119440000D01*
X132960000Y-119400000D02*
X130691000Y-119400000D01*
X132960000Y-119360000D02*
X130663000Y-119360000D01*
X132960000Y-119320000D02*
X130635000Y-119320000D01*
X132960000Y-119280000D02*
X130608000Y-119280000D01*
X132960000Y-119240000D02*
X130582000Y-119240000D01*
X132960000Y-119200000D02*
X130557000Y-119200000D01*
X132960000Y-119160000D02*
X130532000Y-119160000D01*
X132960000Y-119120000D02*
X130507000Y-119120000D01*
X132960000Y-119080000D02*
X130484000Y-119080000D01*
X132960000Y-119040000D02*
X130461000Y-119040000D01*
X132960000Y-119000000D02*
X130438000Y-119000000D01*
X132960000Y-118960000D02*
X130416000Y-118960000D01*
X132960000Y-118920000D02*
X130395000Y-118920000D01*
X132960000Y-118880000D02*
X130374000Y-118880000D01*
X132960000Y-118840000D02*
X130354000Y-118840000D01*
X132960000Y-118800000D02*
X130334000Y-118800000D01*
X132960000Y-118760000D02*
X130315000Y-118760000D01*
X132960000Y-118720000D02*
X130296000Y-118720000D01*
X132960000Y-118680000D02*
X130278000Y-118680000D01*
X132960000Y-118640000D02*
X130260000Y-118640000D01*
X132960000Y-118600000D02*
X130243000Y-118600000D01*
X132960000Y-118560000D02*
X130227000Y-118560000D01*
X132960000Y-118520000D02*
X130211000Y-118520000D01*
X132960000Y-118480000D02*
X130195000Y-118480000D01*
X132960000Y-118440000D02*
X130180000Y-118440000D01*
X132960000Y-118400000D02*
X130165000Y-118400000D01*
X132960000Y-118360000D02*
X130151000Y-118360000D01*
X132960000Y-118320000D02*
X130137000Y-118320000D01*
X132960000Y-118280000D02*
X130124000Y-118280000D01*
X132960000Y-118240000D02*
X130111000Y-118240000D01*
X132960000Y-118200000D02*
X130099000Y-118200000D01*
X132960000Y-118160000D02*
X130087000Y-118160000D01*
X132960000Y-118120000D02*
X130075000Y-118120000D01*
X132960000Y-118080000D02*
X130064000Y-118080000D01*
X132960000Y-118040000D02*
X130053000Y-118040000D01*
X132960000Y-118000000D02*
X130043000Y-118000000D01*
X132960000Y-117960000D02*
X130033000Y-117960000D01*
X132960000Y-117920000D02*
X130024000Y-117920000D01*
X132960000Y-117880000D02*
X130015000Y-117880000D01*
X132960000Y-117840000D02*
X130007000Y-117840000D01*
X132960000Y-117800000D02*
X129998000Y-117800000D01*
X132960000Y-117760000D02*
X129991000Y-117760000D01*
X132960000Y-117720000D02*
X129983000Y-117720000D01*
%TO.C,U1*%
X118500000Y-131420000D02*
G75*
G02*
X116500000Y-131420000I-1000000J0D01*
G01*
X112360000Y-131360000D02*
X122640000Y-131360000D01*
X122640000Y-141760000D01*
X112360000Y-141760000D01*
X112360000Y-131360000D01*
X114850000Y-141700000D02*
X120150000Y-141700000D01*
X120150000Y-141700000D02*
X120150000Y-131420000D01*
X114850000Y-131420000D02*
X114850000Y-141700000D01*
X116500000Y-131420000D02*
X114850000Y-131420000D01*
X120150000Y-131420000D02*
X118500000Y-131420000D01*
%TO.C,U2*%
X111800000Y-121672500D02*
G75*
G02*
X111800000Y-123672500I0J-1000000D01*
G01*
X111740000Y-127812500D02*
X122140000Y-127812500D01*
X122140000Y-117532500D01*
X111740000Y-117532500D01*
X111740000Y-127812500D01*
X122080000Y-125322500D02*
X122080000Y-120022500D01*
X122080000Y-120022500D02*
X111800000Y-120022500D01*
X111800000Y-125322500D02*
X122080000Y-125322500D01*
X111800000Y-123672500D02*
X111800000Y-125322500D01*
X111800000Y-120022500D02*
X111800000Y-121672500D01*
%TO.C,Cf-1*%
X132120000Y-125000000D02*
G75*
G02*
X123880000Y-125000000I-4120000J0D01*
G01*
X123880000Y-125000000D02*
G75*
G02*
X132120000Y-125000000I4120000J0D01*
G01*
X132080000Y-125040000D02*
X123920000Y-125040000D01*
X132080000Y-125000000D02*
X123920000Y-125000000D01*
X132079000Y-125080000D02*
X123921000Y-125080000D01*
X132078000Y-125120000D02*
X123922000Y-125120000D01*
X132077000Y-125160000D02*
X123923000Y-125160000D01*
X132075000Y-125200000D02*
X123925000Y-125200000D01*
X132073000Y-125240000D02*
X123927000Y-125240000D01*
X132070000Y-125280000D02*
X123930000Y-125280000D01*
X132068000Y-125320000D02*
X123932000Y-125320000D01*
X132064000Y-125360000D02*
X123936000Y-125360000D01*
X132061000Y-125400000D02*
X123939000Y-125400000D01*
X132056000Y-125440000D02*
X123944000Y-125440000D01*
X132052000Y-125480000D02*
X123948000Y-125480000D01*
X132047000Y-125520000D02*
X123953000Y-125520000D01*
X132042000Y-125560000D02*
X123958000Y-125560000D01*
X132036000Y-125600000D02*
X123964000Y-125600000D01*
X132030000Y-125640000D02*
X123970000Y-125640000D01*
X132023000Y-125680000D02*
X123977000Y-125680000D01*
X132017000Y-125720000D02*
X129040000Y-125720000D01*
X132009000Y-125760000D02*
X129040000Y-125760000D01*
X132002000Y-125800000D02*
X129040000Y-125800000D01*
X131993000Y-125840000D02*
X129040000Y-125840000D01*
X131985000Y-125880000D02*
X129040000Y-125880000D01*
X131976000Y-125920000D02*
X129040000Y-125920000D01*
X131967000Y-125960000D02*
X129040000Y-125960000D01*
X131957000Y-126000000D02*
X129040000Y-126000000D01*
X131947000Y-126040000D02*
X129040000Y-126040000D01*
X131936000Y-126080000D02*
X129040000Y-126080000D01*
X131925000Y-126120000D02*
X129040000Y-126120000D01*
X131913000Y-126160000D02*
X129040000Y-126160000D01*
X131901000Y-126200000D02*
X129040000Y-126200000D01*
X131889000Y-126240000D02*
X129040000Y-126240000D01*
X131876000Y-126280000D02*
X129040000Y-126280000D01*
X131863000Y-126320000D02*
X129040000Y-126320000D01*
X131849000Y-126360000D02*
X129040000Y-126360000D01*
X131835000Y-126400000D02*
X129040000Y-126400000D01*
X131820000Y-126440000D02*
X129040000Y-126440000D01*
X131805000Y-126480000D02*
X129040000Y-126480000D01*
X131789000Y-126520000D02*
X129040000Y-126520000D01*
X131773000Y-126560000D02*
X129040000Y-126560000D01*
X131757000Y-126600000D02*
X129040000Y-126600000D01*
X131740000Y-126640000D02*
X129040000Y-126640000D01*
X131722000Y-126680000D02*
X129040000Y-126680000D01*
X131704000Y-126720000D02*
X129040000Y-126720000D01*
X131685000Y-126760000D02*
X129040000Y-126760000D01*
X131666000Y-126800000D02*
X129040000Y-126800000D01*
X131646000Y-126840000D02*
X129040000Y-126840000D01*
X131626000Y-126880000D02*
X129040000Y-126880000D01*
X131605000Y-126920000D02*
X129040000Y-126920000D01*
X131584000Y-126960000D02*
X129040000Y-126960000D01*
X131562000Y-127000000D02*
X129040000Y-127000000D01*
X131539000Y-127040000D02*
X129040000Y-127040000D01*
X131516000Y-127080000D02*
X129040000Y-127080000D01*
X131493000Y-127120000D02*
X129040000Y-127120000D01*
X131468000Y-127160000D02*
X129040000Y-127160000D01*
X131443000Y-127200000D02*
X129040000Y-127200000D01*
X131418000Y-127240000D02*
X129040000Y-127240000D01*
X131392000Y-127280000D02*
X129040000Y-127280000D01*
X131365000Y-127320000D02*
X129040000Y-127320000D01*
X131337000Y-127360000D02*
X129040000Y-127360000D01*
X131309000Y-127400000D02*
X129040000Y-127400000D01*
X131280000Y-127440000D02*
X129040000Y-127440000D01*
X131250000Y-127480000D02*
X129040000Y-127480000D01*
X131219000Y-127520000D02*
X129040000Y-127520000D01*
X131188000Y-127560000D02*
X129040000Y-127560000D01*
X131156000Y-127600000D02*
X129040000Y-127600000D01*
X131123000Y-127640000D02*
X129040000Y-127640000D01*
X131089000Y-127680000D02*
X129040000Y-127680000D01*
X131055000Y-127720000D02*
X129040000Y-127720000D01*
X131019000Y-127760000D02*
X129040000Y-127760000D01*
X130982000Y-127800000D02*
X125018000Y-127800000D01*
X130945000Y-127840000D02*
X125055000Y-127840000D01*
X130906000Y-127880000D02*
X125094000Y-127880000D01*
X130867000Y-127920000D02*
X125133000Y-127920000D01*
X130826000Y-127960000D02*
X125174000Y-127960000D01*
X130784000Y-128000000D02*
X125216000Y-128000000D01*
X130741000Y-128040000D02*
X125259000Y-128040000D01*
X130715000Y-120990302D02*
X129915000Y-120990302D01*
X130696000Y-128080000D02*
X125304000Y-128080000D01*
X130651000Y-128120000D02*
X125349000Y-128120000D01*
X130604000Y-128160000D02*
X125396000Y-128160000D01*
X130555000Y-128200000D02*
X125445000Y-128200000D01*
X130505000Y-128240000D02*
X125495000Y-128240000D01*
X130453000Y-128280000D02*
X125547000Y-128280000D01*
X130400000Y-128320000D02*
X125600000Y-128320000D01*
X130344000Y-128360000D02*
X125656000Y-128360000D01*
X130315000Y-120590302D02*
X130315000Y-121390302D01*
X130287000Y-128400000D02*
X125713000Y-128400000D01*
X130227000Y-128440000D02*
X125773000Y-128440000D01*
X130165000Y-128480000D02*
X125835000Y-128480000D01*
X130101000Y-128520000D02*
X125899000Y-128520000D01*
X130034000Y-128560000D02*
X125966000Y-128560000D01*
X129964000Y-128600000D02*
X126036000Y-128600000D01*
X129890000Y-128640000D02*
X126110000Y-128640000D01*
X129813000Y-128680000D02*
X126187000Y-128680000D01*
X129731000Y-128720000D02*
X126269000Y-128720000D01*
X129644000Y-128760000D02*
X126356000Y-128760000D01*
X129552000Y-128800000D02*
X126448000Y-128800000D01*
X129453000Y-128840000D02*
X126547000Y-128840000D01*
X129346000Y-128880000D02*
X126654000Y-128880000D01*
X129228000Y-128920000D02*
X126772000Y-128920000D01*
X129097000Y-128960000D02*
X126903000Y-128960000D01*
X128947000Y-129000000D02*
X127053000Y-129000000D01*
X128768000Y-129040000D02*
X127232000Y-129040000D01*
X128533000Y-129080000D02*
X127467000Y-129080000D01*
X126960000Y-127760000D02*
X124981000Y-127760000D01*
X126960000Y-127720000D02*
X124945000Y-127720000D01*
X126960000Y-127680000D02*
X124911000Y-127680000D01*
X126960000Y-127640000D02*
X124877000Y-127640000D01*
X126960000Y-127600000D02*
X124844000Y-127600000D01*
X126960000Y-127560000D02*
X124812000Y-127560000D01*
X126960000Y-127520000D02*
X124781000Y-127520000D01*
X126960000Y-127480000D02*
X124750000Y-127480000D01*
X126960000Y-127440000D02*
X124720000Y-127440000D01*
X126960000Y-127400000D02*
X124691000Y-127400000D01*
X126960000Y-127360000D02*
X124663000Y-127360000D01*
X126960000Y-127320000D02*
X124635000Y-127320000D01*
X126960000Y-127280000D02*
X124608000Y-127280000D01*
X126960000Y-127240000D02*
X124582000Y-127240000D01*
X126960000Y-127200000D02*
X124557000Y-127200000D01*
X126960000Y-127160000D02*
X124532000Y-127160000D01*
X126960000Y-127120000D02*
X124507000Y-127120000D01*
X126960000Y-127080000D02*
X124484000Y-127080000D01*
X126960000Y-127040000D02*
X124461000Y-127040000D01*
X126960000Y-127000000D02*
X124438000Y-127000000D01*
X126960000Y-126960000D02*
X124416000Y-126960000D01*
X126960000Y-126920000D02*
X124395000Y-126920000D01*
X126960000Y-126880000D02*
X124374000Y-126880000D01*
X126960000Y-126840000D02*
X124354000Y-126840000D01*
X126960000Y-126800000D02*
X124334000Y-126800000D01*
X126960000Y-126760000D02*
X124315000Y-126760000D01*
X126960000Y-126720000D02*
X124296000Y-126720000D01*
X126960000Y-126680000D02*
X124278000Y-126680000D01*
X126960000Y-126640000D02*
X124260000Y-126640000D01*
X126960000Y-126600000D02*
X124243000Y-126600000D01*
X126960000Y-126560000D02*
X124227000Y-126560000D01*
X126960000Y-126520000D02*
X124211000Y-126520000D01*
X126960000Y-126480000D02*
X124195000Y-126480000D01*
X126960000Y-126440000D02*
X124180000Y-126440000D01*
X126960000Y-126400000D02*
X124165000Y-126400000D01*
X126960000Y-126360000D02*
X124151000Y-126360000D01*
X126960000Y-126320000D02*
X124137000Y-126320000D01*
X126960000Y-126280000D02*
X124124000Y-126280000D01*
X126960000Y-126240000D02*
X124111000Y-126240000D01*
X126960000Y-126200000D02*
X124099000Y-126200000D01*
X126960000Y-126160000D02*
X124087000Y-126160000D01*
X126960000Y-126120000D02*
X124075000Y-126120000D01*
X126960000Y-126080000D02*
X124064000Y-126080000D01*
X126960000Y-126040000D02*
X124053000Y-126040000D01*
X126960000Y-126000000D02*
X124043000Y-126000000D01*
X126960000Y-125960000D02*
X124033000Y-125960000D01*
X126960000Y-125920000D02*
X124024000Y-125920000D01*
X126960000Y-125880000D02*
X124015000Y-125880000D01*
X126960000Y-125840000D02*
X124007000Y-125840000D01*
X126960000Y-125800000D02*
X123998000Y-125800000D01*
X126960000Y-125760000D02*
X123991000Y-125760000D01*
X126960000Y-125720000D02*
X123983000Y-125720000D01*
%TO.C,Rsh1*%
X114830000Y-99830000D02*
X115160000Y-99830000D01*
X114830000Y-106370000D02*
X114830000Y-99830000D01*
X115160000Y-106370000D02*
X114830000Y-106370000D01*
X117240000Y-106370000D02*
X117570000Y-106370000D01*
X117570000Y-99830000D02*
X117240000Y-99830000D01*
X117570000Y-106370000D02*
X117570000Y-99830000D01*
%TO.C,Q4*%
X123860000Y-92350000D02*
X120260000Y-92350000D01*
X119735816Y-93077205D02*
G75*
G02*
X120260000Y-92350000I2324184J-1122795D01*
G01*
X122060000Y-96800000D02*
G75*
G02*
X119703600Y-95298807I0J2600000D01*
G01*
X123860000Y-92350000D02*
G75*
G02*
X124384184Y-93077205I-1800000J-1850000D01*
G01*
X124416400Y-95298807D02*
G75*
G02*
X122060000Y-96800000I-2356400J1098807D01*
G01*
%TO.C,U3*%
X139480000Y-110141130D02*
X139480000Y-115441130D01*
X139480000Y-115441130D02*
X149760000Y-115441130D01*
X149760000Y-110141130D02*
X139480000Y-110141130D01*
X149760000Y-111791130D02*
X149760000Y-110141130D01*
X149760000Y-115441130D02*
X149760000Y-113791130D01*
X149820000Y-107651130D02*
X139420000Y-107651130D01*
X139420000Y-117931130D01*
X149820000Y-117931130D01*
X149820000Y-107651130D01*
X149760000Y-113791130D02*
G75*
G02*
X149760000Y-111791130I0J1000000D01*
G01*
%TO.C,U4*%
X177847500Y-96440000D02*
X179227500Y-96440000D01*
X177847500Y-97820000D02*
X177847500Y-96440000D01*
X177847500Y-99090000D02*
X177847500Y-122060000D01*
X177847500Y-99090000D02*
X180607500Y-99090000D01*
X177847500Y-122060000D02*
X180607500Y-122060000D01*
X180607500Y-99090000D02*
X180607500Y-122060000D01*
%TO.C,RV2*%
X212970000Y-124335000D02*
X218020000Y-124335000D01*
X212970000Y-134085000D02*
X212970000Y-124335000D01*
X218020000Y-124335000D02*
X218020000Y-134085000D01*
X218020000Y-134085000D02*
X212970000Y-134085000D01*
%TO.C,Furo2*%
X148390000Y-89652500D02*
X148390000Y-92962500D01*
X148390000Y-102812500D02*
X148390000Y-99502500D01*
X149760000Y-92962500D02*
X147020000Y-92962500D01*
X147020000Y-99502500D01*
X149760000Y-99502500D01*
X149760000Y-92962500D01*
%TO.C,K1*%
X149200000Y-65250000D02*
X164800000Y-65250000D01*
X149200000Y-85050000D02*
X149200000Y-65250000D01*
X149200000Y-85050000D02*
X155800000Y-85050000D01*
X151050000Y-77600000D02*
X151050000Y-80100000D01*
X151050000Y-77600000D02*
X155250000Y-77600000D01*
X152800000Y-69500000D02*
X155300000Y-69500000D01*
X155250000Y-75600000D02*
X158850000Y-75600000D01*
X155250000Y-79600000D02*
X155250000Y-75600000D01*
X157050000Y-72700000D02*
X154550000Y-68100000D01*
X157050000Y-74200000D02*
X157050000Y-72700000D01*
X157050000Y-74200000D02*
X160650000Y-74200000D01*
X157050000Y-81000000D02*
X157050000Y-81800000D01*
X157050000Y-81000000D02*
X160650000Y-81000000D01*
X158200000Y-85050000D02*
X164800000Y-85050000D01*
X158850000Y-75600000D02*
X155250000Y-79600000D01*
X158850000Y-75600000D02*
X158850000Y-79600000D01*
X158850000Y-77600000D02*
X163050000Y-77600000D01*
X158850000Y-79600000D02*
X155250000Y-79600000D01*
X160650000Y-74200000D02*
X160650000Y-81000000D01*
X161200000Y-69500000D02*
X158750000Y-69500000D01*
X163050000Y-80100000D02*
X163050000Y-77600000D01*
X164800000Y-65250000D02*
X164800000Y-85050000D01*
%TO.C,DS1*%
X221440000Y-133350000D02*
X221440000Y-130350000D01*
X221800000Y-59710000D02*
X221800000Y-139190000D01*
X221800000Y-139980000D02*
X221800000Y-139190000D01*
X221800000Y-139990000D02*
X258080000Y-139990000D01*
X227440000Y-63850000D02*
X252440000Y-63850000D01*
X227440000Y-136850000D02*
X227440000Y-63850000D01*
X232440000Y-131650000D02*
X232440000Y-68150000D01*
X232940000Y-67650000D02*
X246940000Y-67650000D01*
X246939320Y-132149720D02*
X232940000Y-132149720D01*
X247440000Y-68149340D02*
X247440000Y-131650000D01*
X252440000Y-63850000D02*
X252440000Y-136850000D01*
X252440000Y-136850000D02*
X227440000Y-136850000D01*
X258080000Y-59710000D02*
X221800000Y-59710000D01*
X258080000Y-139990000D02*
X258080000Y-59710000D01*
X232440000Y-68150000D02*
G75*
G02*
X232940000Y-67650000I500000J0D01*
G01*
X232938840Y-132149720D02*
G75*
G02*
X232438460Y-131649340I0J500380D01*
G01*
X246939320Y-67648960D02*
G75*
G02*
X247439640Y-68149340I-20J-500340D01*
G01*
X247439700Y-131649340D02*
G75*
G02*
X246939320Y-132149720I-500380J0D01*
G01*
%TO.C,Q2*%
X172200000Y-80500000D02*
X175800000Y-80500000D01*
X171643600Y-77551193D02*
G75*
G02*
X174000000Y-76050000I2356400J-1098807D01*
G01*
X172200000Y-80500000D02*
G75*
G02*
X171675816Y-79772795I1800000J1850000D01*
G01*
X174000000Y-76050000D02*
G75*
G02*
X176356400Y-77551193I0J-2600000D01*
G01*
X176324184Y-79772795D02*
G75*
G02*
X175800000Y-80500000I-2324184J1122795D01*
G01*
%TO.C,Furo5*%
X127800000Y-84880000D02*
X127800000Y-85650000D01*
X127800000Y-92960000D02*
X127800000Y-92190000D01*
X126430000Y-92190000D02*
X129170000Y-92190000D01*
X129170000Y-85650000D01*
X126430000Y-85650000D01*
X126430000Y-92190000D01*
%TO.C,Furo8*%
X168690000Y-128649188D02*
X172000000Y-128649188D01*
X181850000Y-128649188D02*
X178540000Y-128649188D01*
X172000000Y-127279188D02*
X178540000Y-127279188D01*
X178540000Y-130019188D01*
X172000000Y-130019188D01*
X172000000Y-127279188D01*
%TO.C,RQ1*%
X174722069Y-82155324D02*
X174722069Y-82485324D01*
X174722069Y-84895324D02*
X174722069Y-84565324D01*
X181262069Y-82155324D02*
X174722069Y-82155324D01*
X181262069Y-82485324D02*
X181262069Y-82155324D01*
X181262069Y-84565324D02*
X181262069Y-84895324D01*
X181262069Y-84895324D02*
X174722069Y-84895324D01*
%TO.C,RG1k1*%
X134610000Y-60280000D02*
X134610000Y-60610000D01*
X134610000Y-63020000D02*
X134610000Y-62690000D01*
X141150000Y-60280000D02*
X134610000Y-60280000D01*
X141150000Y-60610000D02*
X141150000Y-60280000D01*
X141150000Y-62690000D02*
X141150000Y-63020000D01*
X141150000Y-63020000D02*
X134610000Y-63020000D01*
%TO.C,Cfin2*%
X134340000Y-97800000D02*
X135571000Y-97800000D01*
X134340000Y-97760000D02*
X135566000Y-97760000D01*
X134340000Y-97720000D02*
X135561000Y-97720000D01*
X134340000Y-97680000D02*
X135556000Y-97680000D01*
X134340000Y-97640000D02*
X135549000Y-97640000D01*
X134340000Y-97600000D02*
X135542000Y-97600000D01*
X134340000Y-97560000D02*
X135534000Y-97560000D01*
X134340000Y-97520000D02*
X135525000Y-97520000D01*
X134340000Y-97480000D02*
X135515000Y-97480000D01*
X134340000Y-97440000D02*
X135505000Y-97440000D01*
X134340000Y-97400000D02*
X135493000Y-97400000D01*
X134340000Y-97360000D02*
X135481000Y-97360000D01*
X134340000Y-97320000D02*
X135468000Y-97320000D01*
X134340000Y-97280000D02*
X135454000Y-97280000D01*
X134340000Y-97240000D02*
X135439000Y-97240000D01*
X134340000Y-97200000D02*
X135423000Y-97200000D01*
X134340000Y-97160000D02*
X135406000Y-97160000D01*
X134340000Y-97120000D02*
X135389000Y-97120000D01*
X134340000Y-97080000D02*
X135370000Y-97080000D01*
X134340000Y-97040000D02*
X135350000Y-97040000D01*
X134340000Y-97000000D02*
X135329000Y-97000000D01*
X134340000Y-96960000D02*
X135307000Y-96960000D01*
X134340000Y-96920000D02*
X135284000Y-96920000D01*
X134340000Y-96880000D02*
X135260000Y-96880000D01*
X134340000Y-96840000D02*
X135234000Y-96840000D01*
X134340000Y-96800000D02*
X135208000Y-96800000D01*
X134340000Y-96760000D02*
X135180000Y-96760000D01*
X134340000Y-96720000D02*
X135150000Y-96720000D01*
X134340000Y-96680000D02*
X135119000Y-96680000D01*
X134340000Y-96640000D02*
X135086000Y-96640000D01*
X134340000Y-96600000D02*
X135052000Y-96600000D01*
X134340000Y-96560000D02*
X135016000Y-96560000D01*
X134340000Y-96520000D02*
X134978000Y-96520000D01*
X134340000Y-96480000D02*
X134938000Y-96480000D01*
X134340000Y-96440000D02*
X134896000Y-96440000D01*
X134340000Y-96400000D02*
X134851000Y-96400000D01*
X134340000Y-96360000D02*
X134803000Y-96360000D01*
X134340000Y-96320000D02*
X134753000Y-96320000D01*
X134340000Y-96280000D02*
X134699000Y-96280000D01*
X134340000Y-96240000D02*
X134642000Y-96240000D01*
X134340000Y-96200000D02*
X134580000Y-96200000D01*
X133130000Y-95920000D02*
X133870000Y-95920000D01*
X132963000Y-95960000D02*
X134037000Y-95960000D01*
X132837000Y-96000000D02*
X134163000Y-96000000D01*
X132732000Y-96040000D02*
X134268000Y-96040000D01*
X132641000Y-96080000D02*
X134359000Y-96080000D01*
X132560000Y-96120000D02*
X134440000Y-96120000D01*
X132487000Y-96160000D02*
X134513000Y-96160000D01*
X132420000Y-96200000D02*
X132660000Y-96200000D01*
X132358000Y-96240000D02*
X132660000Y-96240000D01*
X132305000Y-100269801D02*
X132305000Y-99869801D01*
X132301000Y-96280000D02*
X132660000Y-96280000D01*
X132247000Y-96320000D02*
X132660000Y-96320000D01*
X132197000Y-96360000D02*
X132660000Y-96360000D01*
X132149000Y-96400000D02*
X132660000Y-96400000D01*
X132105000Y-100069801D02*
X132505000Y-100069801D01*
X132104000Y-96440000D02*
X132660000Y-96440000D01*
X132062000Y-96480000D02*
X132660000Y-96480000D01*
X132022000Y-96520000D02*
X132660000Y-96520000D01*
X131984000Y-96560000D02*
X132660000Y-96560000D01*
X131948000Y-96600000D02*
X132660000Y-96600000D01*
X131914000Y-96640000D02*
X132660000Y-96640000D01*
X131881000Y-96680000D02*
X132660000Y-96680000D01*
X131850000Y-96720000D02*
X132660000Y-96720000D01*
X131820000Y-96760000D02*
X132660000Y-96760000D01*
X131792000Y-96800000D02*
X132660000Y-96800000D01*
X131766000Y-96840000D02*
X132660000Y-96840000D01*
X131740000Y-96880000D02*
X132660000Y-96880000D01*
X131716000Y-96920000D02*
X132660000Y-96920000D01*
X131693000Y-96960000D02*
X132660000Y-96960000D01*
X131671000Y-97000000D02*
X132660000Y-97000000D01*
X131650000Y-97040000D02*
X132660000Y-97040000D01*
X131630000Y-97080000D02*
X132660000Y-97080000D01*
X131611000Y-97120000D02*
X132660000Y-97120000D01*
X131594000Y-97160000D02*
X132660000Y-97160000D01*
X131577000Y-97200000D02*
X132660000Y-97200000D01*
X131561000Y-97240000D02*
X132660000Y-97240000D01*
X131546000Y-97280000D02*
X132660000Y-97280000D01*
X131532000Y-97320000D02*
X132660000Y-97320000D01*
X131519000Y-97360000D02*
X132660000Y-97360000D01*
X131507000Y-97400000D02*
X132660000Y-97400000D01*
X131495000Y-97440000D02*
X132660000Y-97440000D01*
X131485000Y-97480000D02*
X132660000Y-97480000D01*
X131475000Y-97520000D02*
X132660000Y-97520000D01*
X131466000Y-97560000D02*
X132660000Y-97560000D01*
X131458000Y-97600000D02*
X132660000Y-97600000D01*
X131451000Y-97640000D02*
X132660000Y-97640000D01*
X131444000Y-97680000D02*
X132660000Y-97680000D01*
X131439000Y-97720000D02*
X132660000Y-97720000D01*
X131434000Y-97760000D02*
X132660000Y-97760000D01*
X131429000Y-97800000D02*
X132660000Y-97800000D01*
X131426000Y-97840000D02*
X135574000Y-97840000D01*
X131423000Y-97880000D02*
X135577000Y-97880000D01*
X131422000Y-97920000D02*
X135578000Y-97920000D01*
X131420000Y-98000000D02*
X135580000Y-98000000D01*
X131420000Y-97960000D02*
X135580000Y-97960000D01*
X135620000Y-98000000D02*
G75*
G02*
X131380000Y-98000000I-2120000J0D01*
G01*
X131380000Y-98000000D02*
G75*
G02*
X135620000Y-98000000I2120000J0D01*
G01*
%TO.C,Furo7*%
X185500000Y-70540000D02*
X185500000Y-77580000D01*
X185500000Y-93860000D02*
X185500000Y-86820000D01*
X187220000Y-77580000D02*
X183780000Y-77580000D01*
X183780000Y-86820000D01*
X187220000Y-86820000D01*
X187220000Y-77580000D01*
%TO.C,RG100*%
X119020000Y-55842500D02*
X119020000Y-62382500D01*
X119020000Y-62382500D02*
X119350000Y-62382500D01*
X119350000Y-55842500D02*
X119020000Y-55842500D01*
X121430000Y-55842500D02*
X121760000Y-55842500D01*
X121760000Y-55842500D02*
X121760000Y-62382500D01*
X121760000Y-62382500D02*
X121430000Y-62382500D01*
%TO.C,Cfout1*%
X155310000Y-136982500D02*
X155310000Y-136242500D01*
X155350000Y-137149500D02*
X155350000Y-136075500D01*
X155390000Y-137275500D02*
X155390000Y-135949500D01*
X155430000Y-137380500D02*
X155430000Y-135844500D01*
X155470000Y-137471500D02*
X155470000Y-135753500D01*
X155510000Y-137552500D02*
X155510000Y-135672500D01*
X155550000Y-137625500D02*
X155550000Y-135599500D01*
X155590000Y-135772500D02*
X155590000Y-135532500D01*
X155590000Y-137692500D02*
X155590000Y-137452500D01*
X155630000Y-135772500D02*
X155630000Y-135470500D01*
X155630000Y-137754500D02*
X155630000Y-137452500D01*
X155670000Y-135772500D02*
X155670000Y-135413500D01*
X155670000Y-137811500D02*
X155670000Y-137452500D01*
X155710000Y-135772500D02*
X155710000Y-135359500D01*
X155710000Y-137865500D02*
X155710000Y-137452500D01*
X155750000Y-135772500D02*
X155750000Y-135309500D01*
X155750000Y-137915500D02*
X155750000Y-137452500D01*
X155790000Y-135772500D02*
X155790000Y-135261500D01*
X155790000Y-137963500D02*
X155790000Y-137452500D01*
X155830000Y-135772500D02*
X155830000Y-135216500D01*
X155830000Y-138008500D02*
X155830000Y-137452500D01*
X155870000Y-135772500D02*
X155870000Y-135174500D01*
X155870000Y-138050500D02*
X155870000Y-137452500D01*
X155910000Y-135772500D02*
X155910000Y-135134500D01*
X155910000Y-138090500D02*
X155910000Y-137452500D01*
X155950000Y-135772500D02*
X155950000Y-135096500D01*
X155950000Y-138128500D02*
X155950000Y-137452500D01*
X155990000Y-135772500D02*
X155990000Y-135060500D01*
X155990000Y-138164500D02*
X155990000Y-137452500D01*
X156030000Y-135772500D02*
X156030000Y-135026500D01*
X156030000Y-138198500D02*
X156030000Y-137452500D01*
X156070000Y-135772500D02*
X156070000Y-134993500D01*
X156070000Y-138231500D02*
X156070000Y-137452500D01*
X156110000Y-135772500D02*
X156110000Y-134962500D01*
X156110000Y-138262500D02*
X156110000Y-137452500D01*
X156150000Y-135772500D02*
X156150000Y-134932500D01*
X156150000Y-138292500D02*
X156150000Y-137452500D01*
X156190000Y-135772500D02*
X156190000Y-134904500D01*
X156190000Y-138320500D02*
X156190000Y-137452500D01*
X156230000Y-135772500D02*
X156230000Y-134878500D01*
X156230000Y-138346500D02*
X156230000Y-137452500D01*
X156270000Y-135772500D02*
X156270000Y-134852500D01*
X156270000Y-138372500D02*
X156270000Y-137452500D01*
X156310000Y-135772500D02*
X156310000Y-134828500D01*
X156310000Y-138396500D02*
X156310000Y-137452500D01*
X156350000Y-135772500D02*
X156350000Y-134805500D01*
X156350000Y-138419500D02*
X156350000Y-137452500D01*
X156390000Y-135772500D02*
X156390000Y-134783500D01*
X156390000Y-138441500D02*
X156390000Y-137452500D01*
X156430000Y-135772500D02*
X156430000Y-134762500D01*
X156430000Y-138462500D02*
X156430000Y-137452500D01*
X156470000Y-135772500D02*
X156470000Y-134742500D01*
X156470000Y-138482500D02*
X156470000Y-137452500D01*
X156510000Y-135772500D02*
X156510000Y-134723500D01*
X156510000Y-138501500D02*
X156510000Y-137452500D01*
X156550000Y-135772500D02*
X156550000Y-134706500D01*
X156550000Y-138518500D02*
X156550000Y-137452500D01*
X156590000Y-135772500D02*
X156590000Y-134689500D01*
X156590000Y-138535500D02*
X156590000Y-137452500D01*
X156630000Y-135772500D02*
X156630000Y-134673500D01*
X156630000Y-138551500D02*
X156630000Y-137452500D01*
X156670000Y-135772500D02*
X156670000Y-134658500D01*
X156670000Y-138566500D02*
X156670000Y-137452500D01*
X156710000Y-135772500D02*
X156710000Y-134644500D01*
X156710000Y-138580500D02*
X156710000Y-137452500D01*
X156750000Y-135772500D02*
X156750000Y-134631500D01*
X156750000Y-138593500D02*
X156750000Y-137452500D01*
X156790000Y-135772500D02*
X156790000Y-134619500D01*
X156790000Y-138605500D02*
X156790000Y-137452500D01*
X156830000Y-135772500D02*
X156830000Y-134607500D01*
X156830000Y-138617500D02*
X156830000Y-137452500D01*
X156870000Y-135772500D02*
X156870000Y-134597500D01*
X156870000Y-138627500D02*
X156870000Y-137452500D01*
X156910000Y-135772500D02*
X156910000Y-134587500D01*
X156910000Y-138637500D02*
X156910000Y-137452500D01*
X156950000Y-135772500D02*
X156950000Y-134578500D01*
X156950000Y-138646500D02*
X156950000Y-137452500D01*
X156990000Y-135772500D02*
X156990000Y-134570500D01*
X156990000Y-138654500D02*
X156990000Y-137452500D01*
X157030000Y-135772500D02*
X157030000Y-134563500D01*
X157030000Y-138661500D02*
X157030000Y-137452500D01*
X157070000Y-135772500D02*
X157070000Y-134556500D01*
X157070000Y-138668500D02*
X157070000Y-137452500D01*
X157110000Y-135772500D02*
X157110000Y-134551500D01*
X157110000Y-138673500D02*
X157110000Y-137452500D01*
X157150000Y-135772500D02*
X157150000Y-134546500D01*
X157150000Y-138678500D02*
X157150000Y-137452500D01*
X157190000Y-135772500D02*
X157190000Y-134541500D01*
X157190000Y-138683500D02*
X157190000Y-137452500D01*
X157230000Y-138686500D02*
X157230000Y-134538500D01*
X157270000Y-138689500D02*
X157270000Y-134535500D01*
X157310000Y-138690500D02*
X157310000Y-134534500D01*
X157350000Y-138692500D02*
X157350000Y-134532500D01*
X157390000Y-138692500D02*
X157390000Y-134532500D01*
X159459801Y-138007500D02*
X159459801Y-137607500D01*
X159659801Y-137807500D02*
X159259801Y-137807500D01*
X159510000Y-136612500D02*
G75*
G02*
X155270000Y-136612500I-2120000J0D01*
G01*
X155270000Y-136612500D02*
G75*
G02*
X159510000Y-136612500I2120000J0D01*
G01*
%TO.C,Rs-2*%
X141250000Y-125790000D02*
X141250000Y-126560000D01*
X141250000Y-133870000D02*
X141250000Y-133100000D01*
X139880000Y-133100000D02*
X142620000Y-133100000D01*
X142620000Y-126560000D01*
X139880000Y-126560000D01*
X139880000Y-133100000D01*
%TO.C,RQ2*%
X174722069Y-71290543D02*
X174722069Y-71620543D01*
X174722069Y-74030543D02*
X174722069Y-73700543D01*
X181262069Y-71290543D02*
X174722069Y-71290543D01*
X181262069Y-71620543D02*
X181262069Y-71290543D01*
X181262069Y-73700543D02*
X181262069Y-74030543D01*
X181262069Y-74030543D02*
X174722069Y-74030543D01*
%TO.C,RQ3*%
X174703305Y-60294409D02*
X174703305Y-60624409D01*
X174703305Y-63034409D02*
X174703305Y-62704409D01*
X181243305Y-60294409D02*
X174703305Y-60294409D01*
X181243305Y-60624409D02*
X181243305Y-60294409D01*
X181243305Y-62704409D02*
X181243305Y-63034409D01*
X181243305Y-63034409D02*
X174703305Y-63034409D01*
%TO.C,Rf-1*%
X119340000Y-115400000D02*
X120110000Y-115400000D01*
X127420000Y-115400000D02*
X126650000Y-115400000D01*
X120110000Y-114030000D02*
X126650000Y-114030000D01*
X126650000Y-116770000D01*
X120110000Y-116770000D01*
X120110000Y-114030000D01*
%TO.C,Furo9*%
X164560000Y-131610000D02*
X164560000Y-132380000D01*
X164560000Y-139690000D02*
X164560000Y-138920000D01*
X165930000Y-132380000D02*
X163190000Y-132380000D01*
X163190000Y-138920000D01*
X165930000Y-138920000D01*
X165930000Y-132380000D01*
%TO.C,RG10*%
X114520000Y-55842500D02*
X114520000Y-62382500D01*
X114520000Y-62382500D02*
X114850000Y-62382500D01*
X114850000Y-55842500D02*
X114520000Y-55842500D01*
X116930000Y-55842500D02*
X117260000Y-55842500D01*
X117260000Y-55842500D02*
X117260000Y-62382500D01*
X117260000Y-62382500D02*
X116930000Y-62382500D01*
%TO.C,U7*%
X179645000Y-132282500D02*
X179645000Y-142562500D01*
X179645000Y-142562500D02*
X184945000Y-142562500D01*
X181295000Y-132282500D02*
X179645000Y-132282500D01*
X184945000Y-132282500D02*
X183295000Y-132282500D01*
X184945000Y-142562500D02*
X184945000Y-132282500D01*
X177155000Y-132222500D02*
X187435000Y-132222500D01*
X187435000Y-142622500D01*
X177155000Y-142622500D01*
X177155000Y-132222500D01*
X183295000Y-132282500D02*
G75*
G02*
X181295000Y-132282500I-1000000J0D01*
G01*
%TO.C,Rs-1*%
X132540000Y-137750000D02*
X133310000Y-137750000D01*
X140620000Y-137750000D02*
X139850000Y-137750000D01*
X133310000Y-136380000D02*
X139850000Y-136380000D01*
X139850000Y-139120000D01*
X133310000Y-139120000D01*
X133310000Y-136380000D01*
%TO.C,Cf2*%
X169850000Y-142679849D02*
X166873000Y-142679849D01*
X169850000Y-142719849D02*
X166881000Y-142719849D01*
X169850000Y-142759849D02*
X166888000Y-142759849D01*
X169850000Y-142799849D02*
X166897000Y-142799849D01*
X169850000Y-142839849D02*
X166905000Y-142839849D01*
X169850000Y-142879849D02*
X166914000Y-142879849D01*
X169850000Y-142919849D02*
X166923000Y-142919849D01*
X169850000Y-142959849D02*
X166933000Y-142959849D01*
X169850000Y-142999849D02*
X166943000Y-142999849D01*
X169850000Y-143039849D02*
X166954000Y-143039849D01*
X169850000Y-143079849D02*
X166965000Y-143079849D01*
X169850000Y-143119849D02*
X166977000Y-143119849D01*
X169850000Y-143159849D02*
X166989000Y-143159849D01*
X169850000Y-143199849D02*
X167001000Y-143199849D01*
X169850000Y-143239849D02*
X167014000Y-143239849D01*
X169850000Y-143279849D02*
X167027000Y-143279849D01*
X169850000Y-143319849D02*
X167041000Y-143319849D01*
X169850000Y-143359849D02*
X167055000Y-143359849D01*
X169850000Y-143399849D02*
X167070000Y-143399849D01*
X169850000Y-143439849D02*
X167085000Y-143439849D01*
X169850000Y-143479849D02*
X167101000Y-143479849D01*
X169850000Y-143519849D02*
X167117000Y-143519849D01*
X169850000Y-143559849D02*
X167133000Y-143559849D01*
X169850000Y-143599849D02*
X167150000Y-143599849D01*
X169850000Y-143639849D02*
X167168000Y-143639849D01*
X169850000Y-143679849D02*
X167186000Y-143679849D01*
X169850000Y-143719849D02*
X167205000Y-143719849D01*
X169850000Y-143759849D02*
X167224000Y-143759849D01*
X169850000Y-143799849D02*
X167244000Y-143799849D01*
X169850000Y-143839849D02*
X167264000Y-143839849D01*
X169850000Y-143879849D02*
X167285000Y-143879849D01*
X169850000Y-143919849D02*
X167306000Y-143919849D01*
X169850000Y-143959849D02*
X167328000Y-143959849D01*
X169850000Y-143999849D02*
X167351000Y-143999849D01*
X169850000Y-144039849D02*
X167374000Y-144039849D01*
X169850000Y-144079849D02*
X167397000Y-144079849D01*
X169850000Y-144119849D02*
X167422000Y-144119849D01*
X169850000Y-144159849D02*
X167447000Y-144159849D01*
X169850000Y-144199849D02*
X167472000Y-144199849D01*
X169850000Y-144239849D02*
X167498000Y-144239849D01*
X169850000Y-144279849D02*
X167525000Y-144279849D01*
X169850000Y-144319849D02*
X167553000Y-144319849D01*
X169850000Y-144359849D02*
X167581000Y-144359849D01*
X169850000Y-144399849D02*
X167610000Y-144399849D01*
X169850000Y-144439849D02*
X167640000Y-144439849D01*
X169850000Y-144479849D02*
X167671000Y-144479849D01*
X169850000Y-144519849D02*
X167702000Y-144519849D01*
X169850000Y-144559849D02*
X167734000Y-144559849D01*
X169850000Y-144599849D02*
X167767000Y-144599849D01*
X169850000Y-144639849D02*
X167801000Y-144639849D01*
X169850000Y-144679849D02*
X167835000Y-144679849D01*
X169850000Y-144719849D02*
X167871000Y-144719849D01*
X171423000Y-146039849D02*
X170357000Y-146039849D01*
X171658000Y-145999849D02*
X170122000Y-145999849D01*
X171837000Y-145959849D02*
X169943000Y-145959849D01*
X171987000Y-145919849D02*
X169793000Y-145919849D01*
X172118000Y-145879849D02*
X169662000Y-145879849D01*
X172236000Y-145839849D02*
X169544000Y-145839849D01*
X172343000Y-145799849D02*
X169437000Y-145799849D01*
X172442000Y-145759849D02*
X169338000Y-145759849D01*
X172534000Y-145719849D02*
X169246000Y-145719849D01*
X172621000Y-145679849D02*
X169159000Y-145679849D01*
X172703000Y-145639849D02*
X169077000Y-145639849D01*
X172780000Y-145599849D02*
X169000000Y-145599849D01*
X172854000Y-145559849D02*
X168926000Y-145559849D01*
X172924000Y-145519849D02*
X168856000Y-145519849D01*
X172991000Y-145479849D02*
X168789000Y-145479849D01*
X173055000Y-145439849D02*
X168725000Y-145439849D01*
X173117000Y-145399849D02*
X168663000Y-145399849D01*
X173177000Y-145359849D02*
X168603000Y-145359849D01*
X173205000Y-137550151D02*
X173205000Y-138350151D01*
X173234000Y-145319849D02*
X168546000Y-145319849D01*
X173290000Y-145279849D02*
X168490000Y-145279849D01*
X173343000Y-145239849D02*
X168437000Y-145239849D01*
X173395000Y-145199849D02*
X168385000Y-145199849D01*
X173445000Y-145159849D02*
X168335000Y-145159849D01*
X173494000Y-145119849D02*
X168286000Y-145119849D01*
X173541000Y-145079849D02*
X168239000Y-145079849D01*
X173586000Y-145039849D02*
X168194000Y-145039849D01*
X173605000Y-137950151D02*
X172805000Y-137950151D01*
X173631000Y-144999849D02*
X168149000Y-144999849D01*
X173674000Y-144959849D02*
X168106000Y-144959849D01*
X173716000Y-144919849D02*
X168064000Y-144919849D01*
X173757000Y-144879849D02*
X168023000Y-144879849D01*
X173796000Y-144839849D02*
X167984000Y-144839849D01*
X173835000Y-144799849D02*
X167945000Y-144799849D01*
X173872000Y-144759849D02*
X167908000Y-144759849D01*
X173909000Y-144719849D02*
X171930000Y-144719849D01*
X173945000Y-144679849D02*
X171930000Y-144679849D01*
X173979000Y-144639849D02*
X171930000Y-144639849D01*
X174013000Y-144599849D02*
X171930000Y-144599849D01*
X174046000Y-144559849D02*
X171930000Y-144559849D01*
X174078000Y-144519849D02*
X171930000Y-144519849D01*
X174109000Y-144479849D02*
X171930000Y-144479849D01*
X174140000Y-144439849D02*
X171930000Y-144439849D01*
X174170000Y-144399849D02*
X171930000Y-144399849D01*
X174199000Y-144359849D02*
X171930000Y-144359849D01*
X174227000Y-144319849D02*
X171930000Y-144319849D01*
X174255000Y-144279849D02*
X171930000Y-144279849D01*
X174282000Y-144239849D02*
X171930000Y-144239849D01*
X174308000Y-144199849D02*
X171930000Y-144199849D01*
X174333000Y-144159849D02*
X171930000Y-144159849D01*
X174358000Y-144119849D02*
X171930000Y-144119849D01*
X174383000Y-144079849D02*
X171930000Y-144079849D01*
X174406000Y-144039849D02*
X171930000Y-144039849D01*
X174429000Y-143999849D02*
X171930000Y-143999849D01*
X174452000Y-143959849D02*
X171930000Y-143959849D01*
X174474000Y-143919849D02*
X171930000Y-143919849D01*
X174495000Y-143879849D02*
X171930000Y-143879849D01*
X174516000Y-143839849D02*
X171930000Y-143839849D01*
X174536000Y-143799849D02*
X171930000Y-143799849D01*
X174556000Y-143759849D02*
X171930000Y-143759849D01*
X174575000Y-143719849D02*
X171930000Y-143719849D01*
X174594000Y-143679849D02*
X171930000Y-143679849D01*
X174612000Y-143639849D02*
X171930000Y-143639849D01*
X174630000Y-143599849D02*
X171930000Y-143599849D01*
X174647000Y-143559849D02*
X171930000Y-143559849D01*
X174663000Y-143519849D02*
X171930000Y-143519849D01*
X174679000Y-143479849D02*
X171930000Y-143479849D01*
X174695000Y-143439849D02*
X171930000Y-143439849D01*
X174710000Y-143399849D02*
X171930000Y-143399849D01*
X174725000Y-143359849D02*
X171930000Y-143359849D01*
X174739000Y-143319849D02*
X171930000Y-143319849D01*
X174753000Y-143279849D02*
X171930000Y-143279849D01*
X174766000Y-143239849D02*
X171930000Y-143239849D01*
X174779000Y-143199849D02*
X171930000Y-143199849D01*
X174791000Y-143159849D02*
X171930000Y-143159849D01*
X174803000Y-143119849D02*
X171930000Y-143119849D01*
X174815000Y-143079849D02*
X171930000Y-143079849D01*
X174826000Y-143039849D02*
X171930000Y-143039849D01*
X174837000Y-142999849D02*
X171930000Y-142999849D01*
X174847000Y-142959849D02*
X171930000Y-142959849D01*
X174857000Y-142919849D02*
X171930000Y-142919849D01*
X174866000Y-142879849D02*
X171930000Y-142879849D01*
X174875000Y-142839849D02*
X171930000Y-142839849D01*
X174883000Y-142799849D02*
X171930000Y-142799849D01*
X174892000Y-142759849D02*
X171930000Y-142759849D01*
X174899000Y-142719849D02*
X171930000Y-142719849D01*
X174907000Y-142679849D02*
X171930000Y-142679849D01*
X174913000Y-142639849D02*
X166867000Y-142639849D01*
X174920000Y-142599849D02*
X166860000Y-142599849D01*
X174926000Y-142559849D02*
X166854000Y-142559849D01*
X174932000Y-142519849D02*
X166848000Y-142519849D01*
X174937000Y-142479849D02*
X166843000Y-142479849D01*
X174942000Y-142439849D02*
X166838000Y-142439849D01*
X174946000Y-142399849D02*
X166834000Y-142399849D01*
X174951000Y-142359849D02*
X166829000Y-142359849D01*
X174954000Y-142319849D02*
X166826000Y-142319849D01*
X174958000Y-142279849D02*
X166822000Y-142279849D01*
X174960000Y-142239849D02*
X166820000Y-142239849D01*
X174963000Y-142199849D02*
X166817000Y-142199849D01*
X174965000Y-142159849D02*
X166815000Y-142159849D01*
X174967000Y-142119849D02*
X166813000Y-142119849D01*
X174968000Y-142079849D02*
X166812000Y-142079849D01*
X174969000Y-142039849D02*
X166811000Y-142039849D01*
X174970000Y-141959849D02*
X166810000Y-141959849D01*
X174970000Y-141999849D02*
X166810000Y-141999849D01*
X175010000Y-141959849D02*
G75*
G02*
X166770000Y-141959849I-4120000J0D01*
G01*
X166770000Y-141959849D02*
G75*
G02*
X175010000Y-141959849I4120000J0D01*
G01*
%TO.C,Cf1*%
X191960000Y-137720000D02*
X188983000Y-137720000D01*
X191960000Y-137760000D02*
X188991000Y-137760000D01*
X191960000Y-137800000D02*
X188998000Y-137800000D01*
X191960000Y-137840000D02*
X189007000Y-137840000D01*
X191960000Y-137880000D02*
X189015000Y-137880000D01*
X191960000Y-137920000D02*
X189024000Y-137920000D01*
X191960000Y-137960000D02*
X189033000Y-137960000D01*
X191960000Y-138000000D02*
X189043000Y-138000000D01*
X191960000Y-138040000D02*
X189053000Y-138040000D01*
X191960000Y-138080000D02*
X189064000Y-138080000D01*
X191960000Y-138120000D02*
X189075000Y-138120000D01*
X191960000Y-138160000D02*
X189087000Y-138160000D01*
X191960000Y-138200000D02*
X189099000Y-138200000D01*
X191960000Y-138240000D02*
X189111000Y-138240000D01*
X191960000Y-138280000D02*
X189124000Y-138280000D01*
X191960000Y-138320000D02*
X189137000Y-138320000D01*
X191960000Y-138360000D02*
X189151000Y-138360000D01*
X191960000Y-138400000D02*
X189165000Y-138400000D01*
X191960000Y-138440000D02*
X189180000Y-138440000D01*
X191960000Y-138480000D02*
X189195000Y-138480000D01*
X191960000Y-138520000D02*
X189211000Y-138520000D01*
X191960000Y-138560000D02*
X189227000Y-138560000D01*
X191960000Y-138600000D02*
X189243000Y-138600000D01*
X191960000Y-138640000D02*
X189260000Y-138640000D01*
X191960000Y-138680000D02*
X189278000Y-138680000D01*
X191960000Y-138720000D02*
X189296000Y-138720000D01*
X191960000Y-138760000D02*
X189315000Y-138760000D01*
X191960000Y-138800000D02*
X189334000Y-138800000D01*
X191960000Y-138840000D02*
X189354000Y-138840000D01*
X191960000Y-138880000D02*
X189374000Y-138880000D01*
X191960000Y-138920000D02*
X189395000Y-138920000D01*
X191960000Y-138960000D02*
X189416000Y-138960000D01*
X191960000Y-139000000D02*
X189438000Y-139000000D01*
X191960000Y-139040000D02*
X189461000Y-139040000D01*
X191960000Y-139080000D02*
X189484000Y-139080000D01*
X191960000Y-139120000D02*
X189507000Y-139120000D01*
X191960000Y-139160000D02*
X189532000Y-139160000D01*
X191960000Y-139200000D02*
X189557000Y-139200000D01*
X191960000Y-139240000D02*
X189582000Y-139240000D01*
X191960000Y-139280000D02*
X189608000Y-139280000D01*
X191960000Y-139320000D02*
X189635000Y-139320000D01*
X191960000Y-139360000D02*
X189663000Y-139360000D01*
X191960000Y-139400000D02*
X189691000Y-139400000D01*
X191960000Y-139440000D02*
X189720000Y-139440000D01*
X191960000Y-139480000D02*
X189750000Y-139480000D01*
X191960000Y-139520000D02*
X189781000Y-139520000D01*
X191960000Y-139560000D02*
X189812000Y-139560000D01*
X191960000Y-139600000D02*
X189844000Y-139600000D01*
X191960000Y-139640000D02*
X189877000Y-139640000D01*
X191960000Y-139680000D02*
X189911000Y-139680000D01*
X191960000Y-139720000D02*
X189945000Y-139720000D01*
X191960000Y-139760000D02*
X189981000Y-139760000D01*
X193533000Y-141080000D02*
X192467000Y-141080000D01*
X193768000Y-141040000D02*
X192232000Y-141040000D01*
X193947000Y-141000000D02*
X192053000Y-141000000D01*
X194097000Y-140960000D02*
X191903000Y-140960000D01*
X194228000Y-140920000D02*
X191772000Y-140920000D01*
X194346000Y-140880000D02*
X191654000Y-140880000D01*
X194453000Y-140840000D02*
X191547000Y-140840000D01*
X194552000Y-140800000D02*
X191448000Y-140800000D01*
X194644000Y-140760000D02*
X191356000Y-140760000D01*
X194731000Y-140720000D02*
X191269000Y-140720000D01*
X194813000Y-140680000D02*
X191187000Y-140680000D01*
X194890000Y-140640000D02*
X191110000Y-140640000D01*
X194964000Y-140600000D02*
X191036000Y-140600000D01*
X195034000Y-140560000D02*
X190966000Y-140560000D01*
X195101000Y-140520000D02*
X190899000Y-140520000D01*
X195165000Y-140480000D02*
X190835000Y-140480000D01*
X195227000Y-140440000D02*
X190773000Y-140440000D01*
X195287000Y-140400000D02*
X190713000Y-140400000D01*
X195315000Y-132590302D02*
X195315000Y-133390302D01*
X195344000Y-140360000D02*
X190656000Y-140360000D01*
X195400000Y-140320000D02*
X190600000Y-140320000D01*
X195453000Y-140280000D02*
X190547000Y-140280000D01*
X195505000Y-140240000D02*
X190495000Y-140240000D01*
X195555000Y-140200000D02*
X190445000Y-140200000D01*
X195604000Y-140160000D02*
X190396000Y-140160000D01*
X195651000Y-140120000D02*
X190349000Y-140120000D01*
X195696000Y-140080000D02*
X190304000Y-140080000D01*
X195715000Y-132990302D02*
X194915000Y-132990302D01*
X195741000Y-140040000D02*
X190259000Y-140040000D01*
X195784000Y-140000000D02*
X190216000Y-140000000D01*
X195826000Y-139960000D02*
X190174000Y-139960000D01*
X195867000Y-139920000D02*
X190133000Y-139920000D01*
X195906000Y-139880000D02*
X190094000Y-139880000D01*
X195945000Y-139840000D02*
X190055000Y-139840000D01*
X195982000Y-139800000D02*
X190018000Y-139800000D01*
X196019000Y-139760000D02*
X194040000Y-139760000D01*
X196055000Y-139720000D02*
X194040000Y-139720000D01*
X196089000Y-139680000D02*
X194040000Y-139680000D01*
X196123000Y-139640000D02*
X194040000Y-139640000D01*
X196156000Y-139600000D02*
X194040000Y-139600000D01*
X196188000Y-139560000D02*
X194040000Y-139560000D01*
X196219000Y-139520000D02*
X194040000Y-139520000D01*
X196250000Y-139480000D02*
X194040000Y-139480000D01*
X196280000Y-139440000D02*
X194040000Y-139440000D01*
X196309000Y-139400000D02*
X194040000Y-139400000D01*
X196337000Y-139360000D02*
X194040000Y-139360000D01*
X196365000Y-139320000D02*
X194040000Y-139320000D01*
X196392000Y-139280000D02*
X194040000Y-139280000D01*
X196418000Y-139240000D02*
X194040000Y-139240000D01*
X196443000Y-139200000D02*
X194040000Y-139200000D01*
X196468000Y-139160000D02*
X194040000Y-139160000D01*
X196493000Y-139120000D02*
X194040000Y-139120000D01*
X196516000Y-139080000D02*
X194040000Y-139080000D01*
X196539000Y-139040000D02*
X194040000Y-139040000D01*
X196562000Y-139000000D02*
X194040000Y-139000000D01*
X196584000Y-138960000D02*
X194040000Y-138960000D01*
X196605000Y-138920000D02*
X194040000Y-138920000D01*
X196626000Y-138880000D02*
X194040000Y-138880000D01*
X196646000Y-138840000D02*
X194040000Y-138840000D01*
X196666000Y-138800000D02*
X194040000Y-138800000D01*
X196685000Y-138760000D02*
X194040000Y-138760000D01*
X196704000Y-138720000D02*
X194040000Y-138720000D01*
X196722000Y-138680000D02*
X194040000Y-138680000D01*
X196740000Y-138640000D02*
X194040000Y-138640000D01*
X196757000Y-138600000D02*
X194040000Y-138600000D01*
X196773000Y-138560000D02*
X194040000Y-138560000D01*
X196789000Y-138520000D02*
X194040000Y-138520000D01*
X196805000Y-138480000D02*
X194040000Y-138480000D01*
X196820000Y-138440000D02*
X194040000Y-138440000D01*
X196835000Y-138400000D02*
X194040000Y-138400000D01*
X196849000Y-138360000D02*
X194040000Y-138360000D01*
X196863000Y-138320000D02*
X194040000Y-138320000D01*
X196876000Y-138280000D02*
X194040000Y-138280000D01*
X196889000Y-138240000D02*
X194040000Y-138240000D01*
X196901000Y-138200000D02*
X194040000Y-138200000D01*
X196913000Y-138160000D02*
X194040000Y-138160000D01*
X196925000Y-138120000D02*
X194040000Y-138120000D01*
X196936000Y-138080000D02*
X194040000Y-138080000D01*
X196947000Y-138040000D02*
X194040000Y-138040000D01*
X196957000Y-138000000D02*
X194040000Y-138000000D01*
X196967000Y-137960000D02*
X194040000Y-137960000D01*
X196976000Y-137920000D02*
X194040000Y-137920000D01*
X196985000Y-137880000D02*
X194040000Y-137880000D01*
X196993000Y-137840000D02*
X194040000Y-137840000D01*
X197002000Y-137800000D02*
X194040000Y-137800000D01*
X197009000Y-137760000D02*
X194040000Y-137760000D01*
X197017000Y-137720000D02*
X194040000Y-137720000D01*
X197023000Y-137680000D02*
X188977000Y-137680000D01*
X197030000Y-137640000D02*
X188970000Y-137640000D01*
X197036000Y-137600000D02*
X188964000Y-137600000D01*
X197042000Y-137560000D02*
X188958000Y-137560000D01*
X197047000Y-137520000D02*
X188953000Y-137520000D01*
X197052000Y-137480000D02*
X188948000Y-137480000D01*
X197056000Y-137440000D02*
X188944000Y-137440000D01*
X197061000Y-137400000D02*
X188939000Y-137400000D01*
X197064000Y-137360000D02*
X188936000Y-137360000D01*
X197068000Y-137320000D02*
X188932000Y-137320000D01*
X197070000Y-137280000D02*
X188930000Y-137280000D01*
X197073000Y-137240000D02*
X188927000Y-137240000D01*
X197075000Y-137200000D02*
X188925000Y-137200000D01*
X197077000Y-137160000D02*
X188923000Y-137160000D01*
X197078000Y-137120000D02*
X188922000Y-137120000D01*
X197079000Y-137080000D02*
X188921000Y-137080000D01*
X197080000Y-137000000D02*
X188920000Y-137000000D01*
X197080000Y-137040000D02*
X188920000Y-137040000D01*
X197120000Y-137000000D02*
G75*
G02*
X188880000Y-137000000I-4120000J0D01*
G01*
X188880000Y-137000000D02*
G75*
G02*
X197120000Y-137000000I4120000J0D01*
G01*
%TO.C,Furo3*%
X144890000Y-89652500D02*
X144890000Y-92962500D01*
X144890000Y-102812500D02*
X144890000Y-99502500D01*
X146260000Y-92962500D02*
X143520000Y-92962500D01*
X143520000Y-99502500D01*
X146260000Y-99502500D01*
X146260000Y-92962500D01*
%TO.C,U5*%
X143602874Y-130462500D02*
X143602874Y-132112500D01*
X143602874Y-134112500D02*
X143602874Y-135762500D01*
X143602874Y-135762500D02*
X153882874Y-135762500D01*
X153882874Y-130462500D02*
X143602874Y-130462500D01*
X153882874Y-135762500D02*
X153882874Y-130462500D01*
X143542874Y-138252500D02*
X153942874Y-138252500D01*
X153942874Y-127972500D01*
X143542874Y-127972500D01*
X143542874Y-138252500D01*
X143602874Y-132112500D02*
G75*
G02*
X143602874Y-134112500I0J-1000000D01*
G01*
%TO.C,Cv1*%
X173410000Y-135950000D02*
X172179000Y-135950000D01*
X173410000Y-135990000D02*
X172184000Y-135990000D01*
X173410000Y-136030000D02*
X172189000Y-136030000D01*
X173410000Y-136070000D02*
X172194000Y-136070000D01*
X173410000Y-136110000D02*
X172201000Y-136110000D01*
X173410000Y-136150000D02*
X172208000Y-136150000D01*
X173410000Y-136190000D02*
X172216000Y-136190000D01*
X173410000Y-136230000D02*
X172225000Y-136230000D01*
X173410000Y-136270000D02*
X172235000Y-136270000D01*
X173410000Y-136310000D02*
X172245000Y-136310000D01*
X173410000Y-136350000D02*
X172257000Y-136350000D01*
X173410000Y-136390000D02*
X172269000Y-136390000D01*
X173410000Y-136430000D02*
X172282000Y-136430000D01*
X173410000Y-136470000D02*
X172296000Y-136470000D01*
X173410000Y-136510000D02*
X172311000Y-136510000D01*
X173410000Y-136550000D02*
X172327000Y-136550000D01*
X173410000Y-136590000D02*
X172344000Y-136590000D01*
X173410000Y-136630000D02*
X172361000Y-136630000D01*
X173410000Y-136670000D02*
X172380000Y-136670000D01*
X173410000Y-136710000D02*
X172400000Y-136710000D01*
X173410000Y-136750000D02*
X172421000Y-136750000D01*
X173410000Y-136790000D02*
X172443000Y-136790000D01*
X173410000Y-136830000D02*
X172466000Y-136830000D01*
X173410000Y-136870000D02*
X172490000Y-136870000D01*
X173410000Y-136910000D02*
X172516000Y-136910000D01*
X173410000Y-136950000D02*
X172542000Y-136950000D01*
X173410000Y-136990000D02*
X172570000Y-136990000D01*
X173410000Y-137030000D02*
X172600000Y-137030000D01*
X173410000Y-137070000D02*
X172631000Y-137070000D01*
X173410000Y-137110000D02*
X172664000Y-137110000D01*
X173410000Y-137150000D02*
X172698000Y-137150000D01*
X173410000Y-137190000D02*
X172734000Y-137190000D01*
X173410000Y-137230000D02*
X172772000Y-137230000D01*
X173410000Y-137270000D02*
X172812000Y-137270000D01*
X173410000Y-137310000D02*
X172854000Y-137310000D01*
X173410000Y-137350000D02*
X172899000Y-137350000D01*
X173410000Y-137390000D02*
X172947000Y-137390000D01*
X173410000Y-137430000D02*
X172997000Y-137430000D01*
X173410000Y-137470000D02*
X173051000Y-137470000D01*
X173410000Y-137510000D02*
X173108000Y-137510000D01*
X173410000Y-137550000D02*
X173170000Y-137550000D01*
X174620000Y-137830000D02*
X173880000Y-137830000D01*
X174787000Y-137790000D02*
X173713000Y-137790000D01*
X174913000Y-137750000D02*
X173587000Y-137750000D01*
X175018000Y-137710000D02*
X173482000Y-137710000D01*
X175109000Y-137670000D02*
X173391000Y-137670000D01*
X175190000Y-137630000D02*
X173310000Y-137630000D01*
X175263000Y-137590000D02*
X173237000Y-137590000D01*
X175330000Y-137550000D02*
X175090000Y-137550000D01*
X175392000Y-137510000D02*
X175090000Y-137510000D01*
X175445000Y-133480199D02*
X175445000Y-133880199D01*
X175449000Y-137470000D02*
X175090000Y-137470000D01*
X175503000Y-137430000D02*
X175090000Y-137430000D01*
X175553000Y-137390000D02*
X175090000Y-137390000D01*
X175601000Y-137350000D02*
X175090000Y-137350000D01*
X175645000Y-133680199D02*
X175245000Y-133680199D01*
X175646000Y-137310000D02*
X175090000Y-137310000D01*
X175688000Y-137270000D02*
X175090000Y-137270000D01*
X175728000Y-137230000D02*
X175090000Y-137230000D01*
X175766000Y-137190000D02*
X175090000Y-137190000D01*
X175802000Y-137150000D02*
X175090000Y-137150000D01*
X175836000Y-137110000D02*
X175090000Y-137110000D01*
X175869000Y-137070000D02*
X175090000Y-137070000D01*
X175900000Y-137030000D02*
X175090000Y-137030000D01*
X175930000Y-136990000D02*
X175090000Y-136990000D01*
X175958000Y-136950000D02*
X175090000Y-136950000D01*
X175984000Y-136910000D02*
X175090000Y-136910000D01*
X176010000Y-136870000D02*
X175090000Y-136870000D01*
X176034000Y-136830000D02*
X175090000Y-136830000D01*
X176057000Y-136790000D02*
X175090000Y-136790000D01*
X176079000Y-136750000D02*
X175090000Y-136750000D01*
X176100000Y-136710000D02*
X175090000Y-136710000D01*
X176120000Y-136670000D02*
X175090000Y-136670000D01*
X176139000Y-136630000D02*
X175090000Y-136630000D01*
X176156000Y-136590000D02*
X175090000Y-136590000D01*
X176173000Y-136550000D02*
X175090000Y-136550000D01*
X176189000Y-136510000D02*
X175090000Y-136510000D01*
X176204000Y-136470000D02*
X175090000Y-136470000D01*
X176218000Y-136430000D02*
X175090000Y-136430000D01*
X176231000Y-136390000D02*
X175090000Y-136390000D01*
X176243000Y-136350000D02*
X175090000Y-136350000D01*
X176255000Y-136310000D02*
X175090000Y-136310000D01*
X176265000Y-136270000D02*
X175090000Y-136270000D01*
X176275000Y-136230000D02*
X175090000Y-136230000D01*
X176284000Y-136190000D02*
X175090000Y-136190000D01*
X176292000Y-136150000D02*
X175090000Y-136150000D01*
X176299000Y-136110000D02*
X175090000Y-136110000D01*
X176306000Y-136070000D02*
X175090000Y-136070000D01*
X176311000Y-136030000D02*
X175090000Y-136030000D01*
X176316000Y-135990000D02*
X175090000Y-135990000D01*
X176321000Y-135950000D02*
X175090000Y-135950000D01*
X176324000Y-135910000D02*
X172176000Y-135910000D01*
X176327000Y-135870000D02*
X172173000Y-135870000D01*
X176328000Y-135830000D02*
X172172000Y-135830000D01*
X176330000Y-135750000D02*
X172170000Y-135750000D01*
X176330000Y-135790000D02*
X172170000Y-135790000D01*
X176370000Y-135750000D02*
G75*
G02*
X172130000Y-135750000I-2120000J0D01*
G01*
X172130000Y-135750000D02*
G75*
G02*
X176370000Y-135750000I2120000J0D01*
G01*
%TO.C,Rfmos1*%
X174620000Y-87930000D02*
X174620000Y-88260000D01*
X174620000Y-90670000D02*
X174620000Y-90340000D01*
X181160000Y-87930000D02*
X174620000Y-87930000D01*
X181160000Y-88260000D02*
X181160000Y-87930000D01*
X181160000Y-90340000D02*
X181160000Y-90670000D01*
X181160000Y-90670000D02*
X174620000Y-90670000D01*
%TO.C,Furo4*%
X151890000Y-94652500D02*
X151890000Y-95422500D01*
X151890000Y-102732500D02*
X151890000Y-101962500D01*
X150520000Y-101962500D02*
X153260000Y-101962500D01*
X153260000Y-95422500D01*
X150520000Y-95422500D01*
X150520000Y-101962500D01*
%TO.C,J3*%
X198450000Y-130900000D02*
X198450000Y-132200000D01*
X198750000Y-131200000D02*
X200750000Y-131200000D01*
X198750000Y-145700000D02*
X198750000Y-131200000D01*
X200150000Y-130900000D02*
X198450000Y-130900000D01*
X205950000Y-131200000D02*
X207950000Y-131200000D01*
X207950000Y-131200000D02*
X207950000Y-132500000D01*
X207950000Y-137100000D02*
X207950000Y-145700000D01*
X207950000Y-145700000D02*
X198750000Y-145700000D01*
%TO.C,RV1*%
X140085000Y-139470000D02*
X140085000Y-144520000D01*
X130335000Y-139470000D02*
X140085000Y-139470000D01*
X140085000Y-144520000D02*
X130335000Y-144520000D01*
X130335000Y-144520000D02*
X130335000Y-139470000D01*
%TO.C,Rfin1*%
X120380000Y-99250000D02*
X121150000Y-99250000D01*
X128460000Y-99250000D02*
X127690000Y-99250000D01*
X121150000Y-97880000D02*
X127690000Y-97880000D01*
X127690000Y-100620000D01*
X121150000Y-100620000D01*
X121150000Y-97880000D01*
%TO.C,Cfmos1*%
X157060000Y-91770000D02*
X154083000Y-91770000D01*
X157060000Y-91810000D02*
X154091000Y-91810000D01*
X157060000Y-91850000D02*
X154098000Y-91850000D01*
X157060000Y-91890000D02*
X154107000Y-91890000D01*
X157060000Y-91930000D02*
X154115000Y-91930000D01*
X157060000Y-91970000D02*
X154124000Y-91970000D01*
X157060000Y-92010000D02*
X154133000Y-92010000D01*
X157060000Y-92050000D02*
X154143000Y-92050000D01*
X157060000Y-92090000D02*
X154153000Y-92090000D01*
X157060000Y-92130000D02*
X154164000Y-92130000D01*
X157060000Y-92170000D02*
X154175000Y-92170000D01*
X157060000Y-92210000D02*
X154187000Y-92210000D01*
X157060000Y-92250000D02*
X154199000Y-92250000D01*
X157060000Y-92290000D02*
X154211000Y-92290000D01*
X157060000Y-92330000D02*
X154224000Y-92330000D01*
X157060000Y-92370000D02*
X154237000Y-92370000D01*
X157060000Y-92410000D02*
X154251000Y-92410000D01*
X157060000Y-92450000D02*
X154265000Y-92450000D01*
X157060000Y-92490000D02*
X154280000Y-92490000D01*
X157060000Y-92530000D02*
X154295000Y-92530000D01*
X157060000Y-92570000D02*
X154311000Y-92570000D01*
X157060000Y-92610000D02*
X154327000Y-92610000D01*
X157060000Y-92650000D02*
X154343000Y-92650000D01*
X157060000Y-92690000D02*
X154360000Y-92690000D01*
X157060000Y-92730000D02*
X154378000Y-92730000D01*
X157060000Y-92770000D02*
X154396000Y-92770000D01*
X157060000Y-92810000D02*
X154415000Y-92810000D01*
X157060000Y-92850000D02*
X154434000Y-92850000D01*
X157060000Y-92890000D02*
X154454000Y-92890000D01*
X157060000Y-92930000D02*
X154474000Y-92930000D01*
X157060000Y-92970000D02*
X154495000Y-92970000D01*
X157060000Y-93010000D02*
X154516000Y-93010000D01*
X157060000Y-93050000D02*
X154538000Y-93050000D01*
X157060000Y-93090000D02*
X154561000Y-93090000D01*
X157060000Y-93130000D02*
X154584000Y-93130000D01*
X157060000Y-93170000D02*
X154607000Y-93170000D01*
X157060000Y-93210000D02*
X154632000Y-93210000D01*
X157060000Y-93250000D02*
X154657000Y-93250000D01*
X157060000Y-93290000D02*
X154682000Y-93290000D01*
X157060000Y-93330000D02*
X154708000Y-93330000D01*
X157060000Y-93370000D02*
X154735000Y-93370000D01*
X157060000Y-93410000D02*
X154763000Y-93410000D01*
X157060000Y-93450000D02*
X154791000Y-93450000D01*
X157060000Y-93490000D02*
X154820000Y-93490000D01*
X157060000Y-93530000D02*
X154850000Y-93530000D01*
X157060000Y-93570000D02*
X154881000Y-93570000D01*
X157060000Y-93610000D02*
X154912000Y-93610000D01*
X157060000Y-93650000D02*
X154944000Y-93650000D01*
X157060000Y-93690000D02*
X154977000Y-93690000D01*
X157060000Y-93730000D02*
X155011000Y-93730000D01*
X157060000Y-93770000D02*
X155045000Y-93770000D01*
X157060000Y-93810000D02*
X155081000Y-93810000D01*
X158633000Y-95130000D02*
X157567000Y-95130000D01*
X158868000Y-95090000D02*
X157332000Y-95090000D01*
X159047000Y-95050000D02*
X157153000Y-95050000D01*
X159197000Y-95010000D02*
X157003000Y-95010000D01*
X159328000Y-94970000D02*
X156872000Y-94970000D01*
X159446000Y-94930000D02*
X156754000Y-94930000D01*
X159553000Y-94890000D02*
X156647000Y-94890000D01*
X159652000Y-94850000D02*
X156548000Y-94850000D01*
X159744000Y-94810000D02*
X156456000Y-94810000D01*
X159831000Y-94770000D02*
X156369000Y-94770000D01*
X159913000Y-94730000D02*
X156287000Y-94730000D01*
X159990000Y-94690000D02*
X156210000Y-94690000D01*
X160064000Y-94650000D02*
X156136000Y-94650000D01*
X160134000Y-94610000D02*
X156066000Y-94610000D01*
X160201000Y-94570000D02*
X155999000Y-94570000D01*
X160265000Y-94530000D02*
X155935000Y-94530000D01*
X160327000Y-94490000D02*
X155873000Y-94490000D01*
X160387000Y-94450000D02*
X155813000Y-94450000D01*
X160415000Y-86640302D02*
X160415000Y-87440302D01*
X160444000Y-94410000D02*
X155756000Y-94410000D01*
X160500000Y-94370000D02*
X155700000Y-94370000D01*
X160553000Y-94330000D02*
X155647000Y-94330000D01*
X160605000Y-94290000D02*
X155595000Y-94290000D01*
X160655000Y-94250000D02*
X155545000Y-94250000D01*
X160704000Y-94210000D02*
X155496000Y-94210000D01*
X160751000Y-94170000D02*
X155449000Y-94170000D01*
X160796000Y-94130000D02*
X155404000Y-94130000D01*
X160815000Y-87040302D02*
X160015000Y-87040302D01*
X160841000Y-94090000D02*
X155359000Y-94090000D01*
X160884000Y-94050000D02*
X155316000Y-94050000D01*
X160926000Y-94010000D02*
X155274000Y-94010000D01*
X160967000Y-93970000D02*
X155233000Y-93970000D01*
X161006000Y-93930000D02*
X155194000Y-93930000D01*
X161045000Y-93890000D02*
X155155000Y-93890000D01*
X161082000Y-93850000D02*
X155118000Y-93850000D01*
X161119000Y-93810000D02*
X159140000Y-93810000D01*
X161155000Y-93770000D02*
X159140000Y-93770000D01*
X161189000Y-93730000D02*
X159140000Y-93730000D01*
X161223000Y-93690000D02*
X159140000Y-93690000D01*
X161256000Y-93650000D02*
X159140000Y-93650000D01*
X161288000Y-93610000D02*
X159140000Y-93610000D01*
X161319000Y-93570000D02*
X159140000Y-93570000D01*
X161350000Y-93530000D02*
X159140000Y-93530000D01*
X161380000Y-93490000D02*
X159140000Y-93490000D01*
X161409000Y-93450000D02*
X159140000Y-93450000D01*
X161437000Y-93410000D02*
X159140000Y-93410000D01*
X161465000Y-93370000D02*
X159140000Y-93370000D01*
X161492000Y-93330000D02*
X159140000Y-93330000D01*
X161518000Y-93290000D02*
X159140000Y-93290000D01*
X161543000Y-93250000D02*
X159140000Y-93250000D01*
X161568000Y-93210000D02*
X159140000Y-93210000D01*
X161593000Y-93170000D02*
X159140000Y-93170000D01*
X161616000Y-93130000D02*
X159140000Y-93130000D01*
X161639000Y-93090000D02*
X159140000Y-93090000D01*
X161662000Y-93050000D02*
X159140000Y-93050000D01*
X161684000Y-93010000D02*
X159140000Y-93010000D01*
X161705000Y-92970000D02*
X159140000Y-92970000D01*
X161726000Y-92930000D02*
X159140000Y-92930000D01*
X161746000Y-92890000D02*
X159140000Y-92890000D01*
X161766000Y-92850000D02*
X159140000Y-92850000D01*
X161785000Y-92810000D02*
X159140000Y-92810000D01*
X161804000Y-92770000D02*
X159140000Y-92770000D01*
X161822000Y-92730000D02*
X159140000Y-92730000D01*
X161840000Y-92690000D02*
X159140000Y-92690000D01*
X161857000Y-92650000D02*
X159140000Y-92650000D01*
X161873000Y-92610000D02*
X159140000Y-92610000D01*
X161889000Y-92570000D02*
X159140000Y-92570000D01*
X161905000Y-92530000D02*
X159140000Y-92530000D01*
X161920000Y-92490000D02*
X159140000Y-92490000D01*
X161935000Y-92450000D02*
X159140000Y-92450000D01*
X161949000Y-92410000D02*
X159140000Y-92410000D01*
X161963000Y-92370000D02*
X159140000Y-92370000D01*
X161976000Y-92330000D02*
X159140000Y-92330000D01*
X161989000Y-92290000D02*
X159140000Y-92290000D01*
X162001000Y-92250000D02*
X159140000Y-92250000D01*
X162013000Y-92210000D02*
X159140000Y-92210000D01*
X162025000Y-92170000D02*
X159140000Y-92170000D01*
X162036000Y-92130000D02*
X159140000Y-92130000D01*
X162047000Y-92090000D02*
X159140000Y-92090000D01*
X162057000Y-92050000D02*
X159140000Y-92050000D01*
X162067000Y-92010000D02*
X159140000Y-92010000D01*
X162076000Y-91970000D02*
X159140000Y-91970000D01*
X162085000Y-91930000D02*
X159140000Y-91930000D01*
X162093000Y-91890000D02*
X159140000Y-91890000D01*
X162102000Y-91850000D02*
X159140000Y-91850000D01*
X162109000Y-91810000D02*
X159140000Y-91810000D01*
X162117000Y-91770000D02*
X159140000Y-91770000D01*
X162123000Y-91730000D02*
X154077000Y-91730000D01*
X162130000Y-91690000D02*
X154070000Y-91690000D01*
X162136000Y-91650000D02*
X154064000Y-91650000D01*
X162142000Y-91610000D02*
X154058000Y-91610000D01*
X162147000Y-91570000D02*
X154053000Y-91570000D01*
X162152000Y-91530000D02*
X154048000Y-91530000D01*
X162156000Y-91490000D02*
X154044000Y-91490000D01*
X162161000Y-91450000D02*
X154039000Y-91450000D01*
X162164000Y-91410000D02*
X154036000Y-91410000D01*
X162168000Y-91370000D02*
X154032000Y-91370000D01*
X162170000Y-91330000D02*
X154030000Y-91330000D01*
X162173000Y-91290000D02*
X154027000Y-91290000D01*
X162175000Y-91250000D02*
X154025000Y-91250000D01*
X162177000Y-91210000D02*
X154023000Y-91210000D01*
X162178000Y-91170000D02*
X154022000Y-91170000D01*
X162179000Y-91130000D02*
X154021000Y-91130000D01*
X162180000Y-91050000D02*
X154020000Y-91050000D01*
X162180000Y-91090000D02*
X154020000Y-91090000D01*
X162220000Y-91050000D02*
G75*
G02*
X153980000Y-91050000I-4120000J0D01*
G01*
X153980000Y-91050000D02*
G75*
G02*
X162220000Y-91050000I4120000J0D01*
G01*
%TO.C,A1*%
X188780000Y-78580000D02*
X188300000Y-78580000D01*
X188780000Y-78580000D02*
X188780000Y-79000000D01*
X188780000Y-81120000D02*
X188780000Y-81540000D01*
X188780000Y-83660000D02*
X188780000Y-84080000D01*
X188780000Y-86200000D02*
X188780000Y-86620000D01*
X188780000Y-88740000D02*
X188780000Y-89160000D01*
X188780000Y-91280000D02*
X188780000Y-91700000D01*
X188780000Y-93820000D02*
X188780000Y-94240000D01*
X188780000Y-96360000D02*
X188780000Y-96780000D01*
X188780000Y-98900000D02*
X188780000Y-99320000D01*
X188780000Y-101440000D02*
X188780000Y-101860000D01*
X188780000Y-103980000D02*
X188780000Y-104400000D01*
X188780000Y-106520000D02*
X188780000Y-106940000D01*
X188780000Y-109060000D02*
X188780000Y-109480000D01*
X188780000Y-111600000D02*
X188780000Y-112020000D01*
X188780000Y-114140000D02*
X188780000Y-114560000D01*
X188780000Y-116680000D02*
X188780000Y-117100000D01*
X188780000Y-119220000D02*
X188780000Y-119640000D01*
X188780000Y-121760000D02*
X188780000Y-122180000D01*
X188780000Y-124300000D02*
X188780000Y-124720000D01*
X188810324Y-76460000D02*
X188300000Y-76460000D01*
X189390000Y-76040000D02*
X191880000Y-76040000D01*
X189390000Y-127260000D02*
X193227939Y-127260000D01*
X191880000Y-76040000D02*
X191880000Y-76953520D01*
X191880000Y-76040000D02*
X193227940Y-76040000D01*
X191880000Y-79346480D02*
X191880000Y-123953520D01*
X191880000Y-126346480D02*
X191880000Y-127260000D01*
X194152061Y-76040000D02*
X195155000Y-76040000D01*
X195490000Y-79344000D02*
X195490000Y-80560000D01*
X195790000Y-127260000D02*
X194152061Y-127260000D01*
X203290000Y-79344000D02*
X203290000Y-80560000D01*
X203625000Y-76040000D02*
X204627939Y-76040000D01*
X204627939Y-127260000D02*
X202990000Y-127260000D01*
X205552061Y-76040000D02*
X206900000Y-76040000D01*
X205552061Y-127260000D02*
X209390000Y-127260000D01*
X206900000Y-76040000D02*
X206900000Y-76953520D01*
X206900000Y-79346480D02*
X206900000Y-123953520D01*
X206900000Y-126346480D02*
X206900000Y-127260000D01*
X209390000Y-76040000D02*
X206900000Y-76040000D01*
X210000000Y-78580000D02*
X210000000Y-79000000D01*
X210000000Y-81120000D02*
X210000000Y-81540000D01*
X210000000Y-83660000D02*
X210000000Y-84080000D01*
X210000000Y-86200000D02*
X210000000Y-86620000D01*
X210000000Y-88740000D02*
X210000000Y-89160000D01*
X210000000Y-91280000D02*
X210000000Y-91700000D01*
X210000000Y-93820000D02*
X210000000Y-94240000D01*
X210000000Y-96360000D02*
X210000000Y-96780000D01*
X210000000Y-98900000D02*
X210000000Y-99320000D01*
X210000000Y-101440000D02*
X210000000Y-101860000D01*
X210000000Y-103980000D02*
X210000000Y-104400000D01*
X210000000Y-106520000D02*
X210000000Y-106940000D01*
X210000000Y-109060000D02*
X210000000Y-109480000D01*
X210000000Y-111600000D02*
X210000000Y-112020000D01*
X210000000Y-114140000D02*
X210000000Y-114560000D01*
X210000000Y-116680000D02*
X210000000Y-117100000D01*
X210000000Y-119220000D02*
X210000000Y-119640000D01*
X210000000Y-121760000D02*
X210000000Y-122180000D01*
X210000000Y-124300000D02*
X210000000Y-124720000D01*
X188810324Y-76460000D02*
G75*
G02*
X189390000Y-76040000I579692J-190051D01*
G01*
X209390000Y-76040000D02*
G75*
G02*
X209969676Y-76460063I0J-610000D01*
G01*
%TO.C,RLED1*%
X213500000Y-78040000D02*
X213500000Y-78810000D01*
X213500000Y-86120000D02*
X213500000Y-85350000D01*
X212130000Y-85350000D02*
X214870000Y-85350000D01*
X214870000Y-78810000D01*
X212130000Y-78810000D01*
X212130000Y-85350000D01*
%TO.C,RG10k1*%
X134610000Y-55780000D02*
X134610000Y-56110000D01*
X134610000Y-58520000D02*
X134610000Y-58190000D01*
X141150000Y-55780000D02*
X134610000Y-55780000D01*
X141150000Y-56110000D02*
X141150000Y-55780000D01*
X141150000Y-58190000D02*
X141150000Y-58520000D01*
X141150000Y-58520000D02*
X134610000Y-58520000D01*
%TO.C,Q3*%
X172200000Y-58500000D02*
X175800000Y-58500000D01*
X171643600Y-55551193D02*
G75*
G02*
X174000000Y-54050000I2356400J-1098807D01*
G01*
X172200000Y-58500000D02*
G75*
G02*
X171675816Y-57772795I1800000J1850000D01*
G01*
X174000000Y-54050000D02*
G75*
G02*
X176356400Y-55551193I0J-2600000D01*
G01*
X176324184Y-57772795D02*
G75*
G02*
X175800000Y-58500000I-2324184J1122795D01*
G01*
%TO.C,J2*%
X209420000Y-71145000D02*
X210750000Y-71145000D01*
X209420000Y-72475000D02*
X209420000Y-71145000D01*
X212020000Y-71145000D02*
X214620000Y-71145000D01*
X212020000Y-73805000D02*
X212020000Y-71145000D01*
X212020000Y-73805000D02*
X214620000Y-73805000D01*
X214620000Y-73805000D02*
X214620000Y-71145000D01*
%TO.C,Rf+1*%
X138290000Y-120630000D02*
X138290000Y-120960000D01*
X138290000Y-123370000D02*
X138290000Y-123040000D01*
X144830000Y-120630000D02*
X138290000Y-120630000D01*
X144830000Y-120960000D02*
X144830000Y-120630000D01*
X144830000Y-123040000D02*
X144830000Y-123370000D01*
X144830000Y-123370000D02*
X138290000Y-123370000D01*
%TO.C,Q1*%
X172200000Y-69500000D02*
X175800000Y-69500000D01*
X171643600Y-66551193D02*
G75*
G02*
X174000000Y-65050000I2356400J-1098807D01*
G01*
X172200000Y-69500000D02*
G75*
G02*
X171675816Y-68772795I1800000J1850000D01*
G01*
X174000000Y-65050000D02*
G75*
G02*
X176356400Y-66551193I0J-2600000D01*
G01*
X176324184Y-68772795D02*
G75*
G02*
X175800000Y-69500000I-2324184J1122795D01*
G01*
%TO.C,Rfout1*%
X157520000Y-125652500D02*
X157520000Y-132192500D01*
X157520000Y-132192500D02*
X157850000Y-132192500D01*
X157850000Y-125652500D02*
X157520000Y-125652500D01*
X159930000Y-125652500D02*
X160260000Y-125652500D01*
X160260000Y-125652500D02*
X160260000Y-132192500D01*
X160260000Y-132192500D02*
X159930000Y-132192500D01*
%TO.C,J1*%
X105370000Y-130612500D02*
X106750000Y-130612500D01*
X105370000Y-131992500D02*
X105370000Y-130612500D01*
X105370000Y-133262500D02*
X105370000Y-140992500D01*
X105370000Y-133262500D02*
X108130000Y-133262500D01*
X105370000Y-140992500D02*
X108130000Y-140992500D01*
X108130000Y-133262500D02*
X108130000Y-140992500D01*
%TO.C,K3*%
X125300000Y-65350000D02*
X125300000Y-85150000D01*
X123550000Y-80200000D02*
X123550000Y-77700000D01*
X121700000Y-69600000D02*
X119250000Y-69600000D01*
X121150000Y-74300000D02*
X121150000Y-81100000D01*
X119350000Y-79700000D02*
X115750000Y-79700000D01*
X119350000Y-77700000D02*
X123550000Y-77700000D01*
X119350000Y-75700000D02*
X119350000Y-79700000D01*
X119350000Y-75700000D02*
X115750000Y-79700000D01*
X118700000Y-85150000D02*
X125300000Y-85150000D01*
X117550000Y-81100000D02*
X121150000Y-81100000D01*
X117550000Y-81100000D02*
X117550000Y-81900000D01*
X117550000Y-74300000D02*
X121150000Y-74300000D01*
X117550000Y-74300000D02*
X117550000Y-72800000D01*
X117550000Y-72800000D02*
X115050000Y-68200000D01*
X115750000Y-79700000D02*
X115750000Y-75700000D01*
X115750000Y-75700000D02*
X119350000Y-75700000D01*
X113300000Y-69600000D02*
X115800000Y-69600000D01*
X111550000Y-77700000D02*
X115750000Y-77700000D01*
X111550000Y-77700000D02*
X111550000Y-80200000D01*
X109700000Y-85150000D02*
X116300000Y-85150000D01*
X109700000Y-85150000D02*
X109700000Y-65350000D01*
X109700000Y-65350000D02*
X125300000Y-65350000D01*
%TO.C,Cfin1*%
X134340000Y-102800000D02*
X135571000Y-102800000D01*
X134340000Y-102760000D02*
X135566000Y-102760000D01*
X134340000Y-102720000D02*
X135561000Y-102720000D01*
X134340000Y-102680000D02*
X135556000Y-102680000D01*
X134340000Y-102640000D02*
X135549000Y-102640000D01*
X134340000Y-102600000D02*
X135542000Y-102600000D01*
X134340000Y-102560000D02*
X135534000Y-102560000D01*
X134340000Y-102520000D02*
X135525000Y-102520000D01*
X134340000Y-102480000D02*
X135515000Y-102480000D01*
X134340000Y-102440000D02*
X135505000Y-102440000D01*
X134340000Y-102400000D02*
X135493000Y-102400000D01*
X134340000Y-102360000D02*
X135481000Y-102360000D01*
X134340000Y-102320000D02*
X135468000Y-102320000D01*
X134340000Y-102280000D02*
X135454000Y-102280000D01*
X134340000Y-102240000D02*
X135439000Y-102240000D01*
X134340000Y-102200000D02*
X135423000Y-102200000D01*
X134340000Y-102160000D02*
X135406000Y-102160000D01*
X134340000Y-102120000D02*
X135389000Y-102120000D01*
X134340000Y-102080000D02*
X135370000Y-102080000D01*
X134340000Y-102040000D02*
X135350000Y-102040000D01*
X134340000Y-102000000D02*
X135329000Y-102000000D01*
X134340000Y-101960000D02*
X135307000Y-101960000D01*
X134340000Y-101920000D02*
X135284000Y-101920000D01*
X134340000Y-101880000D02*
X135260000Y-101880000D01*
X134340000Y-101840000D02*
X135234000Y-101840000D01*
X134340000Y-101800000D02*
X135208000Y-101800000D01*
X134340000Y-101760000D02*
X135180000Y-101760000D01*
X134340000Y-101720000D02*
X135150000Y-101720000D01*
X134340000Y-101680000D02*
X135119000Y-101680000D01*
X134340000Y-101640000D02*
X135086000Y-101640000D01*
X134340000Y-101600000D02*
X135052000Y-101600000D01*
X134340000Y-101560000D02*
X135016000Y-101560000D01*
X134340000Y-101520000D02*
X134978000Y-101520000D01*
X134340000Y-101480000D02*
X134938000Y-101480000D01*
X134340000Y-101440000D02*
X134896000Y-101440000D01*
X134340000Y-101400000D02*
X134851000Y-101400000D01*
X134340000Y-101360000D02*
X134803000Y-101360000D01*
X134340000Y-101320000D02*
X134753000Y-101320000D01*
X134340000Y-101280000D02*
X134699000Y-101280000D01*
X134340000Y-101240000D02*
X134642000Y-101240000D01*
X134340000Y-101200000D02*
X134580000Y-101200000D01*
X133130000Y-100920000D02*
X133870000Y-100920000D01*
X132963000Y-100960000D02*
X134037000Y-100960000D01*
X132837000Y-101000000D02*
X134163000Y-101000000D01*
X132732000Y-101040000D02*
X134268000Y-101040000D01*
X132641000Y-101080000D02*
X134359000Y-101080000D01*
X132560000Y-101120000D02*
X134440000Y-101120000D01*
X132487000Y-101160000D02*
X134513000Y-101160000D01*
X132420000Y-101200000D02*
X132660000Y-101200000D01*
X132358000Y-101240000D02*
X132660000Y-101240000D01*
X132305000Y-105269801D02*
X132305000Y-104869801D01*
X132301000Y-101280000D02*
X132660000Y-101280000D01*
X132247000Y-101320000D02*
X132660000Y-101320000D01*
X132197000Y-101360000D02*
X132660000Y-101360000D01*
X132149000Y-101400000D02*
X132660000Y-101400000D01*
X132105000Y-105069801D02*
X132505000Y-105069801D01*
X132104000Y-101440000D02*
X132660000Y-101440000D01*
X132062000Y-101480000D02*
X132660000Y-101480000D01*
X132022000Y-101520000D02*
X132660000Y-101520000D01*
X131984000Y-101560000D02*
X132660000Y-101560000D01*
X131948000Y-101600000D02*
X132660000Y-101600000D01*
X131914000Y-101640000D02*
X132660000Y-101640000D01*
X131881000Y-101680000D02*
X132660000Y-101680000D01*
X131850000Y-101720000D02*
X132660000Y-101720000D01*
X131820000Y-101760000D02*
X132660000Y-101760000D01*
X131792000Y-101800000D02*
X132660000Y-101800000D01*
X131766000Y-101840000D02*
X132660000Y-101840000D01*
X131740000Y-101880000D02*
X132660000Y-101880000D01*
X131716000Y-101920000D02*
X132660000Y-101920000D01*
X131693000Y-101960000D02*
X132660000Y-101960000D01*
X131671000Y-102000000D02*
X132660000Y-102000000D01*
X131650000Y-102040000D02*
X132660000Y-102040000D01*
X131630000Y-102080000D02*
X132660000Y-102080000D01*
X131611000Y-102120000D02*
X132660000Y-102120000D01*
X131594000Y-102160000D02*
X132660000Y-102160000D01*
X131577000Y-102200000D02*
X132660000Y-102200000D01*
X131561000Y-102240000D02*
X132660000Y-102240000D01*
X131546000Y-102280000D02*
X132660000Y-102280000D01*
X131532000Y-102320000D02*
X132660000Y-102320000D01*
X131519000Y-102360000D02*
X132660000Y-102360000D01*
X131507000Y-102400000D02*
X132660000Y-102400000D01*
X131495000Y-102440000D02*
X132660000Y-102440000D01*
X131485000Y-102480000D02*
X132660000Y-102480000D01*
X131475000Y-102520000D02*
X132660000Y-102520000D01*
X131466000Y-102560000D02*
X132660000Y-102560000D01*
X131458000Y-102600000D02*
X132660000Y-102600000D01*
X131451000Y-102640000D02*
X132660000Y-102640000D01*
X131444000Y-102680000D02*
X132660000Y-102680000D01*
X131439000Y-102720000D02*
X132660000Y-102720000D01*
X131434000Y-102760000D02*
X132660000Y-102760000D01*
X131429000Y-102800000D02*
X132660000Y-102800000D01*
X131426000Y-102840000D02*
X135574000Y-102840000D01*
X131423000Y-102880000D02*
X135577000Y-102880000D01*
X131422000Y-102920000D02*
X135578000Y-102920000D01*
X131420000Y-103000000D02*
X135580000Y-103000000D01*
X131420000Y-102960000D02*
X135580000Y-102960000D01*
X135620000Y-103000000D02*
G75*
G02*
X131380000Y-103000000I-2120000J0D01*
G01*
X131380000Y-103000000D02*
G75*
G02*
X135620000Y-103000000I2120000J0D01*
G01*
%TO.C,Rfin2*%
X120460000Y-104000000D02*
X121230000Y-104000000D01*
X128540000Y-104000000D02*
X127770000Y-104000000D01*
X121230000Y-102630000D02*
X127770000Y-102630000D01*
X127770000Y-105370000D01*
X121230000Y-105370000D01*
X121230000Y-102630000D01*
%TD*%
M02*
