%TF.GenerationSoftware,KiCad,Pcbnew,9.0.6*%
%TF.CreationDate,2026-05-18T18:36:24-03:00*%
%TF.ProjectId,TCC Circuito,54434320-4369-4726-9375-69746f2e6b69,rev?*%
%TF.SameCoordinates,Original*%
%TF.FileFunction,Soldermask,Top*%
%TF.FilePolarity,Negative*%
%FSLAX46Y46*%
G04 Gerber Fmt 4.6, Leading zero omitted, Abs format (unit mm)*
G04 Created by KiCad (PCBNEW 9.0.6) date 2026-05-18 18:36:24*
%MOMM*%
%LPD*%
G01*
G04 APERTURE LIST*
G04 Aperture macros list*
%AMRoundRect*
0 Rectangle with rounded corners*
0 $1 Rounding radius*
0 $2 $3 $4 $5 $6 $7 $8 $9 X,Y pos of 4 corners*
0 Add a 4 corners polygon primitive as box body*
4,1,4,$2,$3,$4,$5,$6,$7,$8,$9,$2,$3,0*
0 Add four circle primitives for the rounded corners*
1,1,$1+$1,$2,$3*
1,1,$1+$1,$4,$5*
1,1,$1+$1,$6,$7*
1,1,$1+$1,$8,$9*
0 Add four rect primitives between the rounded corners*
20,1,$1+$1,$2,$3,$4,$5,0*
20,1,$1+$1,$4,$5,$6,$7,0*
20,1,$1+$1,$6,$7,$8,$9,0*
20,1,$1+$1,$8,$9,$2,$3,0*%
%AMFreePoly0*
4,1,37,0.603843,0.796157,0.639018,0.796157,0.711114,0.766294,0.766294,0.711114,0.796157,0.639018,0.796157,0.603843,0.800000,0.600000,0.800000,-0.600000,0.796157,-0.603843,0.796157,-0.639018,0.766294,-0.711114,0.711114,-0.766294,0.639018,-0.796157,0.603843,-0.796157,0.600000,-0.800000,0.000000,-0.800000,0.000000,-0.796148,-0.078414,-0.796148,-0.232228,-0.765552,-0.377117,-0.705537,
-0.507515,-0.618408,-0.618408,-0.507515,-0.705537,-0.377117,-0.765552,-0.232228,-0.796148,-0.078414,-0.796148,0.078414,-0.765552,0.232228,-0.705537,0.377117,-0.618408,0.507515,-0.507515,0.618408,-0.377117,0.705537,-0.232228,0.765552,-0.078414,0.796148,0.000000,0.796148,0.000000,0.800000,0.600000,0.800000,0.603843,0.796157,0.603843,0.796157,$1*%
%AMFreePoly1*
4,1,37,0.000000,0.796148,0.078414,0.796148,0.232228,0.765552,0.377117,0.705537,0.507515,0.618408,0.618408,0.507515,0.705537,0.377117,0.765552,0.232228,0.796148,0.078414,0.796148,-0.078414,0.765552,-0.232228,0.705537,-0.377117,0.618408,-0.507515,0.507515,-0.618408,0.377117,-0.705537,0.232228,-0.765552,0.078414,-0.796148,0.000000,-0.796148,0.000000,-0.800000,-0.600000,-0.800000,
-0.603843,-0.796157,-0.639018,-0.796157,-0.711114,-0.766294,-0.766294,-0.711114,-0.796157,-0.639018,-0.796157,-0.603843,-0.800000,-0.600000,-0.800000,0.600000,-0.796157,0.603843,-0.796157,0.639018,-0.766294,0.711114,-0.711114,0.766294,-0.639018,0.796157,-0.603843,0.796157,-0.600000,0.800000,0.000000,0.800000,0.000000,0.796148,0.000000,0.796148,$1*%
G04 Aperture macros list end*
%ADD10C,1.600000*%
%ADD11C,2.500000*%
%ADD12C,3.000000*%
%ADD13RoundRect,0.250000X-0.550000X0.550000X-0.550000X-0.550000X0.550000X-0.550000X0.550000X0.550000X0*%
%ADD14RoundRect,0.250000X-0.550000X-0.550000X0.550000X-0.550000X0.550000X0.550000X-0.550000X0.550000X0*%
%ADD15RoundRect,0.250000X0.550000X-0.550000X0.550000X0.550000X-0.550000X0.550000X-0.550000X-0.550000X0*%
%ADD16R,1.500000X1.500000*%
%ADD17C,1.500000*%
%ADD18C,1.700000*%
%ADD19R,1.700000X1.700000*%
%ADD20C,1.440000*%
%ADD21R,2.600000X1.800000*%
%ADD22O,2.600000X1.800000*%
%ADD23RoundRect,0.250000X0.350000X-0.350000X0.350000X0.350000X-0.350000X0.350000X-0.350000X-0.350000X0*%
%ADD24C,1.200000*%
%ADD25RoundRect,0.250000X0.350000X0.350000X-0.350000X0.350000X-0.350000X-0.350000X0.350000X-0.350000X0*%
%ADD26RoundRect,0.250000X-0.350000X0.350000X-0.350000X-0.350000X0.350000X-0.350000X0.350000X0.350000X0*%
%ADD27R,4.600000X2.000000*%
%ADD28O,4.200000X2.000000*%
%ADD29O,2.000000X4.200000*%
%ADD30RoundRect,0.200000X-0.600000X-0.600000X0.600000X-0.600000X0.600000X0.600000X-0.600000X0.600000X0*%
%ADD31FreePoly0,0.000000*%
%ADD32FreePoly1,0.000000*%
G04 APERTURE END LIST*
D10*
%TO.C,Furo1*%
X126000000Y-111900000D03*
X126000000Y-106820000D03*
%TD*%
%TO.C,Rp1*%
X128500000Y-141000000D03*
X128500000Y-130840000D03*
%TD*%
%TO.C,Rs-4*%
X125000000Y-145000000D03*
X125000000Y-134840000D03*
%TD*%
D11*
%TO.C,K2*%
X131550000Y-81700000D03*
D12*
X131500000Y-69450000D03*
X143550000Y-69500000D03*
D11*
X143550000Y-81700000D03*
D12*
X137500000Y-83650000D03*
%TD*%
D10*
%TO.C,CF+1*%
X134000000Y-118750000D03*
D13*
X134000000Y-115250000D03*
%TD*%
D10*
%TO.C,U1*%
X121310000Y-132750000D03*
X121310000Y-135290000D03*
X121310000Y-137830000D03*
X121310000Y-140370000D03*
X113690000Y-140370000D03*
X113690000Y-137830000D03*
X113690000Y-135290000D03*
D14*
X113690000Y-132750000D03*
%TD*%
D10*
%TO.C,U2*%
X113130000Y-118862500D03*
X115670000Y-118862500D03*
X118210000Y-118862500D03*
X120750000Y-118862500D03*
X120750000Y-126482500D03*
X118210000Y-126482500D03*
X115670000Y-126482500D03*
D15*
X113130000Y-126482500D03*
%TD*%
D10*
%TO.C,Cf-1*%
X128000000Y-126750000D03*
D13*
X128000000Y-123250000D03*
%TD*%
D10*
%TO.C,Rsh1*%
X116200000Y-106910000D03*
X116200000Y-99290000D03*
%TD*%
D16*
%TO.C,Q4*%
X124600000Y-94200000D03*
D17*
X122060000Y-94200000D03*
X119520000Y-94200000D03*
%TD*%
D13*
%TO.C,U3*%
X148430000Y-108981130D03*
D10*
X145890000Y-108981130D03*
X143350000Y-108981130D03*
X140810000Y-108981130D03*
X140810000Y-116601130D03*
X143350000Y-116601130D03*
X145890000Y-116601130D03*
X148430000Y-116601130D03*
%TD*%
D18*
%TO.C,U4*%
X179227500Y-107980000D03*
X179227500Y-110520000D03*
X179227500Y-100360000D03*
X179227500Y-113060000D03*
X179227500Y-115600000D03*
X179227500Y-118140000D03*
X179227500Y-120680000D03*
D19*
X179227500Y-97820000D03*
D18*
X179227500Y-105440000D03*
X179227500Y-102900000D03*
%TD*%
D20*
%TO.C,RV2*%
X215500000Y-131750000D03*
X215500000Y-129210000D03*
X215500000Y-126670000D03*
%TD*%
D10*
%TO.C,Furo2*%
X148390000Y-88612500D03*
X148390000Y-103852500D03*
%TD*%
D12*
%TO.C,K1*%
X157000000Y-83650000D03*
D11*
X163050000Y-81700000D03*
D12*
X163050000Y-69500000D03*
X151000000Y-69450000D03*
D11*
X151050000Y-81700000D03*
%TD*%
D12*
%TO.C,DS1*%
X224440000Y-137349100D03*
X255440700Y-137349100D03*
X255440700Y-62350520D03*
X224440000Y-62350000D03*
D21*
X224440000Y-131850000D03*
D22*
X224440000Y-129310000D03*
X224440000Y-126770000D03*
X224440000Y-124230000D03*
X224440000Y-121690000D03*
X224440000Y-119150000D03*
X224440000Y-116610000D03*
X224440000Y-114070000D03*
X224440000Y-111530000D03*
X224440000Y-108990000D03*
X224440000Y-106450000D03*
X224440000Y-103910000D03*
X224440000Y-101370000D03*
X224440000Y-98830000D03*
X224440000Y-96290000D03*
X224440000Y-93750000D03*
%TD*%
D16*
%TO.C,Q2*%
X171460000Y-78650000D03*
D17*
X174000000Y-78650000D03*
X176540000Y-78650000D03*
%TD*%
D10*
%TO.C,Furo5*%
X127800000Y-94000000D03*
X127800000Y-83840000D03*
%TD*%
%TO.C,Furo8*%
X167650000Y-128649188D03*
X182890000Y-128649188D03*
%TD*%
%TO.C,RQ1*%
X181802069Y-83525324D03*
X174182069Y-83525324D03*
%TD*%
%TO.C,RG1k1*%
X141690000Y-61650000D03*
X134070000Y-61650000D03*
%TD*%
D23*
%TO.C,Cfin2*%
X133500000Y-99000000D03*
D24*
X133500000Y-97000000D03*
%TD*%
D10*
%TO.C,Furo7*%
X185500000Y-69500000D03*
X185500000Y-94900000D03*
%TD*%
%TO.C,RG100*%
X120390000Y-55302500D03*
X120390000Y-62922500D03*
%TD*%
D25*
%TO.C,Cfout1*%
X158390000Y-136612500D03*
D24*
X156390000Y-136612500D03*
%TD*%
D10*
%TO.C,Rs-2*%
X141250000Y-134910000D03*
X141250000Y-124750000D03*
%TD*%
%TO.C,RQ2*%
X181802069Y-72660543D03*
X174182069Y-72660543D03*
%TD*%
%TO.C,RQ3*%
X181783305Y-61664409D03*
X174163305Y-61664409D03*
%TD*%
%TO.C,Rf-1*%
X118300000Y-115400000D03*
X128460000Y-115400000D03*
%TD*%
%TO.C,Furo9*%
X164560000Y-130570000D03*
X164560000Y-140730000D03*
%TD*%
%TO.C,RG10*%
X115890000Y-55302500D03*
X115890000Y-62922500D03*
%TD*%
D14*
%TO.C,U7*%
X178485000Y-133612500D03*
D10*
X178485000Y-136152500D03*
X178485000Y-138692500D03*
X178485000Y-141232500D03*
X186105000Y-141232500D03*
X186105000Y-138692500D03*
X186105000Y-136152500D03*
X186105000Y-133612500D03*
%TD*%
%TO.C,Rs-1*%
X131500000Y-137750000D03*
X141660000Y-137750000D03*
%TD*%
D13*
%TO.C,Cf2*%
X170890000Y-140209849D03*
D10*
X170890000Y-143709849D03*
%TD*%
D13*
%TO.C,Cf1*%
X193000000Y-135250000D03*
D10*
X193000000Y-138750000D03*
%TD*%
%TO.C,Furo3*%
X144890000Y-88612500D03*
X144890000Y-103852500D03*
%TD*%
D15*
%TO.C,U5*%
X144932874Y-136922500D03*
D10*
X147472874Y-136922500D03*
X150012874Y-136922500D03*
X152552874Y-136922500D03*
X152552874Y-129302500D03*
X150012874Y-129302500D03*
X147472874Y-129302500D03*
X144932874Y-129302500D03*
%TD*%
D26*
%TO.C,Cv1*%
X174250000Y-134750000D03*
D24*
X174250000Y-136750000D03*
%TD*%
D10*
%TO.C,Rfmos1*%
X181700000Y-89300000D03*
X174080000Y-89300000D03*
%TD*%
%TO.C,Furo4*%
X151890000Y-103772500D03*
X151890000Y-93612500D03*
%TD*%
D27*
%TO.C,J3*%
X203350000Y-131900000D03*
D28*
X203350000Y-138200000D03*
D29*
X208150000Y-134800000D03*
%TD*%
D20*
%TO.C,RV1*%
X132670000Y-142000000D03*
X135210000Y-142000000D03*
X137750000Y-142000000D03*
%TD*%
D10*
%TO.C,Rfin1*%
X119340000Y-99250000D03*
X129500000Y-99250000D03*
%TD*%
D13*
%TO.C,Cfmos1*%
X158100000Y-89300000D03*
D10*
X158100000Y-92800000D03*
%TD*%
D30*
%TO.C,A1*%
X190500000Y-77520000D03*
D10*
X190500000Y-80060000D03*
D31*
X190500000Y-82600000D03*
D10*
X190500000Y-85140000D03*
X190500000Y-87680000D03*
X190500000Y-90220000D03*
X190500000Y-92760000D03*
D31*
X190500000Y-95300000D03*
D10*
X190500000Y-97840000D03*
X190500000Y-100380000D03*
X190500000Y-102920000D03*
X190500000Y-105460000D03*
D31*
X190500000Y-108000000D03*
D10*
X190500000Y-110540000D03*
X190500000Y-113080000D03*
X190500000Y-115620000D03*
X190500000Y-118160000D03*
D31*
X190500000Y-120700000D03*
D10*
X190500000Y-123240000D03*
X190500000Y-125780000D03*
X208280000Y-125780000D03*
X208280000Y-123240000D03*
D32*
X208280000Y-120700000D03*
D10*
X208280000Y-118160000D03*
X208280000Y-115620000D03*
X208280000Y-113080000D03*
X208280000Y-110540000D03*
D32*
X208280000Y-108000000D03*
D10*
X208280000Y-105460000D03*
X208280000Y-102920000D03*
X208280000Y-100380000D03*
X208280000Y-97840000D03*
D32*
X208280000Y-95300000D03*
D10*
X208280000Y-92760000D03*
X208280000Y-90220000D03*
X208280000Y-87680000D03*
X208280000Y-85140000D03*
D32*
X208280000Y-82600000D03*
D10*
X208280000Y-80060000D03*
X208280000Y-77520000D03*
%TD*%
%TO.C,RLED1*%
X213500000Y-87160000D03*
X213500000Y-77000000D03*
%TD*%
%TO.C,RG10k1*%
X141690000Y-57150000D03*
X134070000Y-57150000D03*
%TD*%
D16*
%TO.C,Q3*%
X171460000Y-56650000D03*
D17*
X174000000Y-56650000D03*
X176540000Y-56650000D03*
%TD*%
D19*
%TO.C,J2*%
X210750000Y-72475000D03*
D18*
X213290000Y-72475000D03*
%TD*%
D10*
%TO.C,Rf+1*%
X145370000Y-122000000D03*
X137750000Y-122000000D03*
%TD*%
D16*
%TO.C,Q1*%
X171460000Y-67650000D03*
D17*
X174000000Y-67650000D03*
X176540000Y-67650000D03*
%TD*%
D10*
%TO.C,Rfout1*%
X158890000Y-125112500D03*
X158890000Y-132732500D03*
%TD*%
D19*
%TO.C,J1*%
X106750000Y-131992500D03*
D18*
X106750000Y-134532500D03*
X106750000Y-137072500D03*
X106750000Y-139612500D03*
%TD*%
D11*
%TO.C,K3*%
X111550000Y-81800000D03*
D12*
X111500000Y-69550000D03*
X123550000Y-69600000D03*
D11*
X123550000Y-81800000D03*
D12*
X117500000Y-83750000D03*
%TD*%
D23*
%TO.C,Cfin1*%
X133500000Y-104000000D03*
D24*
X133500000Y-102000000D03*
%TD*%
D10*
%TO.C,Rfin2*%
X119420000Y-104000000D03*
X129580000Y-104000000D03*
%TD*%
M02*
