M48
; DRILL file {KiCad 9.0.6} date 2026-05-18T18:37:04-0300
; FORMAT={-:-/ absolute / metric / decimal}
; #@! TF.CreationDate,2026-05-18T18:37:04-03:00
; #@! TF.GenerationSoftware,Kicad,Pcbnew,9.0.6
; #@! TF.FileFunction,Plated,1,2,PTH
FMAT,2
METRIC
; #@! TA.AperFunction,Plated,PTH,ComponentDrill
T1C0.600
; #@! TA.AperFunction,Plated,PTH,ComponentDrill
T2C0.800
; #@! TA.AperFunction,Plated,PTH,ComponentDrill
T3C1.000
; #@! TA.AperFunction,Plated,PTH,ComponentDrill
T4C1.200
; #@! TA.AperFunction,Plated,PTH,ComponentDrill
T5C1.300
; #@! TA.AperFunction,Plated,PTH,ComponentDrill
T6C2.500
%
G90
G05
T1
X133.5Y-97.0
X133.5Y-99.0
X133.5Y-102.0
X133.5Y-104.0
X156.39Y-136.612
X158.39Y-136.612
X174.25Y-134.75
X174.25Y-136.75
T2
X113.13Y-118.862
X113.13Y-126.482
X113.69Y-132.75
X113.69Y-135.29
X113.69Y-137.83
X113.69Y-140.37
X115.67Y-118.862
X115.67Y-126.482
X115.89Y-55.302
X115.89Y-62.922
X116.2Y-99.29
X116.2Y-106.91
X118.21Y-118.862
X118.21Y-126.482
X118.3Y-115.4
X119.34Y-99.25
X119.42Y-104.0
X119.52Y-94.2
X120.39Y-55.302
X120.39Y-62.922
X120.75Y-118.862
X120.75Y-126.482
X121.31Y-132.75
X121.31Y-135.29
X121.31Y-137.83
X121.31Y-140.37
X122.06Y-94.2
X124.6Y-94.2
X125.0Y-134.84
X125.0Y-145.0
X126.0Y-106.82
X126.0Y-111.9
X127.8Y-83.84
X127.8Y-94.0
X128.0Y-123.25
X128.0Y-126.75
X128.46Y-115.4
X128.5Y-130.84
X128.5Y-141.0
X129.5Y-99.25
X129.58Y-104.0
X131.5Y-137.75
X132.67Y-142.0
X134.0Y-115.25
X134.0Y-118.75
X134.07Y-57.15
X134.07Y-61.65
X135.21Y-142.0
X137.75Y-122.0
X137.75Y-142.0
X140.81Y-108.981
X140.81Y-116.601
X141.25Y-124.75
X141.25Y-134.91
X141.66Y-137.75
X141.69Y-57.15
X141.69Y-61.65
X143.35Y-108.981
X143.35Y-116.601
X144.89Y-88.612
X144.89Y-103.852
X144.933Y-129.302
X144.933Y-136.922
X145.37Y-122.0
X145.89Y-108.981
X145.89Y-116.601
X147.473Y-129.302
X147.473Y-136.922
X148.39Y-88.612
X148.39Y-103.852
X148.43Y-108.981
X148.43Y-116.601
X150.013Y-129.302
X150.013Y-136.922
X151.89Y-93.612
X151.89Y-103.772
X152.553Y-129.302
X152.553Y-136.922
X158.1Y-89.3
X158.1Y-92.8
X158.89Y-125.112
X158.89Y-132.732
X164.56Y-130.57
X164.56Y-140.73
X167.65Y-128.649
X170.89Y-140.21
X170.89Y-143.71
X171.46Y-56.65
X171.46Y-67.65
X171.46Y-78.65
X174.0Y-56.65
X174.0Y-67.65
X174.0Y-78.65
X174.08Y-89.3
X174.163Y-61.664
X174.182Y-72.661
X174.182Y-83.525
X176.54Y-56.65
X176.54Y-67.65
X176.54Y-78.65
X178.485Y-133.612
X178.485Y-136.153
X178.485Y-138.692
X178.485Y-141.232
X181.7Y-89.3
X181.783Y-61.664
X181.802Y-72.661
X181.802Y-83.525
X182.89Y-128.649
X185.5Y-69.5
X185.5Y-94.9
X186.105Y-133.612
X186.105Y-136.153
X186.105Y-138.692
X186.105Y-141.232
X193.0Y-135.25
X193.0Y-138.75
X213.5Y-77.0
X213.5Y-87.16
X215.5Y-126.67
X215.5Y-129.21
X215.5Y-131.75
T3
X106.75Y-131.993
X106.75Y-134.532
X106.75Y-137.072
X106.75Y-139.612
X111.55Y-81.8
X123.55Y-81.8
X131.55Y-81.7
X143.55Y-81.7
X151.05Y-81.7
X163.05Y-81.7
X179.227Y-97.82
X179.227Y-100.36
X179.227Y-102.9
X179.227Y-105.44
X179.227Y-107.98
X179.227Y-110.52
X179.227Y-113.06
X179.227Y-115.6
X179.227Y-118.14
X179.227Y-120.68
X190.5Y-77.52
X190.5Y-80.06
X190.5Y-82.6
X190.5Y-85.14
X190.5Y-87.68
X190.5Y-90.22
X190.5Y-92.76
X190.5Y-95.3
X190.5Y-97.84
X190.5Y-100.38
X190.5Y-102.92
X190.5Y-105.46
X190.5Y-108.0
X190.5Y-110.54
X190.5Y-113.08
X190.5Y-115.62
X190.5Y-118.16
X190.5Y-120.7
X190.5Y-123.24
X190.5Y-125.78
X208.28Y-77.52
X208.28Y-80.06
X208.28Y-82.6
X208.28Y-85.14
X208.28Y-87.68
X208.28Y-90.22
X208.28Y-92.76
X208.28Y-95.3
X208.28Y-97.84
X208.28Y-100.38
X208.28Y-102.92
X208.28Y-105.46
X208.28Y-108.0
X208.28Y-110.54
X208.28Y-113.08
X208.28Y-115.62
X208.28Y-118.16
X208.28Y-120.7
X208.28Y-123.24
X208.28Y-125.78
X210.75Y-72.475
X213.29Y-72.475
T4
X224.44Y-93.75
X224.44Y-96.29
X224.44Y-98.83
X224.44Y-101.37
X224.44Y-103.91
X224.44Y-106.45
X224.44Y-108.99
X224.44Y-111.53
X224.44Y-114.07
X224.44Y-116.61
X224.44Y-119.15
X224.44Y-121.69
X224.44Y-124.23
X224.44Y-126.77
X224.44Y-129.31
X224.44Y-131.85
T5
X111.5Y-69.55
X117.5Y-83.75
X123.55Y-69.6
X131.5Y-69.45
X137.5Y-83.65
X143.55Y-69.5
X151.0Y-69.45
X157.0Y-83.65
X163.05Y-69.5
T6
X224.44Y-62.35
X224.44Y-137.349
X255.441Y-62.351
X255.441Y-137.349
T3
G00X202.05Y-131.9
M15
G01X204.65Y-131.9
M16
G05
G00X202.25Y-138.2
M15
G01X204.45Y-138.2
M16
G05
G00X208.15Y-133.7
M15
G01X208.15Y-135.9
M16
G05
M30
